<svg width="191" height="60" viewBox="0 0 191 60" fill="none" xmlns="http://www.w3.org/2000/svg">
<path d="M41.36 18.76L34.768 41H30.64L25.968 24.168L21.008 41L16.912 41.032L10.608 18.76H14.48L19.088 36.872L24.08 18.76H28.176L32.816 36.776L37.456 18.76H41.36ZM54.2887 23.08C55.6327 23.08 56.8274 23.368 57.8728 23.944C58.9394 24.52 59.7714 25.3733 60.3687 26.504C60.9874 27.6347 61.2968 29 61.2968 30.6V41H57.6807V31.144C57.6807 29.5653 57.2861 28.36 56.4967 27.528C55.7074 26.6747 54.6301 26.248 53.2647 26.248C51.8994 26.248 50.8114 26.6747 50.0007 27.528C49.2114 28.36 48.8167 29.5653 48.8167 31.144V41H45.1687V17.32H48.8167V25.416C49.4354 24.6693 50.2141 24.0933 51.1528 23.688C52.1127 23.2827 53.1581 23.08 54.2887 23.08ZM65.534 32.104C65.534 30.3333 65.8967 28.7653 66.622 27.4C67.3687 26.0347 68.3713 24.9787 69.63 24.232C70.91 23.464 72.318 23.08 73.854 23.08C75.2407 23.08 76.446 23.3573 77.47 23.912C78.5153 24.4453 79.3473 25.1173 79.966 25.928V23.368H83.646V41H79.966V38.376C79.3473 39.208 78.5047 39.9013 77.438 40.456C76.3713 41.0107 75.1553 41.288 73.79 41.288C72.2753 41.288 70.8887 40.904 69.63 40.136C68.3713 39.3467 67.3687 38.2587 66.622 36.872C65.8967 35.464 65.534 33.8747 65.534 32.104ZM79.966 32.168C79.966 30.952 79.71 29.896 79.198 29C78.7073 28.104 78.0567 27.4213 77.246 26.952C76.4353 26.4827 75.5607 26.248 74.622 26.248C73.6833 26.248 72.8087 26.4827 71.998 26.952C71.1873 27.4 70.526 28.072 70.014 28.968C69.5233 29.8427 69.278 30.888 69.278 32.104C69.278 33.32 69.5233 34.3867 70.014 35.304C70.526 36.2213 71.1873 36.9253 71.998 37.416C72.83 37.8853 73.7047 38.12 74.622 38.12C75.5607 38.12 76.4353 37.8853 77.246 37.416C78.0567 36.9467 78.7073 36.264 79.198 35.368C79.71 34.4507 79.966 33.384 79.966 32.168ZM93.4935 26.344V36.104C93.4935 36.7653 93.6428 37.2453 93.9415 37.544C94.2615 37.8213 94.7948 37.96 95.5415 37.96H97.7815V41H94.9015C93.2588 41 92.0002 40.616 91.1255 39.848C90.2508 39.08 89.8135 37.832 89.8135 36.104V26.344H87.7335V23.368H89.8135V18.984H93.4935V23.368H97.7815V26.344H93.4935ZM114.704 18.76V41H111.056V18.76H114.704ZM128.19 32.104C128.19 30.3333 128.553 28.7653 129.278 27.4C130.025 26.0347 131.028 24.9787 132.286 24.232C133.566 23.464 134.985 23.08 136.542 23.08C137.694 23.08 138.825 23.336 139.934 23.848C141.065 24.3387 141.961 25 142.622 25.832V17.32H146.302V41H142.622V38.344C142.025 39.1973 141.193 39.9013 140.126 40.456C139.081 41.0107 137.876 41.288 136.51 41.288C134.974 41.288 133.566 40.904 132.286 40.136C131.028 39.3467 130.025 38.2587 129.278 36.872C128.553 35.464 128.19 33.8747 128.19 32.104ZM142.622 32.168C142.622 30.952 142.366 29.896 141.854 29C141.364 28.104 140.713 27.4213 139.902 26.952C139.092 26.4827 138.217 26.248 137.278 26.248C136.34 26.248 135.465 26.4827 134.654 26.952C133.844 27.4 133.182 28.072 132.67 28.968C132.18 29.8427 131.934 30.888 131.934 32.104C131.934 33.32 132.18 34.3867 132.67 35.304C133.182 36.2213 133.844 36.9253 134.654 37.416C135.486 37.8853 136.361 38.12 137.278 38.12C138.217 38.12 139.092 37.8853 139.902 37.416C140.713 36.9467 141.364 36.264 141.854 35.368C142.366 34.4507 142.622 33.384 142.622 32.168ZM159.542 41.288C157.878 41.288 156.374 40.9147 155.03 40.168C153.686 39.4 152.63 38.3333 151.862 36.968C151.094 35.5813 150.71 33.9813 150.71 32.168C150.71 30.376 151.104 28.7867 151.894 27.4C152.683 26.0133 153.76 24.9467 155.126 24.2C156.491 23.4533 158.016 23.08 159.702 23.08C161.387 23.08 162.912 23.4533 164.278 24.2C165.643 24.9467 166.72 26.0133 167.51 27.4C168.299 28.7867 168.694 30.376 168.694 32.168C168.694 33.96 168.288 35.5493 167.478 36.936C166.667 38.3227 165.558 39.4 164.15 40.168C162.763 40.9147 161.227 41.288 159.542 41.288ZM159.542 38.12C160.48 38.12 161.355 37.896 162.166 37.448C162.998 37 163.67 36.328 164.182 35.432C164.694 34.536 164.95 33.448 164.95 32.168C164.95 30.888 164.704 29.8107 164.214 28.936C163.723 28.04 163.072 27.368 162.262 26.92C161.451 26.472 160.576 26.248 159.638 26.248C158.699 26.248 157.824 26.472 157.014 26.92C156.224 27.368 155.595 28.04 155.126 28.936C154.656 29.8107 154.422 30.888 154.422 32.168C154.422 34.0667 154.902 35.5387 155.862 36.584C156.843 37.608 158.07 38.12 159.542 38.12ZM177.676 18.76L177.26 34.28H174.22L173.804 18.76H177.676ZM175.852 41.224C175.191 41.224 174.636 41 174.188 40.552C173.74 40.104 173.516 39.5493 173.516 38.888C173.516 38.2267 173.74 37.672 174.188 37.224C174.636 36.776 175.191 36.552 175.852 36.552C176.492 36.552 177.036 36.776 177.484 37.224C177.932 37.672 178.156 38.2267 178.156 38.888C178.156 39.5493 177.932 40.104 177.484 40.552C177.036 41 176.492 41.224 175.852 41.224Z" fill="black"/>
</svg>
