<svg width="497" height="60" viewBox="0 0 497 60" fill="none" xmlns="http://www.w3.org/2000/svg">
<path d="M21.26 38.32H9.62L7.62 44H2.86L12.82 16.16H18.1L28.06 44H23.26L21.26 38.32ZM19.98 34.6L15.46 21.68L10.9 34.6H19.98ZM48.2706 29.72C49.764 29.9867 51.0306 30.7733 52.0706 32.08C53.1106 33.3867 53.6306 34.8667 53.6306 36.52C53.6306 37.9333 53.2573 39.2133 52.5106 40.36C51.7906 41.48 50.7373 42.3733 49.3506 43.04C47.964 43.68 46.3506 44 44.5106 44H33.3906V16.2H43.9906C45.884 16.2 47.5106 16.52 48.8706 17.16C50.2306 17.8 51.2573 18.6667 51.9506 19.76C52.644 20.8267 52.9906 22.0267 52.9906 23.36C52.9906 24.96 52.564 26.2933 51.7106 27.36C50.8573 28.4267 49.7106 29.2133 48.2706 29.72ZM37.9506 27.88H43.5906C45.084 27.88 46.244 27.5467 47.0706 26.88C47.924 26.1867 48.3506 25.2 48.3506 23.92C48.3506 22.6667 47.924 21.6933 47.0706 21C46.244 20.28 45.084 19.92 43.5906 19.92H37.9506V27.88ZM44.1106 40.28C45.6573 40.28 46.8706 39.9067 47.7506 39.16C48.6306 38.4133 49.0706 37.3733 49.0706 36.04C49.0706 34.68 48.604 33.6 47.6706 32.8C46.7373 32 45.4973 31.6 43.9506 31.6H37.9506V40.28H44.1106ZM72.2659 44.28C69.6793 44.28 67.2926 43.68 65.1059 42.48C62.9459 41.2533 61.2259 39.56 59.9459 37.4C58.6926 35.2133 58.0659 32.76 58.0659 30.04C58.0659 27.32 58.6926 24.88 59.9459 22.72C61.2259 20.56 62.9459 18.88 65.1059 17.68C67.2926 16.4533 69.6793 15.84 72.2659 15.84C74.8793 15.84 77.2659 16.4533 79.4259 17.68C81.6126 18.88 83.3326 20.56 84.5859 22.72C85.8393 24.88 86.4659 27.32 86.4659 30.04C86.4659 32.76 85.8393 35.2133 84.5859 37.4C83.3326 39.56 81.6126 41.2533 79.4259 42.48C77.2659 43.68 74.8793 44.28 72.2659 44.28ZM72.2659 40.32C74.1059 40.32 75.7459 39.9067 77.1859 39.08C78.6259 38.2267 79.7459 37.0267 80.5459 35.48C81.3726 33.9067 81.7859 32.0933 81.7859 30.04C81.7859 27.9867 81.3726 26.1867 80.5459 24.64C79.7459 23.0933 78.6259 21.9067 77.1859 21.08C75.7459 20.2533 74.1059 19.84 72.2659 19.84C70.4259 19.84 68.7859 20.2533 67.3459 21.08C65.9059 21.9067 64.7726 23.0933 63.9459 24.64C63.1459 26.1867 62.7459 27.9867 62.7459 30.04C62.7459 32.0933 63.1459 33.9067 63.9459 35.48C64.7726 37.0267 65.9059 38.2267 67.3459 39.08C68.7859 39.9067 70.4259 40.32 72.2659 40.32ZM96.4731 16.2V33.92C96.4731 36.0267 97.0198 37.6133 98.1131 38.68C99.2331 39.7467 100.78 40.28 102.753 40.28C104.753 40.28 106.3 39.7467 107.393 38.68C108.513 37.6133 109.073 36.0267 109.073 33.92V16.2H113.633V33.84C113.633 36.1067 113.14 38.0267 112.153 39.6C111.166 41.1733 109.846 42.3467 108.193 43.12C106.54 43.8933 104.713 44.28 102.713 44.28C100.713 44.28 98.8865 43.8933 97.2331 43.12C95.6065 42.3467 94.3131 41.1733 93.3531 39.6C92.3931 38.0267 91.9131 36.1067 91.9131 33.84V16.2H96.4731ZM138.53 16.2V19.92H131.13V44H126.57V19.92H119.13V16.2H138.53ZM184.819 16.2V44H180.259V24.96L171.779 44H168.619L160.099 24.96V44H155.539V16.2H160.459L170.219 38L179.939 16.2H184.819ZM196.373 19.88V28.04H205.973V31.76H196.373V40.28H207.173V44H191.813V16.16H207.173V19.88H196.373Z" fill="#0B0909"/>
<path d="M244 29L496 31" stroke="url(#paint0_linear_38_84)" stroke-width="2" stroke-linecap="round"/>
<defs>
<linearGradient id="paint0_linear_38_84" x1="370" y1="29" x2="370" y2="31" gradientUnits="userSpaceOnUse">
<stop stop-color="#FE9119"/>
<stop offset="1" stop-color="#ED250A"/>
</linearGradient>
</defs>
</svg>
