<svg width="599" height="88" viewBox="0 0 599 88" fill="none" xmlns="http://www.w3.org/2000/svg">
<path d="M11.424 35V23.64H12.544V35H11.424ZM19.3749 32.6C19.3749 32.0773 19.5242 31.6293 19.8229 31.256C20.1215 30.872 20.5322 30.5787 21.0549 30.376C21.5882 30.1627 22.2015 30.056 22.8949 30.056C23.3002 30.056 23.7215 30.088 24.1589 30.152C24.5962 30.216 24.9855 30.312 25.3269 30.44V29.736C25.3269 29.032 25.1189 28.472 24.7029 28.056C24.2869 27.64 23.7109 27.432 22.9749 27.432C22.5269 27.432 22.0842 27.5173 21.6469 27.688C21.2202 27.848 20.7722 28.088 20.3029 28.408L19.8869 27.64C20.4309 27.2667 20.9642 26.9893 21.4869 26.808C22.0095 26.616 22.5429 26.52 23.0869 26.52C24.1109 26.52 24.9215 26.8133 25.5189 27.4C26.1162 27.9867 26.4149 28.7973 26.4149 29.832V33.688C26.4149 33.8373 26.4469 33.9493 26.5109 34.024C26.5749 34.088 26.6762 34.1253 26.8149 34.136V35C26.6975 35.0107 26.5962 35.0213 26.5109 35.032C26.4255 35.0427 26.3615 35.0427 26.3189 35.032C26.0522 35.0213 25.8495 34.936 25.7109 34.776C25.5722 34.616 25.4975 34.4453 25.4869 34.264L25.4709 33.656C25.0975 34.136 24.6122 34.5093 24.0149 34.776C23.4175 35.032 22.8095 35.16 22.1909 35.16C21.6575 35.16 21.1722 35.048 20.7349 34.824C20.3082 34.5893 19.9722 34.28 19.7269 33.896C19.4922 33.5013 19.3749 33.0693 19.3749 32.6ZM24.9589 33.24C25.0762 33.0907 25.1669 32.9467 25.2309 32.808C25.2949 32.6693 25.3269 32.5467 25.3269 32.44V31.224C24.9642 31.0853 24.5855 30.9787 24.1909 30.904C23.8069 30.8293 23.4175 30.792 23.0229 30.792C22.2442 30.792 21.6149 30.9467 21.1349 31.256C20.6549 31.5653 20.4149 31.9867 20.4149 32.52C20.4149 32.8293 20.4949 33.1227 20.6549 33.4C20.8149 33.6667 21.0495 33.8907 21.3589 34.072C21.6682 34.2427 22.0309 34.328 22.4469 34.328C22.9695 34.328 23.4549 34.2267 23.9029 34.024C24.3615 33.8213 24.7135 33.56 24.9589 33.24ZM41.5656 35H40.4776V30.344C40.4776 29.3733 40.323 28.6587 40.0136 28.2C39.7043 27.7413 39.2456 27.512 38.6376 27.512C38.0083 27.512 37.443 27.736 36.9416 28.184C36.451 28.632 36.1043 29.208 35.9016 29.912V35H34.8136V30.344C34.8136 29.3627 34.6643 28.648 34.3656 28.2C34.067 27.7413 33.6083 27.512 32.9896 27.512C32.371 27.512 31.811 27.7307 31.3096 28.168C30.8083 28.6053 30.4563 29.1813 30.2536 29.896V35H29.1656V26.664H30.1576V28.552C30.5096 27.9013 30.9576 27.4 31.5016 27.048C32.0563 26.696 32.6696 26.52 33.3416 26.52C34.035 26.52 34.595 26.7173 35.0216 27.112C35.4483 27.5067 35.7096 28.024 35.8056 28.664C36.1896 27.96 36.6483 27.4267 37.1816 27.064C37.7256 26.7013 38.339 26.52 39.0216 26.52C39.491 26.52 39.8856 26.6053 40.2056 26.776C40.5363 26.9467 40.7976 27.192 40.9896 27.512C41.1923 27.8213 41.3363 28.2 41.4216 28.648C41.5176 29.0853 41.5656 29.576 41.5656 30.12V35ZM48.0749 32.6C48.0749 32.0773 48.2242 31.6293 48.5229 31.256C48.8215 30.872 49.2322 30.5787 49.7549 30.376C50.2882 30.1627 50.9015 30.056 51.5949 30.056C52.0002 30.056 52.4215 30.088 52.8589 30.152C53.2962 30.216 53.6855 30.312 54.0269 30.44V29.736C54.0269 29.032 53.8189 28.472 53.4029 28.056C52.9869 27.64 52.4109 27.432 51.6749 27.432C51.2269 27.432 50.7842 27.5173 50.3469 27.688C49.9202 27.848 49.4722 28.088 49.0029 28.408L48.5869 27.64C49.1309 27.2667 49.6642 26.9893 50.1869 26.808C50.7095 26.616 51.2429 26.52 51.7869 26.52C52.8109 26.52 53.6215 26.8133 54.2189 27.4C54.8162 27.9867 55.1149 28.7973 55.1149 29.832V33.688C55.1149 33.8373 55.1469 33.9493 55.2109 34.024C55.2749 34.088 55.3762 34.1253 55.5149 34.136V35C55.3975 35.0107 55.2962 35.0213 55.2109 35.032C55.1255 35.0427 55.0615 35.0427 55.0189 35.032C54.7522 35.0213 54.5495 34.936 54.4109 34.776C54.2722 34.616 54.1975 34.4453 54.1869 34.264L54.1709 33.656C53.7975 34.136 53.3122 34.5093 52.7149 34.776C52.1175 35.032 51.5095 35.16 50.8909 35.16C50.3575 35.16 49.8722 35.048 49.4349 34.824C49.0082 34.5893 48.6722 34.28 48.4269 33.896C48.1922 33.5013 48.0749 33.0693 48.0749 32.6ZM53.6589 33.24C53.7762 33.0907 53.8669 32.9467 53.9309 32.808C53.9949 32.6693 54.0269 32.5467 54.0269 32.44V31.224C53.6642 31.0853 53.2855 30.9787 52.8909 30.904C52.5069 30.8293 52.1175 30.792 51.7229 30.792C50.9442 30.792 50.3149 30.9467 49.8349 31.256C49.3549 31.5653 49.1149 31.9867 49.1149 32.52C49.1149 32.8293 49.1949 33.1227 49.3549 33.4C49.5149 33.6667 49.7495 33.8907 50.0589 34.072C50.3682 34.2427 50.7309 34.328 51.1469 34.328C51.6695 34.328 52.1549 34.2267 52.6029 34.024C53.0615 33.8213 53.4135 33.56 53.6589 33.24ZM57.9136 23.32H59.0016V33.112C59.0016 33.528 59.0763 33.8 59.2256 33.928C59.375 34.056 59.5563 34.12 59.7696 34.12C59.9616 34.12 60.1536 34.0987 60.3456 34.056C60.5376 34.0133 60.703 33.9707 60.8416 33.928L61.0336 34.808C60.831 34.8933 60.5803 34.9627 60.2816 35.016C59.9936 35.0693 59.743 35.096 59.5296 35.096C59.039 35.096 58.6443 34.952 58.3456 34.664C58.0576 34.376 57.9136 33.9813 57.9136 33.48V23.32ZM72.8554 26.664H73.9274L70.3434 35H69.3994L67.6554 30.856L65.9274 35H64.9834L61.3994 26.664H62.4554L65.4954 33.88L67.0314 30.12L65.6234 26.68H66.5994L67.6554 29.384L68.7274 26.68H69.6874L68.2954 30.12L69.8314 33.88L72.8554 26.664ZM74.8999 32.6C74.8999 32.0773 75.0492 31.6293 75.3479 31.256C75.6465 30.872 76.0572 30.5787 76.5799 30.376C77.1132 30.1627 77.7265 30.056 78.4199 30.056C78.8252 30.056 79.2465 30.088 79.6839 30.152C80.1212 30.216 80.5105 30.312 80.8519 30.44V29.736C80.8519 29.032 80.6439 28.472 80.2279 28.056C79.8119 27.64 79.2359 27.432 78.4999 27.432C78.0519 27.432 77.6092 27.5173 77.1719 27.688C76.7452 27.848 76.2972 28.088 75.8279 28.408L75.4119 27.64C75.9559 27.2667 76.4892 26.9893 77.0119 26.808C77.5345 26.616 78.0679 26.52 78.6119 26.52C79.6359 26.52 80.4465 26.8133 81.0439 27.4C81.6412 27.9867 81.9399 28.7973 81.9399 29.832V33.688C81.9399 33.8373 81.9719 33.9493 82.0359 34.024C82.0999 34.088 82.2012 34.1253 82.3399 34.136V35C82.2225 35.0107 82.1212 35.0213 82.0359 35.032C81.9505 35.0427 81.8865 35.0427 81.8439 35.032C81.5772 35.0213 81.3745 34.936 81.2359 34.776C81.0972 34.616 81.0225 34.4453 81.0119 34.264L80.9959 33.656C80.6225 34.136 80.1372 34.5093 79.5399 34.776C78.9425 35.032 78.3345 35.16 77.7159 35.16C77.1825 35.16 76.6972 35.048 76.2599 34.824C75.8332 34.5893 75.4972 34.28 75.2519 33.896C75.0172 33.5013 74.8999 33.0693 74.8999 32.6ZM80.4839 33.24C80.6012 33.0907 80.6919 32.9467 80.7559 32.808C80.8199 32.6693 80.8519 32.5467 80.8519 32.44V31.224C80.4892 31.0853 80.1105 30.9787 79.7159 30.904C79.3319 30.8293 78.9425 30.792 78.5479 30.792C77.7692 30.792 77.1399 30.9467 76.6599 31.256C76.1799 31.5653 75.9399 31.9867 75.9399 32.52C75.9399 32.8293 76.0199 33.1227 76.1799 33.4C76.3399 33.6667 76.5745 33.8907 76.8839 34.072C77.1932 34.2427 77.5559 34.328 77.9719 34.328C78.4945 34.328 78.9799 34.2267 79.4279 34.024C79.8865 33.8213 80.2385 33.56 80.4839 33.24ZM84.9206 37.56C85.07 37.5707 85.214 37.576 85.3526 37.576C85.4913 37.5867 85.5926 37.5813 85.6566 37.56C85.7846 37.5387 85.9073 37.464 86.0246 37.336C86.142 37.208 86.2806 36.9627 86.4406 36.6C86.6006 36.2373 86.8246 35.704 87.1126 35L83.4806 26.664H84.6326L87.6886 33.88L90.5046 26.664H91.5926L87.2726 37.416C87.198 37.6187 87.086 37.8053 86.9366 37.976C86.7873 38.1573 86.6006 38.296 86.3766 38.392C86.1633 38.4987 85.8966 38.5573 85.5766 38.568C85.4806 38.5787 85.3793 38.5787 85.2726 38.568C85.1766 38.568 85.0593 38.5573 84.9206 38.536V37.56ZM96.0454 35.16C95.3627 35.16 94.728 35.048 94.1414 34.824C93.5547 34.6 93.048 34.2587 92.6214 33.8L93.0694 33.032C93.5387 33.4693 94.008 33.7893 94.4774 33.992C94.9574 34.184 95.464 34.28 95.9974 34.28C96.648 34.28 97.176 34.152 97.5814 33.896C97.9867 33.6293 98.1894 33.2507 98.1894 32.76C98.1894 32.4293 98.088 32.1787 97.8854 32.008C97.6934 31.8267 97.4107 31.6827 97.0374 31.576C96.6747 31.4587 96.2374 31.336 95.7254 31.208C95.1494 31.048 94.664 30.8827 94.2694 30.712C93.8854 30.5307 93.592 30.3067 93.3894 30.04C93.1974 29.7627 93.1014 29.4053 93.1014 28.968C93.1014 28.424 93.2347 27.976 93.5014 27.624C93.7787 27.2613 94.152 26.9893 94.6214 26.808C95.1014 26.616 95.6347 26.52 96.2214 26.52C96.8614 26.52 97.4267 26.6213 97.9174 26.824C98.408 27.0267 98.808 27.3093 99.1174 27.672L98.5894 28.408C98.2907 28.0667 97.9334 27.816 97.5174 27.656C97.112 27.4853 96.6587 27.4 96.1574 27.4C95.816 27.4 95.4907 27.448 95.1814 27.544C94.872 27.6293 94.616 27.7787 94.4134 27.992C94.2214 28.1947 94.1254 28.4773 94.1254 28.84C94.1254 29.1387 94.2 29.3733 94.3494 29.544C94.4987 29.704 94.7227 29.8427 95.0214 29.96C95.32 30.0667 95.688 30.184 96.1254 30.312C96.7547 30.4827 97.304 30.6587 97.7734 30.84C98.2427 31.0107 98.6054 31.2347 98.8614 31.512C99.1174 31.7893 99.2454 32.1787 99.2454 32.68C99.2454 33.4587 98.952 34.0667 98.3654 34.504C97.7787 34.9413 97.0054 35.16 96.0454 35.16ZM109.474 35.16C108.877 35.16 108.322 35.048 107.81 34.824C107.309 34.5893 106.871 34.2747 106.498 33.88C106.135 33.4747 105.853 33.016 105.65 32.504C105.447 31.9813 105.346 31.432 105.346 30.856C105.346 30.2587 105.447 29.704 105.65 29.192C105.853 28.6693 106.141 28.2107 106.514 27.816C106.887 27.4107 107.325 27.096 107.826 26.872C108.338 26.6373 108.893 26.52 109.49 26.52C110.087 26.52 110.637 26.6373 111.138 26.872C111.639 27.096 112.077 27.4107 112.45 27.816C112.823 28.2107 113.111 28.6693 113.314 29.192C113.517 29.704 113.618 30.2587 113.618 30.856C113.618 31.432 113.517 31.9813 113.314 32.504C113.111 33.016 112.823 33.4747 112.45 33.88C112.087 34.2747 111.65 34.5893 111.138 34.824C110.637 35.048 110.082 35.16 109.474 35.16ZM106.45 30.872C106.45 31.4907 106.583 32.056 106.85 32.568C107.127 33.0693 107.495 33.4693 107.954 33.768C108.413 34.056 108.919 34.2 109.474 34.2C110.029 34.2 110.535 34.0507 110.994 33.752C111.453 33.4533 111.821 33.048 112.098 32.536C112.375 32.0133 112.514 31.448 112.514 30.84C112.514 30.2213 112.375 29.656 112.098 29.144C111.821 28.632 111.453 28.2267 110.994 27.928C110.535 27.6293 110.029 27.48 109.474 27.48C108.919 27.48 108.413 27.6347 107.954 27.944C107.506 28.2533 107.143 28.664 106.866 29.176C106.589 29.6773 106.45 30.2427 106.45 30.872ZM120.093 35.16C119.4 35.16 118.776 34.9787 118.221 34.616C117.677 34.2533 117.245 33.8053 116.925 33.272V38.408H115.837V26.664H116.813V28.28C117.144 27.7573 117.587 27.336 118.141 27.016C118.696 26.6853 119.288 26.52 119.917 26.52C120.493 26.52 121.021 26.6427 121.501 26.888C121.981 27.1227 122.397 27.4427 122.749 27.848C123.101 28.2533 123.373 28.7173 123.565 29.24C123.768 29.752 123.869 30.2853 123.869 30.84C123.869 31.6187 123.709 32.3387 123.389 33C123.08 33.6507 122.643 34.1733 122.077 34.568C121.512 34.9627 120.851 35.16 120.093 35.16ZM119.789 34.2C120.248 34.2 120.659 34.1093 121.021 33.928C121.384 33.736 121.693 33.48 121.949 33.16C122.216 32.84 122.419 32.4827 122.557 32.088C122.696 31.6827 122.765 31.2667 122.765 30.84C122.765 30.392 122.685 29.9653 122.525 29.56C122.376 29.1547 122.157 28.7973 121.869 28.488C121.581 28.1787 121.251 27.9333 120.877 27.752C120.504 27.5707 120.099 27.48 119.661 27.48C119.384 27.48 119.096 27.5333 118.797 27.64C118.499 27.7467 118.211 27.9013 117.933 28.104C117.667 28.296 117.443 28.5147 117.261 28.76C117.08 29.0053 116.968 29.2667 116.925 29.544V32.104C117.096 32.4987 117.325 32.856 117.613 33.176C117.901 33.4853 118.232 33.736 118.605 33.928C118.989 34.1093 119.384 34.2 119.789 34.2ZM129.712 35.16C129.115 35.16 128.56 35.048 128.048 34.824C127.536 34.5893 127.094 34.2747 126.72 33.88C126.347 33.4747 126.054 33.0107 125.84 32.488C125.638 31.9653 125.536 31.4053 125.536 30.808C125.536 30.0293 125.712 29.3147 126.064 28.664C126.427 28.0133 126.923 27.496 127.552 27.112C128.182 26.7173 128.896 26.52 129.696 26.52C130.518 26.52 131.232 26.7173 131.84 27.112C132.459 27.5067 132.944 28.0293 133.296 28.68C133.648 29.32 133.824 30.024 133.824 30.792C133.824 30.8773 133.824 30.9627 133.824 31.048C133.824 31.1227 133.819 31.1813 133.808 31.224H126.672C126.726 31.8213 126.891 32.3547 127.168 32.824C127.456 33.2827 127.824 33.6507 128.272 33.928C128.731 34.1947 129.227 34.328 129.76 34.328C130.304 34.328 130.816 34.1893 131.296 33.912C131.787 33.6347 132.128 33.272 132.32 32.824L133.264 33.08C133.094 33.4747 132.832 33.832 132.48 34.152C132.128 34.472 131.712 34.7227 131.232 34.904C130.763 35.0747 130.256 35.16 129.712 35.16ZM126.64 30.44H132.8C132.758 29.832 132.592 29.2987 132.304 28.84C132.027 28.3813 131.659 28.024 131.2 27.768C130.752 27.5013 130.256 27.368 129.712 27.368C129.168 27.368 128.672 27.5013 128.224 27.768C127.776 28.024 127.408 28.3867 127.12 28.856C126.843 29.3147 126.683 29.8427 126.64 30.44ZM142.911 35H141.823V30.344C141.823 29.3627 141.679 28.648 141.391 28.2C141.103 27.7413 140.65 27.512 140.031 27.512C139.604 27.512 139.183 27.6187 138.767 27.832C138.351 28.0347 137.983 28.3173 137.663 28.68C137.354 29.032 137.13 29.4373 136.991 29.896V35H135.903V26.664H136.895V28.552C137.119 28.1467 137.412 27.7947 137.775 27.496C138.138 27.1867 138.548 26.9467 139.007 26.776C139.466 26.6053 139.94 26.52 140.431 26.52C140.89 26.52 141.279 26.6053 141.599 26.776C141.919 26.9467 142.175 27.192 142.367 27.512C142.559 27.8213 142.698 28.2 142.783 28.648C142.868 29.0853 142.911 29.576 142.911 30.12V35ZM154.109 34.6C154.024 34.632 153.891 34.6907 153.709 34.776C153.528 34.8613 153.309 34.936 153.053 35C152.797 35.064 152.52 35.096 152.221 35.096C151.912 35.096 151.619 35.0373 151.341 34.92C151.075 34.8027 150.861 34.6267 150.701 34.392C150.541 34.1467 150.461 33.848 150.461 33.496V27.528H149.309V26.664H150.461V23.848H151.549V26.664H153.469V27.528H151.549V33.192C151.571 33.4907 151.677 33.7147 151.869 33.864C152.072 34.0133 152.301 34.088 152.557 34.088C152.856 34.088 153.128 34.04 153.373 33.944C153.619 33.8373 153.768 33.7627 153.821 33.72L154.109 34.6ZM159.28 35.16C158.683 35.16 158.128 35.048 157.616 34.824C157.115 34.5893 156.677 34.2747 156.304 33.88C155.941 33.4747 155.659 33.016 155.456 32.504C155.253 31.9813 155.152 31.432 155.152 30.856C155.152 30.2587 155.253 29.704 155.456 29.192C155.659 28.6693 155.947 28.2107 156.32 27.816C156.693 27.4107 157.131 27.096 157.632 26.872C158.144 26.6373 158.699 26.52 159.296 26.52C159.893 26.52 160.443 26.6373 160.944 26.872C161.445 27.096 161.883 27.4107 162.256 27.816C162.629 28.2107 162.917 28.6693 163.12 29.192C163.323 29.704 163.424 30.2587 163.424 30.856C163.424 31.432 163.323 31.9813 163.12 32.504C162.917 33.016 162.629 33.4747 162.256 33.88C161.893 34.2747 161.456 34.5893 160.944 34.824C160.443 35.048 159.888 35.16 159.28 35.16ZM156.256 30.872C156.256 31.4907 156.389 32.056 156.656 32.568C156.933 33.0693 157.301 33.4693 157.76 33.768C158.219 34.056 158.725 34.2 159.28 34.2C159.835 34.2 160.341 34.0507 160.8 33.752C161.259 33.4533 161.627 33.048 161.904 32.536C162.181 32.0133 162.32 31.448 162.32 30.84C162.32 30.2213 162.181 29.656 161.904 29.144C161.627 28.632 161.259 28.2267 160.8 27.928C160.341 27.6293 159.835 27.48 159.28 27.48C158.725 27.48 158.219 27.6347 157.76 27.944C157.312 28.2533 156.949 28.664 156.672 29.176C156.395 29.6773 156.256 30.2427 156.256 30.872ZM169.562 30.856C169.562 30.0667 169.722 29.3467 170.042 28.696C170.373 28.0347 170.826 27.5067 171.402 27.112C171.978 26.7173 172.634 26.52 173.37 26.52C174.063 26.52 174.682 26.7067 175.226 27.08C175.781 27.4427 176.213 27.8853 176.522 28.408V23.32H177.61V33.688C177.61 33.8373 177.642 33.9493 177.706 34.024C177.77 34.088 177.866 34.1253 177.994 34.136V35C177.781 35.032 177.615 35.0427 177.498 35.032C177.274 35.0213 177.077 34.9307 176.906 34.76C176.735 34.5893 176.65 34.4027 176.65 34.2V33.384C176.319 33.928 175.871 34.36 175.306 34.68C174.741 35 174.154 35.16 173.546 35.16C172.97 35.16 172.437 35.0427 171.946 34.808C171.466 34.5733 171.045 34.2533 170.682 33.848C170.33 33.4427 170.053 32.984 169.85 32.472C169.658 31.9493 169.562 31.4107 169.562 30.856ZM176.522 32.136V29.56C176.383 29.176 176.159 28.8293 175.85 28.52C175.541 28.2 175.189 27.9493 174.794 27.768C174.41 27.576 174.026 27.48 173.642 27.48C173.194 27.48 172.789 27.576 172.426 27.768C172.063 27.9493 171.749 28.2 171.482 28.52C171.226 28.84 171.029 29.2027 170.89 29.608C170.751 30.0133 170.682 30.4293 170.682 30.856C170.682 31.304 170.757 31.7307 170.906 32.136C171.066 32.5413 171.29 32.904 171.578 33.224C171.866 33.5333 172.197 33.7733 172.57 33.944C172.943 34.1147 173.349 34.2 173.786 34.2C174.063 34.2 174.351 34.1467 174.65 34.04C174.949 33.9333 175.231 33.7893 175.498 33.608C175.775 33.416 176.005 33.192 176.186 32.936C176.367 32.68 176.479 32.4133 176.522 32.136ZM180.475 35V26.664H181.563V35H180.475ZM180.475 24.92V23.32H181.563V24.92H180.475ZM187.095 35.16C186.413 35.16 185.778 35.048 185.191 34.824C184.605 34.6 184.098 34.2587 183.671 33.8L184.119 33.032C184.589 33.4693 185.058 33.7893 185.527 33.992C186.007 34.184 186.514 34.28 187.047 34.28C187.698 34.28 188.226 34.152 188.631 33.896C189.037 33.6293 189.239 33.2507 189.239 32.76C189.239 32.4293 189.138 32.1787 188.935 32.008C188.743 31.8267 188.461 31.6827 188.087 31.576C187.725 31.4587 187.287 31.336 186.775 31.208C186.199 31.048 185.714 30.8827 185.319 30.712C184.935 30.5307 184.642 30.3067 184.439 30.04C184.247 29.7627 184.151 29.4053 184.151 28.968C184.151 28.424 184.285 27.976 184.551 27.624C184.829 27.2613 185.202 26.9893 185.671 26.808C186.151 26.616 186.685 26.52 187.271 26.52C187.911 26.52 188.477 26.6213 188.967 26.824C189.458 27.0267 189.858 27.3093 190.167 27.672L189.639 28.408C189.341 28.0667 188.983 27.816 188.567 27.656C188.162 27.4853 187.709 27.4 187.207 27.4C186.866 27.4 186.541 27.448 186.231 27.544C185.922 27.6293 185.666 27.7787 185.463 27.992C185.271 28.1947 185.175 28.4773 185.175 28.84C185.175 29.1387 185.25 29.3733 185.399 29.544C185.549 29.704 185.773 29.8427 186.071 29.96C186.37 30.0667 186.738 30.184 187.175 30.312C187.805 30.4827 188.354 30.6587 188.823 30.84C189.293 31.0107 189.655 31.2347 189.911 31.512C190.167 31.7893 190.295 32.1787 190.295 32.68C190.295 33.4587 190.002 34.0667 189.415 34.504C188.829 34.9413 188.055 35.16 187.095 35.16ZM196.11 35.16C195.502 35.16 194.942 35.048 194.43 34.824C193.928 34.5893 193.486 34.2693 193.102 33.864C192.728 33.4587 192.435 32.9947 192.222 32.472C192.019 31.9493 191.918 31.3947 191.918 30.808C191.918 30.0187 192.094 29.2987 192.446 28.648C192.798 27.9973 193.288 27.48 193.918 27.096C194.547 26.712 195.272 26.52 196.094 26.52C196.872 26.52 197.56 26.7013 198.158 27.064C198.755 27.416 199.198 27.896 199.486 28.504L198.43 28.84C198.195 28.4133 197.864 28.0827 197.438 27.848C197.022 27.6027 196.558 27.48 196.046 27.48C195.491 27.48 194.984 27.624 194.526 27.912C194.067 28.2 193.699 28.5947 193.422 29.096C193.155 29.5973 193.022 30.168 193.022 30.808C193.022 31.4373 193.16 32.008 193.438 32.52C193.715 33.032 194.083 33.4427 194.542 33.752C195 34.0507 195.507 34.2 196.062 34.2C196.424 34.2 196.771 34.136 197.102 34.008C197.443 33.88 197.736 33.7093 197.982 33.496C198.238 33.272 198.408 33.032 198.494 32.776L199.566 33.096C199.416 33.4907 199.166 33.848 198.814 34.168C198.472 34.4773 198.067 34.7227 197.598 34.904C197.139 35.0747 196.643 35.16 196.11 35.16ZM201.595 31.56V26.664H202.683V31.368C202.683 32.3173 202.843 33.0267 203.163 33.496C203.494 33.9653 203.979 34.2 204.619 34.2C205.046 34.2 205.456 34.1093 205.851 33.928C206.256 33.736 206.614 33.4693 206.923 33.128C207.232 32.776 207.467 32.3707 207.627 31.912V26.664H208.715V33.688C208.715 33.8373 208.747 33.9493 208.811 34.024C208.875 34.088 208.971 34.1253 209.099 34.136V35C208.971 35.0107 208.87 35.016 208.795 35.016C208.72 35.0267 208.651 35.032 208.587 35.032C208.374 35.0107 208.187 34.9253 208.027 34.776C207.878 34.6267 207.798 34.4453 207.787 34.232L207.755 33.112C207.392 33.752 206.896 34.2533 206.267 34.616C205.648 34.9787 204.976 35.16 204.251 35.16C203.376 35.16 202.715 34.856 202.267 34.248C201.819 33.64 201.595 32.744 201.595 31.56ZM214.311 35.16C213.628 35.16 212.994 35.048 212.407 34.824C211.82 34.6 211.314 34.2587 210.887 33.8L211.335 33.032C211.804 33.4693 212.274 33.7893 212.743 33.992C213.223 34.184 213.73 34.28 214.263 34.28C214.914 34.28 215.442 34.152 215.847 33.896C216.252 33.6293 216.455 33.2507 216.455 32.76C216.455 32.4293 216.354 32.1787 216.151 32.008C215.959 31.8267 215.676 31.6827 215.303 31.576C214.94 31.4587 214.503 31.336 213.991 31.208C213.415 31.048 212.93 30.8827 212.535 30.712C212.151 30.5307 211.858 30.3067 211.655 30.04C211.463 29.7627 211.367 29.4053 211.367 28.968C211.367 28.424 211.5 27.976 211.767 27.624C212.044 27.2613 212.418 26.9893 212.887 26.808C213.367 26.616 213.9 26.52 214.487 26.52C215.127 26.52 215.692 26.6213 216.183 26.824C216.674 27.0267 217.074 27.3093 217.383 27.672L216.855 28.408C216.556 28.0667 216.199 27.816 215.783 27.656C215.378 27.4853 214.924 27.4 214.423 27.4C214.082 27.4 213.756 27.448 213.447 27.544C213.138 27.6293 212.882 27.7787 212.679 27.992C212.487 28.1947 212.391 28.4773 212.391 28.84C212.391 29.1387 212.466 29.3733 212.615 29.544C212.764 29.704 212.988 29.8427 213.287 29.96C213.586 30.0667 213.954 30.184 214.391 30.312C215.02 30.4827 215.57 30.6587 216.039 30.84C216.508 31.0107 216.871 31.2347 217.127 31.512C217.383 31.7893 217.511 32.1787 217.511 32.68C217.511 33.4587 217.218 34.0667 216.631 34.504C216.044 34.9413 215.271 35.16 214.311 35.16ZM222.445 35.16C221.763 35.16 221.128 35.048 220.541 34.824C219.955 34.6 219.448 34.2587 219.021 33.8L219.469 33.032C219.939 33.4693 220.408 33.7893 220.877 33.992C221.357 34.184 221.864 34.28 222.397 34.28C223.048 34.28 223.576 34.152 223.981 33.896C224.387 33.6293 224.589 33.2507 224.589 32.76C224.589 32.4293 224.488 32.1787 224.285 32.008C224.093 31.8267 223.811 31.6827 223.437 31.576C223.075 31.4587 222.637 31.336 222.125 31.208C221.549 31.048 221.064 30.8827 220.669 30.712C220.285 30.5307 219.992 30.3067 219.789 30.04C219.597 29.7627 219.501 29.4053 219.501 28.968C219.501 28.424 219.635 27.976 219.901 27.624C220.179 27.2613 220.552 26.9893 221.021 26.808C221.501 26.616 222.035 26.52 222.621 26.52C223.261 26.52 223.827 26.6213 224.317 26.824C224.808 27.0267 225.208 27.3093 225.517 27.672L224.989 28.408C224.691 28.0667 224.333 27.816 223.917 27.656C223.512 27.4853 223.059 27.4 222.557 27.4C222.216 27.4 221.891 27.448 221.581 27.544C221.272 27.6293 221.016 27.7787 220.813 27.992C220.621 28.1947 220.525 28.4773 220.525 28.84C220.525 29.1387 220.6 29.3733 220.749 29.544C220.899 29.704 221.123 29.8427 221.421 29.96C221.72 30.0667 222.088 30.184 222.525 30.312C223.155 30.4827 223.704 30.6587 224.173 30.84C224.643 31.0107 225.005 31.2347 225.261 31.512C225.517 31.7893 225.645 32.1787 225.645 32.68C225.645 33.4587 225.352 34.0667 224.765 34.504C224.179 34.9413 223.405 35.16 222.445 35.16ZM227.844 35V26.664H228.932V35H227.844ZM227.844 24.92V23.32H228.932V24.92H227.844ZM238.736 35H237.648V30.344C237.648 29.3627 237.504 28.648 237.216 28.2C236.928 27.7413 236.475 27.512 235.856 27.512C235.429 27.512 235.008 27.6187 234.592 27.832C234.176 28.0347 233.808 28.3173 233.488 28.68C233.179 29.032 232.955 29.4373 232.816 29.896V35H231.728V26.664H232.72V28.552C232.944 28.1467 233.237 27.7947 233.6 27.496C233.963 27.1867 234.373 26.9467 234.832 26.776C235.291 26.6053 235.765 26.52 236.256 26.52C236.715 26.52 237.104 26.6053 237.424 26.776C237.744 26.9467 238 27.192 238.192 27.512C238.384 27.8213 238.523 28.2 238.608 28.648C238.693 29.0853 238.736 29.576 238.736 30.12V35ZM244.8 35.112C244.235 35.112 243.712 34.9947 243.232 34.76C242.752 34.5253 242.336 34.2107 241.984 33.816C241.643 33.4107 241.376 32.952 241.184 32.44C240.992 31.928 240.896 31.4 240.896 30.856C240.896 30.2693 240.987 29.72 241.168 29.208C241.36 28.6853 241.627 28.2213 241.968 27.816C242.32 27.4107 242.731 27.096 243.2 26.872C243.67 26.6373 244.192 26.52 244.768 26.52C245.483 26.52 246.102 26.7013 246.624 27.064C247.158 27.4267 247.606 27.8747 247.968 28.408V26.664H248.944V35.032C248.944 35.8 248.758 36.4453 248.384 36.968C248.022 37.5013 247.526 37.9013 246.896 38.168C246.278 38.4347 245.6 38.568 244.864 38.568C243.915 38.568 243.147 38.3973 242.56 38.056C241.974 37.7147 241.494 37.256 241.12 36.68L241.792 36.152C242.123 36.6747 242.56 37.064 243.104 37.32C243.659 37.576 244.246 37.704 244.864 37.704C245.408 37.704 245.904 37.6027 246.352 37.4C246.811 37.208 247.174 36.9147 247.44 36.52C247.718 36.1253 247.856 35.6293 247.856 35.032V33.384C247.536 33.9067 247.099 34.328 246.544 34.648C245.99 34.9573 245.408 35.112 244.8 35.112ZM245.104 34.2C245.435 34.2 245.75 34.1413 246.048 34.024C246.358 33.9067 246.64 33.752 246.896 33.56C247.152 33.3573 247.366 33.1333 247.536 32.888C247.707 32.6427 247.814 32.392 247.856 32.136V29.56C247.696 29.1547 247.467 28.7973 247.168 28.488C246.87 28.168 246.528 27.9227 246.144 27.752C245.771 27.5707 245.382 27.48 244.976 27.48C244.507 27.48 244.086 27.5813 243.712 27.784C243.35 27.976 243.04 28.2373 242.784 28.568C242.539 28.888 242.347 29.2507 242.208 29.656C242.07 30.0613 242 30.4667 242 30.872C242 31.32 242.08 31.7467 242.24 32.152C242.4 32.5467 242.619 32.904 242.896 33.224C243.184 33.5333 243.515 33.7733 243.888 33.944C244.272 34.1147 244.678 34.2 245.104 34.2ZM263.793 35H261.649V30.296C261.649 29.624 261.532 29.1333 261.297 28.824C261.062 28.5147 260.737 28.36 260.321 28.36C260.033 28.36 259.74 28.4347 259.441 28.584C259.153 28.7333 258.892 28.9413 258.657 29.208C258.422 29.464 258.252 29.7627 258.145 30.104V35H256.001V26.616H257.937V28.168C258.15 27.8053 258.422 27.5013 258.753 27.256C259.084 27 259.462 26.808 259.889 26.68C260.326 26.5413 260.785 26.472 261.265 26.472C261.788 26.472 262.214 26.568 262.545 26.76C262.886 26.9413 263.142 27.192 263.313 27.512C263.494 27.8213 263.617 28.1733 263.681 28.568C263.756 28.9627 263.793 29.3627 263.793 29.768V35ZM269.945 35.16C269.273 35.16 268.665 35.048 268.121 34.824C267.577 34.5893 267.113 34.2747 266.729 33.88C266.345 33.4747 266.047 33.016 265.833 32.504C265.631 31.9813 265.529 31.432 265.529 30.856C265.529 30.056 265.705 29.3253 266.057 28.664C266.42 28.0027 266.932 27.4747 267.593 27.08C268.265 26.6747 269.055 26.472 269.961 26.472C270.879 26.472 271.663 26.6747 272.313 27.08C272.964 27.4747 273.46 28.0027 273.801 28.664C274.153 29.3147 274.329 30.0187 274.329 30.776C274.329 30.904 274.324 31.0373 274.313 31.176C274.303 31.304 274.292 31.4107 274.281 31.496H267.801C267.844 31.9227 267.967 32.296 268.169 32.616C268.383 32.936 268.649 33.1813 268.969 33.352C269.3 33.512 269.652 33.592 270.025 33.592C270.452 33.592 270.852 33.4907 271.225 33.288C271.609 33.0747 271.871 32.7973 272.009 32.456L273.849 32.968C273.647 33.3947 273.353 33.7733 272.969 34.104C272.596 34.4347 272.153 34.696 271.641 34.888C271.129 35.0693 270.564 35.16 269.945 35.16ZM267.753 30.136H272.137C272.095 29.7093 271.972 29.3413 271.769 29.032C271.577 28.712 271.321 28.4667 271.001 28.296C270.681 28.1147 270.324 28.024 269.929 28.024C269.545 28.024 269.193 28.1147 268.873 28.296C268.564 28.4667 268.308 28.712 268.105 29.032C267.913 29.3413 267.796 29.7093 267.753 30.136ZM286.201 26.616H288.233L284.729 35H282.937L281.529 31.4L280.153 35H278.345L274.857 26.616H276.873L279.369 32.952L280.345 30.216L278.889 26.632H280.665L281.529 29.192L282.409 26.632H284.185L282.729 30.216L283.721 32.952L286.201 26.616ZM298.438 35.16C297.787 35.16 297.211 35.016 296.71 34.728C296.219 34.4293 295.835 34.0293 295.558 33.528V38.408H293.414V26.616H295.286V28.056C295.606 27.5653 296.011 27.1813 296.502 26.904C296.992 26.616 297.552 26.472 298.182 26.472C298.747 26.472 299.264 26.584 299.734 26.808C300.214 27.032 300.63 27.3467 300.982 27.752C301.334 28.1467 301.606 28.6053 301.798 29.128C302 29.64 302.102 30.1947 302.102 30.792C302.102 31.6027 301.942 32.3387 301.622 33C301.312 33.6613 300.88 34.1893 300.326 34.584C299.782 34.968 299.152 35.16 298.438 35.16ZM297.718 33.336C298.048 33.336 298.347 33.2667 298.614 33.128C298.88 32.9893 299.11 32.8027 299.302 32.568C299.504 32.3227 299.654 32.0507 299.75 31.752C299.856 31.4427 299.91 31.1227 299.91 30.792C299.91 30.44 299.851 30.1147 299.734 29.816C299.627 29.5173 299.467 29.256 299.254 29.032C299.04 28.7973 298.79 28.616 298.502 28.488C298.224 28.36 297.92 28.296 297.59 28.296C297.387 28.296 297.179 28.3333 296.966 28.408C296.763 28.472 296.566 28.568 296.374 28.696C296.182 28.824 296.011 28.9733 295.862 29.144C295.723 29.3147 295.622 29.5013 295.558 29.704V31.672C295.686 31.9813 295.856 32.264 296.07 32.52C296.294 32.776 296.55 32.9787 296.838 33.128C297.126 33.2667 297.419 33.336 297.718 33.336ZM308.946 28.472C308.295 28.472 307.714 28.6 307.202 28.856C306.69 29.1013 306.322 29.4587 306.098 29.928V35H303.954V26.616H305.922V28.408C306.221 27.832 306.599 27.3787 307.058 27.048C307.517 26.7173 308.002 26.536 308.514 26.504C308.631 26.504 308.722 26.504 308.786 26.504C308.85 26.504 308.903 26.5093 308.946 26.52V28.472ZM314.304 35.16C313.622 35.16 313.008 35.048 312.464 34.824C311.92 34.5893 311.456 34.2693 311.072 33.864C310.699 33.4587 310.411 32.9947 310.208 32.472C310.006 31.9493 309.904 31.4 309.904 30.824C309.904 30.2373 310.006 29.6827 310.208 29.16C310.411 28.6373 310.699 28.1733 311.072 27.768C311.456 27.3627 311.92 27.048 312.464 26.824C313.008 26.5893 313.622 26.472 314.304 26.472C314.987 26.472 315.595 26.5893 316.128 26.824C316.672 27.048 317.136 27.3627 317.52 27.768C317.904 28.1733 318.192 28.6373 318.384 29.16C318.587 29.6827 318.688 30.2373 318.688 30.824C318.688 31.4 318.587 31.9493 318.384 32.472C318.192 32.9947 317.904 33.4587 317.52 33.864C317.147 34.2693 316.688 34.5893 316.144 34.824C315.6 35.048 314.987 35.16 314.304 35.16ZM312.112 30.824C312.112 31.3147 312.208 31.752 312.4 32.136C312.592 32.5093 312.854 32.8027 313.184 33.016C313.515 33.2293 313.888 33.336 314.304 33.336C314.71 33.336 315.078 33.2293 315.408 33.016C315.739 32.792 316 32.4933 316.192 32.12C316.395 31.736 316.496 31.2987 316.496 30.808C316.496 30.328 316.395 29.896 316.192 29.512C316 29.128 315.739 28.8293 315.408 28.616C315.078 28.4027 314.71 28.296 314.304 28.296C313.888 28.296 313.515 28.408 313.184 28.632C312.854 28.8453 312.592 29.144 312.4 29.528C312.208 29.9013 312.112 30.3333 312.112 30.824ZM319.847 38.136C319.453 38.136 319.074 38.072 318.711 37.944C318.349 37.8267 318.018 37.64 317.719 37.384L318.647 35.928C318.765 36.056 318.909 36.1467 319.079 36.2C319.25 36.2533 319.421 36.28 319.591 36.28C319.783 36.28 319.954 36.232 320.103 36.136C320.263 36.0507 320.386 35.928 320.471 35.768C320.567 35.608 320.615 35.4267 320.615 35.224V26.616H322.759V35.064C322.759 35.6613 322.626 36.1947 322.359 36.664C322.103 37.1333 321.757 37.496 321.319 37.752C320.893 38.008 320.402 38.136 319.847 38.136ZM320.615 25.448V23.32H322.759V25.448H320.615ZM328.995 35.16C328.323 35.16 327.715 35.048 327.171 34.824C326.627 34.5893 326.163 34.2747 325.779 33.88C325.395 33.4747 325.097 33.016 324.883 32.504C324.681 31.9813 324.579 31.432 324.579 30.856C324.579 30.056 324.755 29.3253 325.107 28.664C325.47 28.0027 325.982 27.4747 326.643 27.08C327.315 26.6747 328.105 26.472 329.011 26.472C329.929 26.472 330.713 26.6747 331.363 27.08C332.014 27.4747 332.51 28.0027 332.851 28.664C333.203 29.3147 333.379 30.0187 333.379 30.776C333.379 30.904 333.374 31.0373 333.363 31.176C333.353 31.304 333.342 31.4107 333.331 31.496H326.851C326.894 31.9227 327.017 32.296 327.219 32.616C327.433 32.936 327.699 33.1813 328.019 33.352C328.35 33.512 328.702 33.592 329.075 33.592C329.502 33.592 329.902 33.4907 330.275 33.288C330.659 33.0747 330.921 32.7973 331.059 32.456L332.899 32.968C332.697 33.3947 332.403 33.7733 332.019 34.104C331.646 34.4347 331.203 34.696 330.691 34.888C330.179 35.0693 329.614 35.16 328.995 35.16ZM326.803 30.136H331.187C331.145 29.7093 331.022 29.3413 330.819 29.032C330.627 28.712 330.371 28.4667 330.051 28.296C329.731 28.1147 329.374 28.024 328.979 28.024C328.595 28.024 328.243 28.1147 327.923 28.296C327.614 28.4667 327.358 28.712 327.155 29.032C326.963 29.3413 326.846 29.7093 326.803 30.136ZM338.989 35.16C338.307 35.16 337.693 35.048 337.149 34.824C336.605 34.5893 336.141 34.2693 335.757 33.864C335.373 33.448 335.075 32.9787 334.861 32.456C334.659 31.9333 334.557 31.384 334.557 30.808C334.557 30.0187 334.733 29.2987 335.085 28.648C335.448 27.9867 335.96 27.4587 336.621 27.064C337.283 26.6693 338.067 26.472 338.973 26.472C339.88 26.472 340.659 26.6693 341.309 27.064C341.96 27.4587 342.445 27.976 342.765 28.616L340.669 29.256C340.488 28.9467 340.248 28.712 339.949 28.552C339.651 28.3813 339.32 28.296 338.957 28.296C338.552 28.296 338.179 28.4027 337.837 28.616C337.507 28.8187 337.245 29.112 337.053 29.496C336.861 29.8693 336.765 30.3067 336.765 30.808C336.765 31.2987 336.861 31.736 337.053 32.12C337.256 32.4933 337.523 32.792 337.853 33.016C338.184 33.2293 338.552 33.336 338.957 33.336C339.213 33.336 339.453 33.2933 339.677 33.208C339.912 33.1227 340.12 33.0053 340.301 32.856C340.483 32.7067 340.616 32.536 340.701 32.344L342.797 32.984C342.605 33.4 342.323 33.7733 341.949 34.104C341.587 34.4347 341.155 34.696 340.653 34.888C340.163 35.0693 339.608 35.16 338.989 35.16ZM349.541 34.568C349.359 34.6427 349.141 34.728 348.885 34.824C348.629 34.92 348.351 34.9947 348.053 35.048C347.765 35.112 347.471 35.144 347.173 35.144C346.778 35.144 346.415 35.0747 346.085 34.936C345.754 34.7973 345.487 34.5787 345.285 34.28C345.093 33.9707 344.997 33.5707 344.997 33.08V28.264H343.893V26.616H344.997V23.896H347.141V26.616H348.901V28.264H347.141V32.36C347.151 32.648 347.231 32.856 347.381 32.984C347.53 33.112 347.717 33.176 347.941 33.176C348.165 33.176 348.383 33.1387 348.597 33.064C348.81 32.9893 348.981 32.9253 349.109 32.872L349.541 34.568ZM354.145 35.16C353.431 35.16 352.748 35.0427 352.097 34.808C351.447 34.5733 350.887 34.2267 350.417 33.768L351.185 32.376C351.687 32.7813 352.177 33.08 352.657 33.272C353.148 33.464 353.617 33.56 354.065 33.56C354.481 33.56 354.812 33.4853 355.057 33.336C355.313 33.1867 355.441 32.9627 355.441 32.664C355.441 32.4613 355.372 32.3067 355.233 32.2C355.095 32.0827 354.892 31.9813 354.625 31.896C354.369 31.8107 354.055 31.7147 353.681 31.608C353.063 31.4053 352.545 31.208 352.129 31.016C351.713 30.824 351.399 30.584 351.185 30.296C350.983 29.9973 350.881 29.6187 350.881 29.16C350.881 28.6053 351.02 28.1307 351.297 27.736C351.585 27.3307 351.98 27.016 352.481 26.792C352.993 26.568 353.591 26.456 354.273 26.456C354.871 26.456 355.436 26.552 355.969 26.744C356.503 26.9253 356.988 27.224 357.425 27.64L356.561 29C356.135 28.6693 355.729 28.4293 355.345 28.28C354.961 28.12 354.572 28.04 354.177 28.04C353.953 28.04 353.74 28.0667 353.537 28.12C353.345 28.1733 353.185 28.264 353.057 28.392C352.94 28.5093 352.881 28.68 352.881 28.904C352.881 29.1067 352.935 29.2667 353.041 29.384C353.159 29.4907 353.329 29.5867 353.553 29.672C353.788 29.7573 354.071 29.8533 354.401 29.96C355.073 30.152 355.639 30.3493 356.097 30.552C356.567 30.7547 356.919 31.0053 357.153 31.304C357.388 31.592 357.505 31.992 357.505 32.504C357.505 33.336 357.201 33.9867 356.593 34.456C355.985 34.9253 355.169 35.16 354.145 35.16ZM359.764 36.296L360.036 34.952H359.668V33.432H360.724V34.952L360.324 36.296H359.764ZM371.707 35.16C371.025 35.16 370.411 35.048 369.867 34.824C369.323 34.5893 368.859 34.2693 368.475 33.864C368.102 33.4587 367.814 32.9947 367.611 32.472C367.409 31.9493 367.307 31.4 367.307 30.824C367.307 30.2373 367.409 29.6827 367.611 29.16C367.814 28.6373 368.102 28.1733 368.475 27.768C368.859 27.3627 369.323 27.048 369.867 26.824C370.411 26.5893 371.025 26.472 371.707 26.472C372.39 26.472 372.998 26.5893 373.531 26.824C374.075 27.048 374.539 27.3627 374.923 27.768C375.307 28.1733 375.595 28.6373 375.787 29.16C375.99 29.6827 376.091 30.2373 376.091 30.824C376.091 31.4 375.99 31.9493 375.787 32.472C375.595 32.9947 375.307 33.4587 374.923 33.864C374.55 34.2693 374.091 34.5893 373.547 34.824C373.003 35.048 372.39 35.16 371.707 35.16ZM369.515 30.824C369.515 31.3147 369.611 31.752 369.803 32.136C369.995 32.5093 370.257 32.8027 370.587 33.016C370.918 33.2293 371.291 33.336 371.707 33.336C372.113 33.336 372.481 33.2293 372.811 33.016C373.142 32.792 373.403 32.4933 373.595 32.12C373.798 31.736 373.899 31.2987 373.899 30.808C373.899 30.328 373.798 29.896 373.595 29.512C373.403 29.128 373.142 28.8293 372.811 28.616C372.481 28.4027 372.113 28.296 371.707 28.296C371.291 28.296 370.918 28.408 370.587 28.632C370.257 28.8453 369.995 29.144 369.803 29.528C369.611 29.9013 369.515 30.3333 369.515 30.824ZM382.962 35.16C382.312 35.16 381.736 35.016 381.234 34.728C380.744 34.4293 380.36 34.0293 380.082 33.528V38.408H377.938V26.616H379.81V28.056C380.13 27.5653 380.536 27.1813 381.026 26.904C381.517 26.616 382.077 26.472 382.706 26.472C383.272 26.472 383.789 26.584 384.258 26.808C384.738 27.032 385.154 27.3467 385.506 27.752C385.858 28.1467 386.13 28.6053 386.322 29.128C386.525 29.64 386.626 30.1947 386.626 30.792C386.626 31.6027 386.466 32.3387 386.146 33C385.837 33.6613 385.405 34.1893 384.85 34.584C384.306 34.968 383.677 35.16 382.962 35.16ZM382.242 33.336C382.573 33.336 382.872 33.2667 383.138 33.128C383.405 32.9893 383.634 32.8027 383.826 32.568C384.029 32.3227 384.178 32.0507 384.274 31.752C384.381 31.4427 384.434 31.1227 384.434 30.792C384.434 30.44 384.376 30.1147 384.258 29.816C384.152 29.5173 383.992 29.256 383.778 29.032C383.565 28.7973 383.314 28.616 383.026 28.488C382.749 28.36 382.445 28.296 382.114 28.296C381.912 28.296 381.704 28.3333 381.49 28.408C381.288 28.472 381.09 28.568 380.898 28.696C380.706 28.824 380.536 28.9733 380.386 29.144C380.248 29.3147 380.146 29.5013 380.082 29.704V31.672C380.21 31.9813 380.381 32.264 380.594 32.52C380.818 32.776 381.074 32.9787 381.362 33.128C381.65 33.2667 381.944 33.336 382.242 33.336ZM393.503 35.16C392.852 35.16 392.276 35.016 391.775 34.728C391.284 34.4293 390.9 34.0293 390.623 33.528V38.408H388.479V26.616H390.351V28.056C390.671 27.5653 391.076 27.1813 391.567 26.904C392.058 26.616 392.618 26.472 393.247 26.472C393.812 26.472 394.33 26.584 394.799 26.808C395.279 27.032 395.695 27.3467 396.047 27.752C396.399 28.1467 396.671 28.6053 396.863 29.128C397.066 29.64 397.167 30.1947 397.167 30.792C397.167 31.6027 397.007 32.3387 396.687 33C396.378 33.6613 395.946 34.1893 395.391 34.584C394.847 34.968 394.218 35.16 393.503 35.16ZM392.783 33.336C393.114 33.336 393.412 33.2667 393.679 33.128C393.946 32.9893 394.175 32.8027 394.367 32.568C394.57 32.3227 394.719 32.0507 394.815 31.752C394.922 31.4427 394.975 31.1227 394.975 30.792C394.975 30.44 394.916 30.1147 394.799 29.816C394.692 29.5173 394.532 29.256 394.319 29.032C394.106 28.7973 393.855 28.616 393.567 28.488C393.29 28.36 392.986 28.296 392.655 28.296C392.452 28.296 392.244 28.3333 392.031 28.408C391.828 28.472 391.631 28.568 391.439 28.696C391.247 28.824 391.076 28.9733 390.927 29.144C390.788 29.3147 390.687 29.5013 390.623 29.704V31.672C390.751 31.9813 390.922 32.264 391.135 32.52C391.359 32.776 391.615 32.9787 391.903 33.128C392.191 33.2667 392.484 33.336 392.783 33.336ZM402.892 35.16C402.209 35.16 401.596 35.048 401.052 34.824C400.508 34.5893 400.044 34.2693 399.66 33.864C399.286 33.4587 398.998 32.9947 398.796 32.472C398.593 31.9493 398.492 31.4 398.492 30.824C398.492 30.2373 398.593 29.6827 398.796 29.16C398.998 28.6373 399.286 28.1733 399.66 27.768C400.044 27.3627 400.508 27.048 401.052 26.824C401.596 26.5893 402.209 26.472 402.892 26.472C403.574 26.472 404.182 26.5893 404.716 26.824C405.26 27.048 405.724 27.3627 406.108 27.768C406.492 28.1733 406.78 28.6373 406.972 29.16C407.174 29.6827 407.276 30.2373 407.276 30.824C407.276 31.4 407.174 31.9493 406.972 32.472C406.78 32.9947 406.492 33.4587 406.108 33.864C405.734 34.2693 405.276 34.5893 404.732 34.824C404.188 35.048 403.574 35.16 402.892 35.16ZM400.7 30.824C400.7 31.3147 400.796 31.752 400.988 32.136C401.18 32.5093 401.441 32.8027 401.772 33.016C402.102 33.2293 402.476 33.336 402.892 33.336C403.297 33.336 403.665 33.2293 403.996 33.016C404.326 32.792 404.588 32.4933 404.78 32.12C404.982 31.736 405.084 31.2987 405.084 30.808C405.084 30.328 404.982 29.896 404.78 29.512C404.588 29.128 404.326 28.8293 403.996 28.616C403.665 28.4027 403.297 28.296 402.892 28.296C402.476 28.296 402.102 28.408 401.772 28.632C401.441 28.8453 401.18 29.144 400.988 29.528C400.796 29.9013 400.7 30.3333 400.7 30.824ZM414.115 28.472C413.464 28.472 412.883 28.6 412.371 28.856C411.859 29.1013 411.491 29.4587 411.267 29.928V35H409.123V26.616H411.091V28.408C411.39 27.832 411.768 27.3787 412.227 27.048C412.686 26.7173 413.171 26.536 413.683 26.504C413.8 26.504 413.891 26.504 413.955 26.504C414.019 26.504 414.072 26.5093 414.115 26.52V28.472ZM420.734 34.568C420.553 34.6427 420.334 34.728 420.078 34.824C419.822 34.92 419.545 34.9947 419.246 35.048C418.958 35.112 418.665 35.144 418.366 35.144C417.972 35.144 417.609 35.0747 417.278 34.936C416.948 34.7973 416.681 34.5787 416.478 34.28C416.286 33.9707 416.19 33.5707 416.19 33.08V28.264H415.086V26.616H416.19V23.896H418.334V26.616H420.094V28.264H418.334V32.36C418.345 32.648 418.425 32.856 418.574 32.984C418.724 33.112 418.91 33.176 419.134 33.176C419.358 33.176 419.577 33.1387 419.79 33.064C420.004 32.9893 420.174 32.9253 420.302 32.872L420.734 34.568ZM422.171 31.864V26.616H424.315V31.4C424.315 32.04 424.432 32.5253 424.667 32.856C424.902 33.176 425.248 33.336 425.707 33.336C425.984 33.336 426.256 33.2827 426.523 33.176C426.8 33.0587 427.051 32.888 427.275 32.664C427.51 32.44 427.707 32.1573 427.867 31.816V26.616H430.011V32.6C430.011 32.824 430.048 32.984 430.123 33.08C430.208 33.176 430.342 33.2347 430.523 33.256V35C430.31 35.032 430.128 35.0533 429.979 35.064C429.84 35.0853 429.712 35.096 429.595 35.096C429.211 35.096 428.896 35.0107 428.651 34.84C428.416 34.6587 428.278 34.4133 428.235 34.104L428.187 33.432C427.814 33.9973 427.334 34.4293 426.747 34.728C426.16 35.016 425.515 35.16 424.811 35.16C423.947 35.16 423.291 34.8827 422.843 34.328C422.395 33.7627 422.171 32.9413 422.171 31.864ZM440.334 35H438.19V30.296C438.19 29.624 438.072 29.1333 437.838 28.824C437.603 28.5147 437.278 28.36 436.862 28.36C436.574 28.36 436.28 28.4347 435.982 28.584C435.694 28.7333 435.432 28.9413 435.198 29.208C434.963 29.464 434.792 29.7627 434.686 30.104V35H432.542V26.616H434.478V28.168C434.691 27.8053 434.963 27.5013 435.294 27.256C435.624 27 436.003 26.808 436.43 26.68C436.867 26.5413 437.326 26.472 437.806 26.472C438.328 26.472 438.755 26.568 439.086 26.76C439.427 26.9413 439.683 27.192 439.854 27.512C440.035 27.8213 440.158 28.1733 440.222 28.568C440.296 28.9627 440.334 29.3627 440.334 29.768V35ZM442.598 35V26.616H444.742V35H442.598ZM442.598 25.448V23.32H444.742V25.448H442.598ZM452.1 34.568C451.919 34.6427 451.7 34.728 451.444 34.824C451.188 34.92 450.911 34.9947 450.612 35.048C450.324 35.112 450.031 35.144 449.732 35.144C449.337 35.144 448.975 35.0747 448.644 34.936C448.313 34.7973 448.047 34.5787 447.844 34.28C447.652 33.9707 447.556 33.5707 447.556 33.08V28.264H446.452V26.616H447.556V23.896H449.7V26.616H451.46V28.264H449.7V32.36C449.711 32.648 449.791 32.856 449.94 32.984C450.089 33.112 450.276 33.176 450.5 33.176C450.724 33.176 450.943 33.1387 451.156 33.064C451.369 32.9893 451.54 32.9253 451.668 32.872L452.1 34.568ZM453.617 35V26.616H455.761V35H453.617ZM453.617 25.448V23.32H455.761V25.448H453.617ZM461.983 35.16C461.311 35.16 460.703 35.048 460.159 34.824C459.615 34.5893 459.151 34.2747 458.767 33.88C458.383 33.4747 458.084 33.016 457.871 32.504C457.668 31.9813 457.567 31.432 457.567 30.856C457.567 30.056 457.743 29.3253 458.095 28.664C458.457 28.0027 458.969 27.4747 459.631 27.08C460.303 26.6747 461.092 26.472 461.999 26.472C462.916 26.472 463.7 26.6747 464.351 27.08C465.001 27.4747 465.497 28.0027 465.839 28.664C466.191 29.3147 466.367 30.0187 466.367 30.776C466.367 30.904 466.361 31.0373 466.351 31.176C466.34 31.304 466.329 31.4107 466.319 31.496H459.839C459.881 31.9227 460.004 32.296 460.207 32.616C460.42 32.936 460.687 33.1813 461.007 33.352C461.337 33.512 461.689 33.592 462.063 33.592C462.489 33.592 462.889 33.4907 463.263 33.288C463.647 33.0747 463.908 32.7973 464.047 32.456L465.887 32.968C465.684 33.3947 465.391 33.7733 465.007 34.104C464.633 34.4347 464.191 34.696 463.679 34.888C463.167 35.0693 462.601 35.16 461.983 35.16ZM459.791 30.136H464.175C464.132 29.7093 464.009 29.3413 463.807 29.032C463.615 28.712 463.359 28.4667 463.039 28.296C462.719 28.1147 462.361 28.024 461.967 28.024C461.583 28.024 461.231 28.1147 460.911 28.296C460.601 28.4667 460.345 28.712 460.143 29.032C459.951 29.3413 459.833 29.7093 459.791 30.136ZM471.161 35.16C470.446 35.16 469.764 35.0427 469.113 34.808C468.462 34.5733 467.902 34.2267 467.433 33.768L468.201 32.376C468.702 32.7813 469.193 33.08 469.673 33.272C470.164 33.464 470.633 33.56 471.081 33.56C471.497 33.56 471.828 33.4853 472.073 33.336C472.329 33.1867 472.457 32.9627 472.457 32.664C472.457 32.4613 472.388 32.3067 472.249 32.2C472.11 32.0827 471.908 31.9813 471.641 31.896C471.385 31.8107 471.07 31.7147 470.697 31.608C470.078 31.4053 469.561 31.208 469.145 31.016C468.729 30.824 468.414 30.584 468.201 30.296C467.998 29.9973 467.897 29.6187 467.897 29.16C467.897 28.6053 468.036 28.1307 468.313 27.736C468.601 27.3307 468.996 27.016 469.497 26.792C470.009 26.568 470.606 26.456 471.289 26.456C471.886 26.456 472.452 26.552 472.985 26.744C473.518 26.9253 474.004 27.224 474.441 27.64L473.577 29C473.15 28.6693 472.745 28.4293 472.361 28.28C471.977 28.12 471.588 28.04 471.193 28.04C470.969 28.04 470.756 28.0667 470.553 28.12C470.361 28.1733 470.201 28.264 470.073 28.392C469.956 28.5093 469.897 28.68 469.897 28.904C469.897 29.1067 469.95 29.2667 470.057 29.384C470.174 29.4907 470.345 29.5867 470.569 29.672C470.804 29.7573 471.086 29.8533 471.417 29.96C472.089 30.152 472.654 30.3493 473.113 30.552C473.582 30.7547 473.934 31.0053 474.169 31.304C474.404 31.592 474.521 31.992 474.521 32.504C474.521 33.336 474.217 33.9867 473.609 34.456C473.001 34.9253 472.185 35.16 471.161 35.16ZM480.623 35V26.616H482.767V35H480.623ZM480.623 25.448V23.32H482.767V25.448H480.623ZM492.893 35H490.749V30.296C490.749 29.624 490.632 29.1333 490.397 28.824C490.162 28.5147 489.837 28.36 489.421 28.36C489.133 28.36 488.84 28.4347 488.541 28.584C488.253 28.7333 487.992 28.9413 487.757 29.208C487.522 29.464 487.352 29.7627 487.245 30.104V35H485.101V26.616H487.037V28.168C487.25 27.8053 487.522 27.5013 487.853 27.256C488.184 27 488.562 26.808 488.989 26.68C489.426 26.5413 489.885 26.472 490.365 26.472C490.888 26.472 491.314 26.568 491.645 26.76C491.986 26.9413 492.242 27.192 492.413 27.512C492.594 27.8213 492.717 28.1733 492.781 28.568C492.856 28.9627 492.893 29.3627 492.893 29.768V35ZM504.425 34.568C504.244 34.6427 504.025 34.728 503.769 34.824C503.513 34.92 503.236 34.9947 502.937 35.048C502.649 35.112 502.356 35.144 502.057 35.144C501.662 35.144 501.3 35.0747 500.969 34.936C500.638 34.7973 500.372 34.5787 500.169 34.28C499.977 33.9707 499.881 33.5707 499.881 33.08V28.264H498.777V26.616H499.881V23.896H502.025V26.616H503.785V28.264H502.025V32.36C502.036 32.648 502.116 32.856 502.265 32.984C502.414 33.112 502.601 33.176 502.825 33.176C503.049 33.176 503.268 33.1387 503.481 33.064C503.694 32.9893 503.865 32.9253 503.993 32.872L504.425 34.568ZM509.736 35.16C509.064 35.16 508.456 35.048 507.912 34.824C507.368 34.5893 506.904 34.2747 506.52 33.88C506.136 33.4747 505.837 33.016 505.624 32.504C505.421 31.9813 505.32 31.432 505.32 30.856C505.32 30.056 505.496 29.3253 505.848 28.664C506.211 28.0027 506.723 27.4747 507.384 27.08C508.056 26.6747 508.845 26.472 509.752 26.472C510.669 26.472 511.453 26.6747 512.104 27.08C512.755 27.4747 513.251 28.0027 513.592 28.664C513.944 29.3147 514.12 30.0187 514.12 30.776C514.12 30.904 514.115 31.0373 514.104 31.176C514.093 31.304 514.083 31.4107 514.072 31.496H507.592C507.635 31.9227 507.757 32.296 507.96 32.616C508.173 32.936 508.44 33.1813 508.76 33.352C509.091 33.512 509.443 33.592 509.816 33.592C510.243 33.592 510.643 33.4907 511.016 33.288C511.4 33.0747 511.661 32.7973 511.8 32.456L513.64 32.968C513.437 33.3947 513.144 33.7733 512.76 34.104C512.387 34.4347 511.944 34.696 511.432 34.888C510.92 35.0693 510.355 35.16 509.736 35.16ZM507.544 30.136H511.928C511.885 29.7093 511.763 29.3413 511.56 29.032C511.368 28.712 511.112 28.4667 510.792 28.296C510.472 28.1147 510.115 28.024 509.72 28.024C509.336 28.024 508.984 28.1147 508.664 28.296C508.355 28.4667 508.099 28.712 507.896 29.032C507.704 29.3413 507.587 29.7093 507.544 30.136ZM519.73 35.16C519.047 35.16 518.434 35.048 517.89 34.824C517.346 34.5893 516.882 34.2693 516.498 33.864C516.114 33.448 515.815 32.9787 515.602 32.456C515.399 31.9333 515.298 31.384 515.298 30.808C515.298 30.0187 515.474 29.2987 515.826 28.648C516.189 27.9867 516.701 27.4587 517.362 27.064C518.023 26.6693 518.807 26.472 519.714 26.472C520.621 26.472 521.399 26.6693 522.05 27.064C522.701 27.4587 523.186 27.976 523.506 28.616L521.41 29.256C521.229 28.9467 520.989 28.712 520.69 28.552C520.391 28.3813 520.061 28.296 519.698 28.296C519.293 28.296 518.919 28.4027 518.578 28.616C518.247 28.8187 517.986 29.112 517.794 29.496C517.602 29.8693 517.506 30.3067 517.506 30.808C517.506 31.2987 517.602 31.736 517.794 32.12C517.997 32.4933 518.263 32.792 518.594 33.016C518.925 33.2293 519.293 33.336 519.698 33.336C519.954 33.336 520.194 33.2933 520.418 33.208C520.653 33.1227 520.861 33.0053 521.042 32.856C521.223 32.7067 521.357 32.536 521.442 32.344L523.538 32.984C523.346 33.4 523.063 33.7733 522.69 34.104C522.327 34.4347 521.895 34.696 521.394 34.888C520.903 35.0693 520.349 35.16 519.73 35.16ZM533.049 35H530.905V30.296C530.905 29.6453 530.777 29.16 530.521 28.84C530.276 28.52 529.935 28.36 529.497 28.36C529.241 28.36 528.969 28.4347 528.681 28.584C528.393 28.7333 528.132 28.9413 527.897 29.208C527.673 29.464 527.508 29.7627 527.401 30.104V35H525.257V23.32H527.401V28.168C527.711 27.6347 528.132 27.2187 528.665 26.92C529.199 26.6213 529.78 26.472 530.409 26.472C530.953 26.472 531.396 26.568 531.737 26.76C532.079 26.9413 532.345 27.192 532.537 27.512C532.729 27.8213 532.863 28.1733 532.937 28.568C533.012 28.952 533.049 29.352 533.049 29.768V35ZM549.504 26.616H551.536L548.032 35H546.24L544.832 31.4L543.456 35H541.648L538.16 26.616H540.176L542.672 32.952L543.648 30.216L542.192 26.632H543.968L544.832 29.192L545.712 26.632H547.488L546.032 30.216L547.024 32.952L549.504 26.616ZM556.517 35.16C555.834 35.16 555.221 35.048 554.677 34.824C554.133 34.5893 553.669 34.2693 553.285 33.864C552.911 33.4587 552.623 32.9947 552.421 32.472C552.218 31.9493 552.117 31.4 552.117 30.824C552.117 30.2373 552.218 29.6827 552.421 29.16C552.623 28.6373 552.911 28.1733 553.285 27.768C553.669 27.3627 554.133 27.048 554.677 26.824C555.221 26.5893 555.834 26.472 556.517 26.472C557.199 26.472 557.807 26.5893 558.341 26.824C558.885 27.048 559.349 27.3627 559.733 27.768C560.117 28.1733 560.405 28.6373 560.597 29.16C560.799 29.6827 560.901 30.2373 560.901 30.824C560.901 31.4 560.799 31.9493 560.597 32.472C560.405 32.9947 560.117 33.4587 559.733 33.864C559.359 34.2693 558.901 34.5893 558.357 34.824C557.813 35.048 557.199 35.16 556.517 35.16ZM554.325 30.824C554.325 31.3147 554.421 31.752 554.613 32.136C554.805 32.5093 555.066 32.8027 555.397 33.016C555.727 33.2293 556.101 33.336 556.517 33.336C556.922 33.336 557.29 33.2293 557.621 33.016C557.951 32.792 558.213 32.4933 558.405 32.12C558.607 31.736 558.709 31.2987 558.709 30.808C558.709 30.328 558.607 29.896 558.405 29.512C558.213 29.128 557.951 28.8293 557.621 28.616C557.29 28.4027 556.922 28.296 556.517 28.296C556.101 28.296 555.727 28.408 555.397 28.632C555.066 28.8453 554.805 29.144 554.613 29.528C554.421 29.9013 554.325 30.3333 554.325 30.824ZM567.74 28.472C567.089 28.472 566.508 28.6 565.996 28.856C565.484 29.1013 565.116 29.4587 564.892 29.928V35H562.748V26.616H564.716V28.408C565.015 27.832 565.393 27.3787 565.852 27.048C566.311 26.7173 566.796 26.536 567.308 26.504C567.425 26.504 567.516 26.504 567.58 26.504C567.644 26.504 567.697 26.5093 567.74 26.52V28.472ZM569.319 23.32H571.463V32.312C571.463 32.696 571.527 32.9573 571.655 33.096C571.783 33.224 571.959 33.288 572.183 33.288C572.354 33.288 572.53 33.2667 572.711 33.224C572.893 33.1813 573.053 33.128 573.191 33.064L573.479 34.696C573.191 34.8347 572.855 34.9413 572.471 35.016C572.087 35.0907 571.741 35.128 571.431 35.128C570.759 35.128 570.237 34.952 569.863 34.6C569.501 34.2373 569.319 33.7253 569.319 33.064V23.32ZM574.302 30.808C574.302 29.9973 574.462 29.2667 574.782 28.616C575.102 27.9547 575.544 27.432 576.11 27.048C576.675 26.664 577.32 26.472 578.046 26.472C578.664 26.472 579.219 26.6267 579.71 26.936C580.211 27.2347 580.6 27.6187 580.878 28.088V23.32H583.022V32.6C583.022 32.824 583.059 32.984 583.134 33.08C583.208 33.176 583.336 33.2347 583.518 33.256V35C583.144 35.0747 582.84 35.112 582.606 35.112C582.222 35.112 581.902 35.016 581.646 34.824C581.4 34.632 581.262 34.3813 581.23 34.072L581.198 33.544C580.888 34.0667 580.467 34.4667 579.934 34.744C579.411 35.0213 578.862 35.16 578.286 35.16C577.71 35.16 577.176 35.048 576.686 34.824C576.206 34.6 575.784 34.2907 575.422 33.896C575.07 33.5013 574.792 33.0427 574.59 32.52C574.398 31.9867 574.302 31.416 574.302 30.808ZM580.878 31.928V29.928C580.771 29.6187 580.6 29.3413 580.366 29.096C580.131 28.8507 579.87 28.6587 579.582 28.52C579.294 28.3707 579.006 28.296 578.718 28.296C578.387 28.296 578.088 28.3653 577.822 28.504C577.555 28.6427 577.32 28.8293 577.118 29.064C576.926 29.2987 576.776 29.5707 576.67 29.88C576.574 30.1893 576.526 30.5147 576.526 30.856C576.526 31.1973 576.579 31.5227 576.686 31.832C576.803 32.1307 576.968 32.392 577.182 32.616C577.395 32.84 577.64 33.016 577.918 33.144C578.206 33.272 578.515 33.336 578.846 33.336C579.048 33.336 579.251 33.304 579.454 33.24C579.667 33.1653 579.864 33.0693 580.046 32.952C580.238 32.824 580.403 32.6747 580.542 32.504C580.691 32.3227 580.803 32.1307 580.878 31.928ZM585.718 36.84L586.15 34.936H585.478V32.696H587.334V34.936L586.678 36.84H585.718ZM16 65.16C15.3493 65.16 14.7733 65.016 14.272 64.728C13.7813 64.4293 13.3973 64.0293 13.12 63.528V68.408H10.976V56.616H12.848V58.056C13.168 57.5653 13.5733 57.1813 14.064 56.904C14.5547 56.616 15.1147 56.472 15.744 56.472C16.3093 56.472 16.8267 56.584 17.296 56.808C17.776 57.032 18.192 57.3467 18.544 57.752C18.896 58.1467 19.168 58.6053 19.36 59.128C19.5627 59.64 19.664 60.1947 19.664 60.792C19.664 61.6027 19.504 62.3387 19.184 63C18.8747 63.6613 18.4427 64.1893 17.888 64.584C17.344 64.968 16.7147 65.16 16 65.16ZM15.28 63.336C15.6107 63.336 15.9093 63.2667 16.176 63.128C16.4427 62.9893 16.672 62.8027 16.864 62.568C17.0667 62.3227 17.216 62.0507 17.312 61.752C17.4187 61.4427 17.472 61.1227 17.472 60.792C17.472 60.44 17.4133 60.1147 17.296 59.816C17.1893 59.5173 17.0293 59.256 16.816 59.032C16.6027 58.7973 16.352 58.616 16.064 58.488C15.7867 58.36 15.4827 58.296 15.152 58.296C14.9493 58.296 14.7413 58.3333 14.528 58.408C14.3253 58.472 14.128 58.568 13.936 58.696C13.744 58.824 13.5733 58.9733 13.424 59.144C13.2853 59.3147 13.184 59.5013 13.12 59.704V61.672C13.248 61.9813 13.4187 62.264 13.632 62.52C13.856 62.776 14.112 62.9787 14.4 63.128C14.688 63.2667 14.9813 63.336 15.28 63.336ZM20.9406 62.52C20.9406 61.976 21.09 61.5013 21.3886 61.096C21.698 60.68 22.1246 60.36 22.6686 60.136C23.2126 59.912 23.8366 59.8 24.5406 59.8C24.8926 59.8 25.25 59.8267 25.6126 59.88C25.9753 59.9333 26.29 60.0187 26.5566 60.136V59.688C26.5566 59.1547 26.3966 58.744 26.0766 58.456C25.7673 58.168 25.3033 58.024 24.6846 58.024C24.226 58.024 23.7886 58.104 23.3726 58.264C22.9566 58.424 22.5193 58.6587 22.0606 58.968L21.3726 57.56C21.9273 57.1973 22.4926 56.9253 23.0686 56.744C23.6553 56.5627 24.2686 56.472 24.9086 56.472C26.1033 56.472 27.0313 56.7707 27.6926 57.368C28.3646 57.9653 28.7006 58.8187 28.7006 59.928V62.6C28.7006 62.824 28.738 62.984 28.8126 63.08C28.898 63.176 29.0313 63.2347 29.2126 63.256V65C29.0206 65.032 28.8446 65.0587 28.6846 65.08C28.5353 65.1013 28.4073 65.112 28.3006 65.112C27.874 65.112 27.5486 65.016 27.3246 64.824C27.1113 64.632 26.978 64.3973 26.9246 64.12L26.8766 63.688C26.514 64.1573 26.0606 64.52 25.5166 64.776C24.9726 65.032 24.418 65.16 23.8526 65.16C23.298 65.16 22.7966 65.048 22.3486 64.824C21.9113 64.5893 21.5646 64.2747 21.3086 63.88C21.0633 63.4747 20.9406 63.0213 20.9406 62.52ZM26.1566 62.952C26.274 62.824 26.37 62.696 26.4446 62.568C26.5193 62.44 26.5566 62.3227 26.5566 62.216V61.368C26.3006 61.2613 26.0233 61.1813 25.7246 61.128C25.426 61.064 25.1433 61.032 24.8766 61.032C24.322 61.032 23.8633 61.1547 23.5006 61.4C23.1486 61.6347 22.9726 61.9493 22.9726 62.344C22.9726 62.5573 23.0313 62.76 23.1486 62.952C23.266 63.144 23.4366 63.2987 23.6606 63.416C23.8846 63.5333 24.1513 63.592 24.4606 63.592C24.7806 63.592 25.0953 63.5333 25.4046 63.416C25.714 63.288 25.9646 63.1333 26.1566 62.952ZM36.0961 58.472C35.4455 58.472 34.8641 58.6 34.3521 58.856C33.8401 59.1013 33.4721 59.4587 33.2481 59.928V65H31.1041V56.616H33.0721V58.408C33.3708 57.832 33.7495 57.3787 34.2081 57.048C34.6668 56.7173 35.1521 56.536 35.6641 56.504C35.7815 56.504 35.8721 56.504 35.9361 56.504C36.0001 56.504 36.0535 56.5093 36.0961 56.52V58.472ZM42.7156 64.568C42.5343 64.6427 42.3156 64.728 42.0596 64.824C41.8036 64.92 41.5263 64.9947 41.2276 65.048C40.9396 65.112 40.6463 65.144 40.3476 65.144C39.953 65.144 39.5903 65.0747 39.2596 64.936C38.929 64.7973 38.6623 64.5787 38.4596 64.28C38.2676 63.9707 38.1716 63.5707 38.1716 63.08V58.264H37.0676V56.616H38.1716V53.896H40.3156V56.616H42.0756V58.264H40.3156V62.36C40.3263 62.648 40.4063 62.856 40.5556 62.984C40.705 63.112 40.8916 63.176 41.1156 63.176C41.3396 63.176 41.5583 63.1387 41.7716 63.064C41.985 62.9893 42.1556 62.9253 42.2836 62.872L42.7156 64.568ZM52.0242 65H49.8802V60.296C49.8802 59.624 49.7629 59.1333 49.5282 58.824C49.2936 58.5147 48.9682 58.36 48.5522 58.36C48.2642 58.36 47.9709 58.4347 47.6722 58.584C47.3842 58.7333 47.1229 58.9413 46.8882 59.208C46.6536 59.464 46.4829 59.7627 46.3762 60.104V65H44.2322V56.616H46.1682V58.168C46.3816 57.8053 46.6536 57.5013 46.9842 57.256C47.3149 57 47.6936 56.808 48.1202 56.68C48.5576 56.5413 49.0162 56.472 49.4962 56.472C50.0189 56.472 50.4456 56.568 50.7762 56.76C51.1176 56.9413 51.3736 57.192 51.5442 57.512C51.7256 57.8213 51.8482 58.1733 51.9122 58.568C51.9869 58.9627 52.0242 59.3627 52.0242 59.768V65ZM58.1765 65.16C57.5045 65.16 56.8965 65.048 56.3525 64.824C55.8085 64.5893 55.3445 64.2747 54.9605 63.88C54.5765 63.4747 54.2778 63.016 54.0645 62.504C53.8618 61.9813 53.7605 61.432 53.7605 60.856C53.7605 60.056 53.9365 59.3253 54.2885 58.664C54.6512 58.0027 55.1632 57.4747 55.8245 57.08C56.4965 56.6747 57.2858 56.472 58.1925 56.472C59.1098 56.472 59.8938 56.6747 60.5445 57.08C61.1952 57.4747 61.6912 58.0027 62.0325 58.664C62.3845 59.3147 62.5605 60.0187 62.5605 60.776C62.5605 60.904 62.5552 61.0373 62.5445 61.176C62.5338 61.304 62.5232 61.4107 62.5125 61.496H56.0325C56.0752 61.9227 56.1978 62.296 56.4005 62.616C56.6138 62.936 56.8805 63.1813 57.2005 63.352C57.5312 63.512 57.8832 63.592 58.2565 63.592C58.6832 63.592 59.0832 63.4907 59.4565 63.288C59.8405 63.0747 60.1018 62.7973 60.2405 62.456L62.0805 62.968C61.8778 63.3947 61.5845 63.7733 61.2005 64.104C60.8272 64.4347 60.3845 64.696 59.8725 64.888C59.3605 65.0693 58.7952 65.16 58.1765 65.16ZM55.9845 60.136H60.3685C60.3258 59.7093 60.2032 59.3413 60.0005 59.032C59.8085 58.712 59.5525 58.4667 59.2325 58.296C58.9125 58.1147 58.5552 58.024 58.1605 58.024C57.7765 58.024 57.4245 58.1147 57.1045 58.296C56.7952 58.4667 56.5392 58.712 56.3365 59.032C56.1445 59.3413 56.0272 59.7093 55.9845 60.136ZM69.2586 58.472C68.608 58.472 68.0266 58.6 67.5146 58.856C67.0026 59.1013 66.6346 59.4587 66.4106 59.928V65H64.2666V56.616H66.2346V58.408C66.5333 57.832 66.912 57.3787 67.3706 57.048C67.8293 56.7173 68.3146 56.536 68.8266 56.504C68.944 56.504 69.0346 56.504 69.0986 56.504C69.1626 56.504 69.216 56.5093 69.2586 56.52V58.472ZM73.9421 65.16C73.2275 65.16 72.5448 65.0427 71.8941 64.808C71.2435 64.5733 70.6835 64.2267 70.2141 63.768L70.9821 62.376C71.4835 62.7813 71.9741 63.08 72.4541 63.272C72.9448 63.464 73.4141 63.56 73.8621 63.56C74.2781 63.56 74.6088 63.4853 74.8541 63.336C75.1101 63.1867 75.2381 62.9627 75.2381 62.664C75.2381 62.4613 75.1688 62.3067 75.0301 62.2C74.8915 62.0827 74.6888 61.9813 74.4221 61.896C74.1661 61.8107 73.8515 61.7147 73.4781 61.608C72.8595 61.4053 72.3421 61.208 71.9261 61.016C71.5101 60.824 71.1955 60.584 70.9821 60.296C70.7795 59.9973 70.6781 59.6187 70.6781 59.16C70.6781 58.6053 70.8168 58.1307 71.0941 57.736C71.3821 57.3307 71.7768 57.016 72.2781 56.792C72.7901 56.568 73.3875 56.456 74.0701 56.456C74.6675 56.456 75.2328 56.552 75.7661 56.744C76.2995 56.9253 76.7848 57.224 77.2221 57.64L76.3581 59C75.9315 58.6693 75.5261 58.4293 75.1421 58.28C74.7581 58.12 74.3688 58.04 73.9741 58.04C73.7501 58.04 73.5368 58.0667 73.3341 58.12C73.1421 58.1733 72.9821 58.264 72.8541 58.392C72.7368 58.5093 72.6781 58.68 72.6781 58.904C72.6781 59.1067 72.7315 59.2667 72.8381 59.384C72.9555 59.4907 73.1261 59.5867 73.3501 59.672C73.5848 59.7573 73.8675 59.8533 74.1981 59.96C74.8701 60.152 75.4355 60.3493 75.8941 60.552C76.3635 60.7547 76.7155 61.0053 76.9501 61.304C77.1848 61.592 77.3021 61.992 77.3021 62.504C77.3021 63.336 76.9981 63.9867 76.3901 64.456C75.7821 64.9253 74.9661 65.16 73.9421 65.16ZM86.9524 65H84.8084V60.296C84.8084 59.6453 84.6804 59.16 84.4244 58.84C84.179 58.52 83.8377 58.36 83.4004 58.36C83.1444 58.36 82.8724 58.4347 82.5844 58.584C82.2964 58.7333 82.035 58.9413 81.8004 59.208C81.5764 59.464 81.411 59.7627 81.3044 60.104V65H79.1604V53.32H81.3044V58.168C81.6137 57.6347 82.035 57.2187 82.5684 56.92C83.1017 56.6213 83.683 56.472 84.3124 56.472C84.8564 56.472 85.299 56.568 85.6404 56.76C85.9817 56.9413 86.2484 57.192 86.4404 57.512C86.6324 57.8213 86.7657 58.1733 86.8404 58.568C86.915 58.952 86.9524 59.352 86.9524 59.768V65ZM89.2166 65V56.616H91.3606V65H89.2166ZM89.2166 55.448V53.32H91.3606V55.448H89.2166ZM98.7188 65.16C98.0681 65.16 97.4921 65.016 96.9908 64.728C96.5001 64.4293 96.1161 64.0293 95.8388 63.528V68.408H93.6948V56.616H95.5668V58.056C95.8868 57.5653 96.2921 57.1813 96.7828 56.904C97.2734 56.616 97.8334 56.472 98.4628 56.472C99.0281 56.472 99.5454 56.584 100.015 56.808C100.495 57.032 100.911 57.3467 101.263 57.752C101.615 58.1467 101.887 58.6053 102.079 59.128C102.281 59.64 102.383 60.1947 102.383 60.792C102.383 61.6027 102.223 62.3387 101.903 63C101.593 63.6613 101.161 64.1893 100.607 64.584C100.063 64.968 99.4334 65.16 98.7188 65.16ZM97.9988 63.336C98.3294 63.336 98.6281 63.2667 98.8948 63.128C99.1614 62.9893 99.3908 62.8027 99.5828 62.568C99.7854 62.3227 99.9348 62.0507 100.031 61.752C100.137 61.4427 100.191 61.1227 100.191 60.792C100.191 60.44 100.132 60.1147 100.015 59.816C99.9081 59.5173 99.7481 59.256 99.5348 59.032C99.3214 58.7973 99.0708 58.616 98.7828 58.488C98.5054 58.36 98.2014 58.296 97.8708 58.296C97.6681 58.296 97.4601 58.3333 97.2468 58.408C97.0441 58.472 96.8468 58.568 96.6548 58.696C96.4628 58.824 96.2921 58.9733 96.1428 59.144C96.0041 59.3147 95.9028 59.5013 95.8388 59.704V61.672C95.9668 61.9813 96.1374 62.264 96.3508 62.52C96.5748 62.776 96.8308 62.9787 97.1188 63.128C97.4068 63.2667 97.7001 63.336 97.9988 63.336ZM107.323 65.16C106.609 65.16 105.926 65.0427 105.275 64.808C104.625 64.5733 104.065 64.2267 103.595 63.768L104.363 62.376C104.865 62.7813 105.355 63.08 105.835 63.272C106.326 63.464 106.795 63.56 107.243 63.56C107.659 63.56 107.99 63.4853 108.235 63.336C108.491 63.1867 108.619 62.9627 108.619 62.664C108.619 62.4613 108.55 62.3067 108.411 62.2C108.273 62.0827 108.07 61.9813 107.803 61.896C107.547 61.8107 107.233 61.7147 106.859 61.608C106.241 61.4053 105.723 61.208 105.307 61.016C104.891 60.824 104.577 60.584 104.363 60.296C104.161 59.9973 104.059 59.6187 104.059 59.16C104.059 58.6053 104.198 58.1307 104.475 57.736C104.763 57.3307 105.158 57.016 105.659 56.792C106.171 56.568 106.769 56.456 107.451 56.456C108.049 56.456 108.614 56.552 109.147 56.744C109.681 56.9253 110.166 57.224 110.603 57.64L109.739 59C109.313 58.6693 108.907 58.4293 108.523 58.28C108.139 58.12 107.75 58.04 107.355 58.04C107.131 58.04 106.918 58.0667 106.715 58.12C106.523 58.1733 106.363 58.264 106.235 58.392C106.118 58.5093 106.059 58.68 106.059 58.904C106.059 59.1067 106.113 59.2667 106.219 59.384C106.337 59.4907 106.507 59.5867 106.731 59.672C106.966 59.7573 107.249 59.8533 107.579 59.96C108.251 60.152 108.817 60.3493 109.275 60.552C109.745 60.7547 110.097 61.0053 110.331 61.304C110.566 61.592 110.683 61.992 110.683 62.504C110.683 63.336 110.379 63.9867 109.771 64.456C109.163 64.9253 108.347 65.16 107.323 65.16ZM116.572 62.6C116.572 62.0773 116.721 61.6293 117.02 61.256C117.318 60.872 117.729 60.5787 118.252 60.376C118.785 60.1627 119.398 60.056 120.092 60.056C120.497 60.056 120.918 60.088 121.356 60.152C121.793 60.216 122.182 60.312 122.524 60.44V59.736C122.524 59.032 122.316 58.472 121.9 58.056C121.484 57.64 120.908 57.432 120.172 57.432C119.724 57.432 119.281 57.5173 118.844 57.688C118.417 57.848 117.969 58.088 117.5 58.408L117.084 57.64C117.628 57.2667 118.161 56.9893 118.684 56.808C119.206 56.616 119.74 56.52 120.284 56.52C121.308 56.52 122.118 56.8133 122.716 57.4C123.313 57.9867 123.612 58.7973 123.612 59.832V63.688C123.612 63.8373 123.644 63.9493 123.708 64.024C123.772 64.088 123.873 64.1253 124.012 64.136V65C123.894 65.0107 123.793 65.0213 123.708 65.032C123.622 65.0427 123.558 65.0427 123.516 65.032C123.249 65.0213 123.046 64.936 122.908 64.776C122.769 64.616 122.694 64.4453 122.684 64.264L122.668 63.656C122.294 64.136 121.809 64.5093 121.212 64.776C120.614 65.032 120.006 65.16 119.388 65.16C118.854 65.16 118.369 65.048 117.932 64.824C117.505 64.5893 117.169 64.28 116.924 63.896C116.689 63.5013 116.572 63.0693 116.572 62.6ZM122.156 63.24C122.273 63.0907 122.364 62.9467 122.428 62.808C122.492 62.6693 122.524 62.5467 122.524 62.44V61.224C122.161 61.0853 121.782 60.9787 121.388 60.904C121.004 60.8293 120.614 60.792 120.22 60.792C119.441 60.792 118.812 60.9467 118.332 61.256C117.852 61.5653 117.612 61.9867 117.612 62.52C117.612 62.8293 117.692 63.1227 117.852 63.4C118.012 63.6667 118.246 63.8907 118.556 64.072C118.865 64.2427 119.228 64.328 119.644 64.328C120.166 64.328 120.652 64.2267 121.1 64.024C121.558 63.8213 121.91 63.56 122.156 63.24ZM133.37 65H132.282V60.344C132.282 59.3627 132.138 58.648 131.85 58.2C131.562 57.7413 131.109 57.512 130.49 57.512C130.064 57.512 129.642 57.6187 129.226 57.832C128.81 58.0347 128.442 58.3173 128.122 58.68C127.813 59.032 127.589 59.4373 127.45 59.896V65H126.362V56.664H127.354V58.552C127.578 58.1467 127.872 57.7947 128.234 57.496C128.597 57.1867 129.008 56.9467 129.466 56.776C129.925 56.6053 130.4 56.52 130.89 56.52C131.349 56.52 131.738 56.6053 132.058 56.776C132.378 56.9467 132.634 57.192 132.826 57.512C133.018 57.8213 133.157 58.2 133.242 58.648C133.328 59.0853 133.37 59.576 133.37 60.12V65ZM135.531 60.856C135.531 60.0667 135.691 59.3467 136.011 58.696C136.341 58.0347 136.795 57.5067 137.371 57.112C137.947 56.7173 138.603 56.52 139.339 56.52C140.032 56.52 140.651 56.7067 141.195 57.08C141.749 57.4427 142.181 57.8853 142.491 58.408V53.32H143.579V63.688C143.579 63.8373 143.611 63.9493 143.675 64.024C143.739 64.088 143.835 64.1253 143.963 64.136V65C143.749 65.032 143.584 65.0427 143.467 65.032C143.243 65.0213 143.045 64.9307 142.875 64.76C142.704 64.5893 142.619 64.4027 142.619 64.2V63.384C142.288 63.928 141.84 64.36 141.275 64.68C140.709 65 140.123 65.16 139.515 65.16C138.939 65.16 138.405 65.0427 137.915 64.808C137.435 64.5733 137.013 64.2533 136.651 63.848C136.299 63.4427 136.021 62.984 135.819 62.472C135.627 61.9493 135.531 61.4107 135.531 60.856ZM142.491 62.136V59.56C142.352 59.176 142.128 58.8293 141.819 58.52C141.509 58.2 141.157 57.9493 140.763 57.768C140.379 57.576 139.995 57.48 139.611 57.48C139.163 57.48 138.757 57.576 138.395 57.768C138.032 57.9493 137.717 58.2 137.451 58.52C137.195 58.84 136.997 59.2027 136.859 59.608C136.72 60.0133 136.651 60.4293 136.651 60.856C136.651 61.304 136.725 61.7307 136.875 62.136C137.035 62.5413 137.259 62.904 137.547 63.224C137.835 63.5333 138.165 63.7733 138.539 63.944C138.912 64.1147 139.317 64.2 139.755 64.2C140.032 64.2 140.32 64.1467 140.619 64.04C140.917 63.9333 141.2 63.7893 141.467 63.608C141.744 63.416 141.973 63.192 142.155 62.936C142.336 62.68 142.448 62.4133 142.491 62.136ZM163.322 65H162.234V60.344C162.234 59.3733 162.079 58.6587 161.77 58.2C161.461 57.7413 161.002 57.512 160.394 57.512C159.765 57.512 159.199 57.736 158.698 58.184C158.207 58.632 157.861 59.208 157.658 59.912V65H156.57V60.344C156.57 59.3627 156.421 58.648 156.122 58.2C155.823 57.7413 155.365 57.512 154.746 57.512C154.127 57.512 153.567 57.7307 153.066 58.168C152.565 58.6053 152.213 59.1813 152.01 59.896V65H150.922V56.664H151.914V58.552C152.266 57.9013 152.714 57.4 153.258 57.048C153.813 56.696 154.426 56.52 155.098 56.52C155.791 56.52 156.351 56.7173 156.778 57.112C157.205 57.5067 157.466 58.024 157.562 58.664C157.946 57.96 158.405 57.4267 158.938 57.064C159.482 56.7013 160.095 56.52 160.778 56.52C161.247 56.52 161.642 56.6053 161.962 56.776C162.293 56.9467 162.554 57.192 162.746 57.512C162.949 57.8213 163.093 58.2 163.178 58.648C163.274 59.0853 163.322 59.576 163.322 60.12V65ZM169.577 65.16C168.98 65.16 168.425 65.048 167.913 64.824C167.412 64.5893 166.974 64.2747 166.601 63.88C166.238 63.4747 165.956 63.016 165.753 62.504C165.55 61.9813 165.449 61.432 165.449 60.856C165.449 60.2587 165.55 59.704 165.753 59.192C165.956 58.6693 166.244 58.2107 166.617 57.816C166.99 57.4107 167.428 57.096 167.929 56.872C168.441 56.6373 168.996 56.52 169.593 56.52C170.19 56.52 170.74 56.6373 171.241 56.872C171.742 57.096 172.18 57.4107 172.553 57.816C172.926 58.2107 173.214 58.6693 173.417 59.192C173.62 59.704 173.721 60.2587 173.721 60.856C173.721 61.432 173.62 61.9813 173.417 62.504C173.214 63.016 172.926 63.4747 172.553 63.88C172.19 64.2747 171.753 64.5893 171.241 64.824C170.74 65.048 170.185 65.16 169.577 65.16ZM166.553 60.872C166.553 61.4907 166.686 62.056 166.953 62.568C167.23 63.0693 167.598 63.4693 168.057 63.768C168.516 64.056 169.022 64.2 169.577 64.2C170.132 64.2 170.638 64.0507 171.097 63.752C171.556 63.4533 171.924 63.048 172.201 62.536C172.478 62.0133 172.617 61.448 172.617 60.84C172.617 60.2213 172.478 59.656 172.201 59.144C171.924 58.632 171.556 58.2267 171.097 57.928C170.638 57.6293 170.132 57.48 169.577 57.48C169.022 57.48 168.516 57.6347 168.057 57.944C167.609 58.2533 167.246 58.664 166.969 59.176C166.692 59.6773 166.553 60.2427 166.553 60.872ZM180.101 57.624C179.375 57.6453 178.735 57.848 178.181 58.232C177.637 58.616 177.253 59.144 177.029 59.816V65H175.941V56.664H176.965V58.664C177.253 58.0773 177.631 57.6027 178.101 57.24C178.581 56.8773 179.087 56.6747 179.621 56.632C179.727 56.6213 179.818 56.616 179.893 56.616C179.978 56.616 180.047 56.6213 180.101 56.632V57.624ZM185.284 65.16C184.687 65.16 184.132 65.048 183.62 64.824C183.108 64.5893 182.666 64.2747 182.292 63.88C181.919 63.4747 181.626 63.0107 181.412 62.488C181.21 61.9653 181.108 61.4053 181.108 60.808C181.108 60.0293 181.284 59.3147 181.636 58.664C181.999 58.0133 182.495 57.496 183.124 57.112C183.754 56.7173 184.468 56.52 185.268 56.52C186.09 56.52 186.804 56.7173 187.412 57.112C188.031 57.5067 188.516 58.0293 188.868 58.68C189.22 59.32 189.396 60.024 189.396 60.792C189.396 60.8773 189.396 60.9627 189.396 61.048C189.396 61.1227 189.391 61.1813 189.38 61.224H182.244C182.298 61.8213 182.463 62.3547 182.74 62.824C183.028 63.2827 183.396 63.6507 183.844 63.928C184.303 64.1947 184.799 64.328 185.332 64.328C185.876 64.328 186.388 64.1893 186.868 63.912C187.359 63.6347 187.7 63.272 187.892 62.824L188.836 63.08C188.666 63.4747 188.404 63.832 188.052 64.152C187.7 64.472 187.284 64.7227 186.804 64.904C186.335 65.0747 185.828 65.16 185.284 65.16ZM182.212 60.44H188.372C188.33 59.832 188.164 59.2987 187.876 58.84C187.599 58.3813 187.231 58.024 186.772 57.768C186.324 57.5013 185.828 57.368 185.284 57.368C184.74 57.368 184.244 57.5013 183.796 57.768C183.348 58.024 182.98 58.3867 182.692 58.856C182.415 59.3147 182.255 59.8427 182.212 60.44ZM198.689 65.16C198.006 65.16 197.372 65.048 196.785 64.824C196.198 64.6 195.692 64.2587 195.265 63.8L195.713 63.032C196.182 63.4693 196.652 63.7893 197.121 63.992C197.601 64.184 198.108 64.28 198.641 64.28C199.292 64.28 199.82 64.152 200.225 63.896C200.63 63.6293 200.833 63.2507 200.833 62.76C200.833 62.4293 200.732 62.1787 200.529 62.008C200.337 61.8267 200.054 61.6827 199.681 61.576C199.318 61.4587 198.881 61.336 198.369 61.208C197.793 61.048 197.308 60.8827 196.913 60.712C196.529 60.5307 196.236 60.3067 196.033 60.04C195.841 59.7627 195.745 59.4053 195.745 58.968C195.745 58.424 195.878 57.976 196.145 57.624C196.422 57.2613 196.796 56.9893 197.265 56.808C197.745 56.616 198.278 56.52 198.865 56.52C199.505 56.52 200.07 56.6213 200.561 56.824C201.052 57.0267 201.452 57.3093 201.761 57.672L201.233 58.408C200.934 58.0667 200.577 57.816 200.161 57.656C199.756 57.4853 199.302 57.4 198.801 57.4C198.46 57.4 198.134 57.448 197.825 57.544C197.516 57.6293 197.26 57.7787 197.057 57.992C196.865 58.1947 196.769 58.4773 196.769 58.84C196.769 59.1387 196.844 59.3733 196.993 59.544C197.142 59.704 197.366 59.8427 197.665 59.96C197.964 60.0667 198.332 60.184 198.769 60.312C199.398 60.4827 199.948 60.6587 200.417 60.84C200.886 61.0107 201.249 61.2347 201.505 61.512C201.761 61.7893 201.889 62.1787 201.889 62.68C201.889 63.4587 201.596 64.0667 201.009 64.504C200.422 64.9413 199.649 65.16 198.689 65.16ZM207.639 65.16C207.042 65.16 206.487 65.048 205.975 64.824C205.474 64.5893 205.037 64.2747 204.663 63.88C204.301 63.4747 204.018 63.016 203.815 62.504C203.613 61.9813 203.511 61.432 203.511 60.856C203.511 60.2587 203.613 59.704 203.815 59.192C204.018 58.6693 204.306 58.2107 204.679 57.816C205.053 57.4107 205.49 57.096 205.991 56.872C206.503 56.6373 207.058 56.52 207.655 56.52C208.253 56.52 208.802 56.6373 209.303 56.872C209.805 57.096 210.242 57.4107 210.615 57.816C210.989 58.2107 211.277 58.6693 211.479 59.192C211.682 59.704 211.783 60.2587 211.783 60.856C211.783 61.432 211.682 61.9813 211.479 62.504C211.277 63.016 210.989 63.4747 210.615 63.88C210.253 64.2747 209.815 64.5893 209.303 64.824C208.802 65.048 208.247 65.16 207.639 65.16ZM204.615 60.872C204.615 61.4907 204.749 62.056 205.015 62.568C205.293 63.0693 205.661 63.4693 206.119 63.768C206.578 64.056 207.085 64.2 207.639 64.2C208.194 64.2 208.701 64.0507 209.159 63.752C209.618 63.4533 209.986 63.048 210.263 62.536C210.541 62.0133 210.679 61.448 210.679 60.84C210.679 60.2213 210.541 59.656 210.263 59.144C209.986 58.632 209.618 58.2267 209.159 57.928C208.701 57.6293 208.194 57.48 207.639 57.48C207.085 57.48 206.578 57.6347 206.119 57.944C205.671 58.2533 205.309 58.664 205.031 59.176C204.754 59.6773 204.615 60.2427 204.615 60.872ZM231.281 65H229.137V60.296C229.137 59.6347 229.02 59.1493 228.785 58.84C228.561 58.52 228.247 58.36 227.841 58.36C227.425 58.36 227.025 58.5253 226.641 58.856C226.268 59.176 226.001 59.5973 225.841 60.12V65H223.697V60.296C223.697 59.624 223.58 59.1333 223.345 58.824C223.121 58.5147 222.807 58.36 222.401 58.36C221.985 58.36 221.585 58.52 221.201 58.84C220.828 59.16 220.561 59.5813 220.401 60.104V65H218.257V56.616H220.193V58.168C220.513 57.624 220.94 57.208 221.473 56.92C222.007 56.6213 222.62 56.472 223.313 56.472C224.007 56.472 224.545 56.6427 224.929 56.984C225.324 57.3253 225.575 57.7467 225.681 58.248C226.023 57.672 226.455 57.2347 226.977 56.936C227.511 56.6267 228.108 56.472 228.769 56.472C229.292 56.472 229.713 56.568 230.033 56.76C230.364 56.9413 230.62 57.192 230.801 57.512C230.983 57.8213 231.105 58.1733 231.169 58.568C231.244 58.9627 231.281 59.3627 231.281 59.768V65ZM237.436 65.16C236.764 65.16 236.156 65.048 235.612 64.824C235.068 64.5893 234.604 64.2747 234.22 63.88C233.836 63.4747 233.537 63.016 233.324 62.504C233.121 61.9813 233.02 61.432 233.02 60.856C233.02 60.056 233.196 59.3253 233.548 58.664C233.911 58.0027 234.423 57.4747 235.084 57.08C235.756 56.6747 236.545 56.472 237.452 56.472C238.369 56.472 239.153 56.6747 239.804 57.08C240.455 57.4747 240.951 58.0027 241.292 58.664C241.644 59.3147 241.82 60.0187 241.82 60.776C241.82 60.904 241.815 61.0373 241.804 61.176C241.793 61.304 241.783 61.4107 241.772 61.496H235.292C235.335 61.9227 235.457 62.296 235.66 62.616C235.873 62.936 236.14 63.1813 236.46 63.352C236.791 63.512 237.143 63.592 237.516 63.592C237.943 63.592 238.343 63.4907 238.716 63.288C239.1 63.0747 239.361 62.7973 239.5 62.456L241.34 62.968C241.137 63.3947 240.844 63.7733 240.46 64.104C240.087 64.4347 239.644 64.696 239.132 64.888C238.62 65.0693 238.055 65.16 237.436 65.16ZM235.244 60.136H239.628C239.585 59.7093 239.463 59.3413 239.26 59.032C239.068 58.712 238.812 58.4667 238.492 58.296C238.172 58.1147 237.815 58.024 237.42 58.024C237.036 58.024 236.684 58.1147 236.364 58.296C236.055 58.4667 235.799 58.712 235.596 59.032C235.404 59.3413 235.287 59.7093 235.244 60.136ZM251.318 65H249.174V60.296C249.174 59.624 249.057 59.1333 248.822 58.824C248.587 58.5147 248.262 58.36 247.846 58.36C247.558 58.36 247.265 58.4347 246.966 58.584C246.678 58.7333 246.417 58.9413 246.182 59.208C245.947 59.464 245.777 59.7627 245.67 60.104V65H243.526V56.616H245.462V58.168C245.675 57.8053 245.947 57.5013 246.278 57.256C246.609 57 246.987 56.808 247.414 56.68C247.851 56.5413 248.31 56.472 248.79 56.472C249.313 56.472 249.739 56.568 250.07 56.76C250.411 56.9413 250.667 57.192 250.838 57.512C251.019 57.8213 251.142 58.1733 251.206 58.568C251.281 58.9627 251.318 59.3627 251.318 59.768V65ZM258.559 64.568C258.378 64.6427 258.159 64.728 257.903 64.824C257.647 64.92 257.37 64.9947 257.071 65.048C256.783 65.112 256.49 65.144 256.191 65.144C255.797 65.144 255.434 65.0747 255.103 64.936C254.773 64.7973 254.506 64.5787 254.303 64.28C254.111 63.9707 254.015 63.5707 254.015 63.08V58.264H252.911V56.616H254.015V53.896H256.159V56.616H257.919V58.264H256.159V62.36C256.17 62.648 256.25 62.856 256.399 62.984C256.549 63.112 256.735 63.176 256.959 63.176C257.183 63.176 257.402 63.1387 257.615 63.064C257.829 62.9893 257.999 62.9253 258.127 62.872L258.559 64.568ZM263.854 65.16C263.172 65.16 262.558 65.048 262.014 64.824C261.47 64.5893 261.006 64.2693 260.622 63.864C260.249 63.4587 259.961 62.9947 259.758 62.472C259.556 61.9493 259.454 61.4 259.454 60.824C259.454 60.2373 259.556 59.6827 259.758 59.16C259.961 58.6373 260.249 58.1733 260.622 57.768C261.006 57.3627 261.47 57.048 262.014 56.824C262.558 56.5893 263.172 56.472 263.854 56.472C264.537 56.472 265.145 56.5893 265.678 56.824C266.222 57.048 266.686 57.3627 267.07 57.768C267.454 58.1733 267.742 58.6373 267.934 59.16C268.137 59.6827 268.238 60.2373 268.238 60.824C268.238 61.4 268.137 61.9493 267.934 62.472C267.742 62.9947 267.454 63.4587 267.07 63.864C266.697 64.2693 266.238 64.5893 265.694 64.824C265.15 65.048 264.537 65.16 263.854 65.16ZM261.662 60.824C261.662 61.3147 261.758 61.752 261.95 62.136C262.142 62.5093 262.404 62.8027 262.734 63.016C263.065 63.2293 263.438 63.336 263.854 63.336C264.26 63.336 264.628 63.2293 264.958 63.016C265.289 62.792 265.55 62.4933 265.742 62.12C265.945 61.736 266.046 61.2987 266.046 60.808C266.046 60.328 265.945 59.896 265.742 59.512C265.55 59.128 265.289 58.8293 264.958 58.616C264.628 58.4027 264.26 58.296 263.854 58.296C263.438 58.296 263.065 58.408 262.734 58.632C262.404 58.8453 262.142 59.144 261.95 59.528C261.758 59.9013 261.662 60.3333 261.662 60.824ZM275.077 58.472C274.427 58.472 273.845 58.6 273.333 58.856C272.821 59.1013 272.453 59.4587 272.229 59.928V65H270.085V56.616H272.053V58.408C272.352 57.832 272.731 57.3787 273.189 57.048C273.648 56.7173 274.133 56.536 274.645 56.504C274.763 56.504 274.853 56.504 274.917 56.504C274.981 56.504 275.035 56.5093 275.077 56.52V58.472ZM279.761 65.16C279.046 65.16 278.364 65.0427 277.713 64.808C277.062 64.5733 276.502 64.2267 276.033 63.768L276.801 62.376C277.302 62.7813 277.793 63.08 278.273 63.272C278.764 63.464 279.233 63.56 279.681 63.56C280.097 63.56 280.428 63.4853 280.673 63.336C280.929 63.1867 281.057 62.9627 281.057 62.664C281.057 62.4613 280.988 62.3067 280.849 62.2C280.71 62.0827 280.508 61.9813 280.241 61.896C279.985 61.8107 279.67 61.7147 279.297 61.608C278.678 61.4053 278.161 61.208 277.745 61.016C277.329 60.824 277.014 60.584 276.801 60.296C276.598 59.9973 276.497 59.6187 276.497 59.16C276.497 58.6053 276.636 58.1307 276.913 57.736C277.201 57.3307 277.596 57.016 278.097 56.792C278.609 56.568 279.206 56.456 279.889 56.456C280.486 56.456 281.052 56.552 281.585 56.744C282.118 56.9253 282.604 57.224 283.041 57.64L282.177 59C281.75 58.6693 281.345 58.4293 280.961 58.28C280.577 58.12 280.188 58.04 279.793 58.04C279.569 58.04 279.356 58.0667 279.153 58.12C278.961 58.1733 278.801 58.264 278.673 58.392C278.556 58.5093 278.497 58.68 278.497 58.904C278.497 59.1067 278.55 59.2667 278.657 59.384C278.774 59.4907 278.945 59.5867 279.169 59.672C279.404 59.7573 279.686 59.8533 280.017 59.96C280.689 60.152 281.254 60.3493 281.713 60.552C282.182 60.7547 282.534 61.0053 282.769 61.304C283.004 61.592 283.121 61.992 283.121 62.504C283.121 63.336 282.817 63.9867 282.209 64.456C281.601 64.9253 280.785 65.16 279.761 65.16ZM292.771 65H290.627V60.296C290.627 59.6453 290.499 59.16 290.243 58.84C289.998 58.52 289.656 58.36 289.219 58.36C288.963 58.36 288.691 58.4347 288.403 58.584C288.115 58.7333 287.854 58.9413 287.619 59.208C287.395 59.464 287.23 59.7627 287.123 60.104V65H284.979V53.32H287.123V58.168C287.432 57.6347 287.854 57.2187 288.387 56.92C288.92 56.6213 289.502 56.472 290.131 56.472C290.675 56.472 291.118 56.568 291.459 56.76C291.8 56.9413 292.067 57.192 292.259 57.512C292.451 57.8213 292.584 58.1733 292.659 58.568C292.734 58.952 292.771 59.352 292.771 59.768V65ZM295.035 65V56.616H297.179V65H295.035ZM295.035 55.448V53.32H297.179V55.448H295.035ZM304.538 65.16C303.887 65.16 303.311 65.016 302.81 64.728C302.319 64.4293 301.935 64.0293 301.658 63.528V68.408H299.514V56.616H301.386V58.056C301.706 57.5653 302.111 57.1813 302.602 56.904C303.092 56.616 303.652 56.472 304.282 56.472C304.847 56.472 305.364 56.584 305.834 56.808C306.314 57.032 306.73 57.3467 307.082 57.752C307.434 58.1467 307.706 58.6053 307.898 59.128C308.1 59.64 308.202 60.1947 308.202 60.792C308.202 61.6027 308.042 62.3387 307.722 63C307.412 63.6613 306.98 64.1893 306.426 64.584C305.882 64.968 305.252 65.16 304.538 65.16ZM303.818 63.336C304.148 63.336 304.447 63.2667 304.714 63.128C304.98 62.9893 305.21 62.8027 305.402 62.568C305.604 62.3227 305.754 62.0507 305.85 61.752C305.956 61.4427 306.01 61.1227 306.01 60.792C306.01 60.44 305.951 60.1147 305.834 59.816C305.727 59.5173 305.567 59.256 305.354 59.032C305.14 58.7973 304.89 58.616 304.602 58.488C304.324 58.36 304.02 58.296 303.69 58.296C303.487 58.296 303.279 58.3333 303.066 58.408C302.863 58.472 302.666 58.568 302.474 58.696C302.282 58.824 302.111 58.9733 301.962 59.144C301.823 59.3147 301.722 59.5013 301.658 59.704V61.672C301.786 61.9813 301.956 62.264 302.17 62.52C302.394 62.776 302.65 62.9787 302.938 63.128C303.226 63.2667 303.519 63.336 303.818 63.336ZM310.118 65V63.432H311.062V65H310.118Z" fill="black"/>
</svg>
