<svg width="456" height="60" viewBox="0 0 456 60" fill="none" xmlns="http://www.w3.org/2000/svg">
<path d="M1.48 30.04C1.48 27.32 2.10667 24.88 3.36 22.72C4.64 20.56 6.36 18.88 8.52 17.68C10.7067 16.4533 13.0933 15.84 15.68 15.84C18.64 15.84 21.2667 16.5733 23.56 18.04C25.88 19.48 27.56 21.5333 28.6 24.2H23.12C22.4 22.7333 21.4 21.64 20.12 20.92C18.84 20.2 17.36 19.84 15.68 19.84C13.84 19.84 12.2 20.2533 10.76 21.08C9.32 21.9067 8.18667 23.0933 7.36 24.64C6.56 26.1867 6.16 27.9867 6.16 30.04C6.16 32.0933 6.56 33.8933 7.36 35.44C8.18667 36.9867 9.32 38.1867 10.76 39.04C12.2 39.8667 13.84 40.28 15.68 40.28C17.36 40.28 18.84 39.92 20.12 39.2C21.4 38.48 22.4 37.3867 23.12 35.92H28.6C27.56 38.5867 25.88 40.64 23.56 42.08C21.2667 43.52 18.64 44.24 15.68 44.24C13.0667 44.24 10.68 43.64 8.52 42.44C6.36 41.2133 4.64 39.52 3.36 37.36C2.10667 35.2 1.48 32.76 1.48 30.04ZM44.4975 44.36C42.4175 44.36 40.5375 43.8933 38.8575 42.96C37.1775 42 35.8575 40.6667 34.8975 38.96C33.9375 37.2267 33.4575 35.2267 33.4575 32.96C33.4575 30.72 33.9508 28.7333 34.9375 27C35.9242 25.2667 37.2708 23.9333 38.9775 23C40.6842 22.0667 42.5908 21.6 44.6975 21.6C46.8042 21.6 48.7108 22.0667 50.4175 23C52.1242 23.9333 53.4708 25.2667 54.4575 27C55.4442 28.7333 55.9375 30.72 55.9375 32.96C55.9375 35.2 55.4308 37.1867 54.4175 38.92C53.4042 40.6533 52.0175 42 50.2575 42.96C48.5242 43.8933 46.6042 44.36 44.4975 44.36ZM44.4975 40.4C45.6708 40.4 46.7642 40.12 47.7775 39.56C48.8175 39 49.6575 38.16 50.2975 37.04C50.9375 35.92 51.2575 34.56 51.2575 32.96C51.2575 31.36 50.9508 30.0133 50.3375 28.92C49.7242 27.8 48.9108 26.96 47.8975 26.4C46.8842 25.84 45.7908 25.56 44.6175 25.56C43.4442 25.56 42.3508 25.84 41.3375 26.4C40.3508 26.96 39.5642 27.8 38.9775 28.92C38.3908 30.0133 38.0975 31.36 38.0975 32.96C38.0975 35.3333 38.6975 37.1733 39.8975 38.48C41.1242 39.76 42.6575 40.4 44.4975 40.4ZM72.5653 21.6C74.2986 21.6 75.8453 21.96 77.2053 22.68C78.592 23.4 79.672 24.4667 80.4453 25.88C81.2186 27.2933 81.6053 29 81.6053 31V44H77.0853V31.68C77.0853 29.7067 76.592 28.2 75.6053 27.16C74.6186 26.0933 73.272 25.56 71.5653 25.56C69.8586 25.56 68.4986 26.0933 67.4853 27.16C66.4986 28.2 66.0053 29.7067 66.0053 31.68V44H61.4453V21.96H66.0053V24.48C66.752 23.5733 67.6986 22.8667 68.8453 22.36C70.0186 21.8533 71.2586 21.6 72.5653 21.6ZM93.7419 25.68V37.88C93.7419 38.7067 93.9285 39.3067 94.3019 39.68C94.7019 40.0267 95.3685 40.2 96.3019 40.2H99.1019V44H95.5019C93.4485 44 91.8752 43.52 90.7819 42.56C89.6885 41.6 89.1419 40.04 89.1419 37.88V25.68H86.5419V21.96H89.1419V16.48H93.7419V21.96H99.1019V25.68H93.7419ZM102.785 32.88C102.785 30.6667 103.238 28.7067 104.145 27C105.078 25.2933 106.331 23.9733 107.905 23.04C109.505 22.08 111.265 21.6 113.185 21.6C114.918 21.6 116.425 21.9467 117.705 22.64C119.011 23.3067 120.051 24.1467 120.825 25.16V21.96H125.425V44H120.825V40.72C120.051 41.76 118.998 42.6267 117.665 43.32C116.331 44.0133 114.811 44.36 113.105 44.36C111.211 44.36 109.478 43.88 107.905 42.92C106.331 41.9333 105.078 40.5733 104.145 38.84C103.238 37.08 102.785 35.0933 102.785 32.88ZM120.825 32.96C120.825 31.44 120.505 30.12 119.865 29C119.251 27.88 118.438 27.0267 117.425 26.44C116.411 25.8533 115.318 25.56 114.145 25.56C112.971 25.56 111.878 25.8533 110.865 26.44C109.851 27 109.025 27.84 108.385 28.96C107.771 30.0533 107.465 31.36 107.465 32.88C107.465 34.4 107.771 35.7333 108.385 36.88C109.025 38.0267 109.851 38.9067 110.865 39.52C111.905 40.1067 112.998 40.4 114.145 40.4C115.318 40.4 116.411 40.1067 117.425 39.52C118.438 38.9333 119.251 38.08 119.865 36.96C120.505 35.8133 120.825 34.48 120.825 32.96ZM130.894 32.96C130.894 30.6933 131.347 28.7067 132.254 27C133.187 25.2667 134.467 23.9333 136.094 23C137.721 22.0667 139.587 21.6 141.694 21.6C144.361 21.6 146.561 22.24 148.294 23.52C150.054 24.7733 151.241 26.5733 151.854 28.92H146.934C146.534 27.8267 145.894 26.9733 145.014 26.36C144.134 25.7467 143.027 25.44 141.694 25.44C139.827 25.44 138.334 26.1067 137.214 27.44C136.121 28.7467 135.574 30.5867 135.574 32.96C135.574 35.3333 136.121 37.1867 137.214 38.52C138.334 39.8533 139.827 40.52 141.694 40.52C144.334 40.52 146.081 39.36 146.934 37.04H151.854C151.214 39.28 150.014 41.0667 148.254 42.4C146.494 43.7067 144.307 44.36 141.694 44.36C139.587 44.36 137.721 43.8933 136.094 42.96C134.467 42 133.187 40.6667 132.254 38.96C131.347 37.2267 130.894 35.2267 130.894 32.96ZM162.718 25.68V37.88C162.718 38.7067 162.905 39.3067 163.278 39.68C163.678 40.0267 164.345 40.2 165.278 40.2H168.078V44H164.478C162.425 44 160.852 43.52 159.758 42.56C158.665 41.6 158.118 40.04 158.118 37.88V25.68H155.518V21.96H158.118V16.48H162.718V21.96H168.078V25.68H162.718Z" fill="#0B0909"/>
<path d="M203 29L455 31" stroke="url(#paint0_linear_104_462)" stroke-width="2" stroke-linecap="round"/>
<defs>
<linearGradient id="paint0_linear_104_462" x1="329" y1="29" x2="329" y2="31" gradientUnits="userSpaceOnUse">
<stop stop-color="#FE9119"/>
<stop offset="1" stop-color="#ED250A"/>
</linearGradient>
</defs>
</svg>
