<svg width="564" height="47" viewBox="0 0 564 47" fill="none" xmlns="http://www.w3.org/2000/svg">
<path d="M1.15625 19.6821L13.304 14.8281L25.4517 19.6821L13.304 24.5361L1.15625 19.6821Z" stroke="url(#paint0_linear_157_657)" stroke-width="2.31143" stroke-linejoin="round"/>
<path d="M25.4492 19.7461V25.0757M6.67578 22.2396V29.4293C6.67578 29.4293 9.45528 32.1643 13.3015 32.1643C17.1483 32.1643 19.9278 29.4293 19.9278 29.4293V22.2396" stroke="url(#paint1_linear_157_657)" stroke-width="2.31143" stroke-linecap="round" stroke-linejoin="round"/>
<path d="M42.2267 16.2745V21.9329H48.8836V24.5124H42.2267V30.4204H49.7157V33H39.0647V13.6949H49.7157V16.2745H42.2267ZM53.2498 25.2891C53.2498 23.7543 53.5642 22.3951 54.1929 21.2117C54.8401 20.0282 55.7092 19.1129 56.8002 18.4657C57.9097 17.8 59.1394 17.4672 60.4893 17.4672C61.4878 17.4672 62.4678 17.6891 63.4294 18.1329C64.4094 18.5582 65.1861 19.1314 65.7593 19.8526V12.4745H68.9491V33H65.7593V30.6978C65.2416 31.4375 64.5204 32.0477 63.5958 32.5285C62.6897 33.0092 61.645 33.2496 60.4615 33.2496C59.1301 33.2496 57.9097 32.9168 56.8002 32.2511C55.7092 31.5669 54.8401 30.6238 54.1929 29.4219C53.5642 28.2015 53.2498 26.8239 53.2498 25.2891ZM65.7593 25.3445C65.7593 24.2905 65.5374 23.3752 65.0936 22.5986C64.6683 21.8219 64.1043 21.2302 63.4017 20.8234C62.699 20.4166 61.9408 20.2132 61.1272 20.2132C60.3136 20.2132 59.5554 20.4166 58.8528 20.8234C58.1501 21.2117 57.5769 21.7942 57.1331 22.5708C56.7078 23.329 56.4951 24.235 56.4951 25.2891C56.4951 26.3431 56.7078 27.2676 57.1331 28.0628C57.5769 28.8579 58.1501 29.4681 58.8528 29.8934C59.5739 30.3002 60.3321 30.5037 61.1272 30.5037C61.9408 30.5037 62.699 30.3002 63.4017 29.8934C64.1043 29.4866 64.6683 28.8949 65.0936 28.1183C65.5374 27.3231 65.7593 26.3986 65.7593 25.3445ZM87.6366 17.7168V33H84.4746V31.1971C83.9753 31.8258 83.3188 32.3251 82.5052 32.6949C81.7101 33.0462 80.8595 33.2219 79.9534 33.2219C78.7514 33.2219 77.6697 32.9723 76.7081 32.473C75.7651 31.9737 75.0162 31.2341 74.4614 30.254C73.9252 29.274 73.657 28.0905 73.657 26.7037V17.7168H76.7914V26.2321C76.7914 27.6005 77.1334 28.6545 77.8176 29.3942C78.5018 30.1153 79.4356 30.4759 80.6191 30.4759C81.8025 30.4759 82.7364 30.1153 83.4205 29.3942C84.1232 28.6545 84.4746 27.6005 84.4746 26.2321V17.7168H87.6366ZM91.4481 25.3445C91.4481 23.7728 91.7624 22.3951 92.3911 21.2117C93.0383 20.0098 93.9259 19.0852 95.0539 18.438C96.1819 17.7908 97.4763 17.4672 98.9371 17.4672C100.786 17.4672 102.312 17.911 103.514 18.7986C104.734 19.6677 105.557 20.9158 105.982 22.5431H102.571C102.293 21.7849 101.85 21.1932 101.239 20.7679C100.629 20.3426 99.8617 20.1299 98.9371 20.1299C97.6427 20.1299 96.6072 20.5922 95.8305 21.5168C95.0724 22.4229 94.6933 23.6988 94.6933 25.3445C94.6933 26.9903 95.0724 28.2754 95.8305 29.2C96.6072 30.1246 97.6427 30.5869 98.9371 30.5869C100.768 30.5869 101.979 29.7825 102.571 28.1737H105.982C105.539 29.727 104.706 30.9659 103.486 31.8905C102.266 32.7966 100.749 33.2496 98.9371 33.2496C97.4763 33.2496 96.1819 32.926 95.0539 32.2788C93.9259 31.6131 93.0383 30.6886 92.3911 29.5051C91.7624 28.3032 91.4481 26.9163 91.4481 25.3445ZM108.773 25.2891C108.773 23.7543 109.087 22.3951 109.716 21.2117C110.363 20.0282 111.232 19.1129 112.323 18.4657C113.433 17.8 114.653 17.4672 115.985 17.4672C117.187 17.4672 118.231 17.7076 119.119 18.1883C120.025 18.6506 120.746 19.2331 121.282 19.9358V17.7168H124.472V33H121.282V30.7256C120.746 31.4467 120.016 32.0477 119.091 32.5285C118.167 33.0092 117.113 33.2496 115.929 33.2496C114.616 33.2496 113.414 32.9168 112.323 32.2511C111.232 31.5669 110.363 30.6238 109.716 29.4219C109.087 28.2015 108.773 26.8239 108.773 25.2891ZM121.282 25.3445C121.282 24.2905 121.061 23.3752 120.617 22.5986C120.191 21.8219 119.627 21.2302 118.925 20.8234C118.222 20.4166 117.464 20.2132 116.65 20.2132C115.837 20.2132 115.079 20.4166 114.376 20.8234C113.673 21.2117 113.1 21.7942 112.656 22.5708C112.231 23.329 112.018 24.235 112.018 25.2891C112.018 26.3431 112.231 27.2676 112.656 28.0628C113.1 28.8579 113.673 29.4681 114.376 29.8934C115.097 30.3002 115.855 30.5037 116.65 30.5037C117.464 30.5037 118.222 30.3002 118.925 29.8934C119.627 29.4866 120.191 28.8949 120.617 28.1183C121.061 27.3231 121.282 26.3986 121.282 25.3445ZM133.008 20.2964V28.7562C133.008 29.3294 133.137 29.7455 133.396 30.0044C133.674 30.2448 134.136 30.365 134.783 30.365H136.725V33H134.228C132.804 33 131.714 32.6672 130.955 32.0015C130.197 31.3358 129.818 30.254 129.818 28.7562V20.2964H128.015V17.7168H129.818V13.9168H133.008V17.7168H136.725V20.2964H133.008ZM141.941 15.692C141.368 15.692 140.887 15.4978 140.499 15.1095C140.111 14.7212 139.916 14.2404 139.916 13.6672C139.916 13.0939 140.111 12.6132 140.499 12.2248C140.887 11.8365 141.368 11.6424 141.941 11.6424C142.496 11.6424 142.968 11.8365 143.356 12.2248C143.744 12.6132 143.938 13.0939 143.938 13.6672C143.938 14.2404 143.744 14.7212 143.356 15.1095C142.968 15.4978 142.496 15.692 141.941 15.692ZM143.495 17.7168V33H140.332V17.7168H143.495ZM154.969 33.2496C153.526 33.2496 152.223 32.926 151.058 32.2788C149.893 31.6131 148.977 30.6886 148.312 29.5051C147.646 28.3032 147.313 26.9163 147.313 25.3445C147.313 23.7913 147.655 22.4136 148.339 21.2117C149.024 20.0098 149.957 19.0852 151.141 18.438C152.324 17.7908 153.646 17.4672 155.107 17.4672C156.568 17.4672 157.89 17.7908 159.074 18.438C160.257 19.0852 161.191 20.0098 161.875 21.2117C162.559 22.4136 162.901 23.7913 162.901 25.3445C162.901 26.8978 162.55 28.2754 161.847 29.4774C161.145 30.6793 160.183 31.6131 158.963 32.2788C157.761 32.926 156.429 33.2496 154.969 33.2496ZM154.969 30.5037C155.782 30.5037 156.54 30.3095 157.243 29.9212C157.964 29.5329 158.547 28.9504 158.99 28.1737C159.434 27.3971 159.656 26.454 159.656 25.3445C159.656 24.235 159.444 23.3012 159.018 22.5431C158.593 21.7664 158.029 21.184 157.326 20.7956C156.624 20.4073 155.865 20.2132 155.052 20.2132C154.238 20.2132 153.48 20.4073 152.777 20.7956C152.093 21.184 151.548 21.7664 151.141 22.5431C150.734 23.3012 150.531 24.235 150.531 25.3445C150.531 26.9903 150.947 28.2662 151.779 29.1723C152.629 30.0599 153.693 30.5037 154.969 30.5037ZM174.432 17.4672C175.634 17.4672 176.706 17.7168 177.649 18.2161C178.611 18.7153 179.36 19.455 179.896 20.4351C180.432 21.4151 180.7 22.5986 180.7 23.9854V33H177.566V24.4569C177.566 23.0886 177.224 22.0438 176.54 21.3226C175.855 20.583 174.922 20.2132 173.738 20.2132C172.555 20.2132 171.612 20.583 170.909 21.3226C170.225 22.0438 169.883 23.0886 169.883 24.4569V33H166.721V17.7168H169.883V19.4643C170.401 18.8355 171.057 18.3455 171.852 17.9942C172.666 17.6428 173.526 17.4672 174.432 17.4672Z" fill="black"/>
<path d="M352.228 18.8807V16.5692C352.228 15.9562 352.472 15.3683 352.905 14.9348C353.339 14.5013 353.927 14.2578 354.54 14.2578H359.163C359.776 14.2578 360.364 14.5013 360.797 14.9348C361.231 15.3683 361.474 15.9562 361.474 16.5692V18.8807M347.605 25.815L351.246 26.7245C354.926 27.6444 358.776 27.6444 362.456 26.7245L366.097 25.815" stroke="url(#paint2_linear_157_657)" stroke-width="2.31143" stroke-linecap="round"/>
<path d="M347.605 21.1923C347.605 20.5793 347.849 19.9913 348.282 19.5579C348.716 19.1244 349.304 18.8809 349.917 18.8809H363.785C364.399 18.8809 364.986 19.1244 365.42 19.5579C365.853 19.9913 366.097 20.5793 366.097 21.1923V30.438C366.097 31.051 365.853 31.639 365.42 32.0724C364.986 32.5059 364.399 32.7495 363.785 32.7495H349.917C349.304 32.7495 348.716 32.5059 348.282 32.0724C347.849 31.639 347.605 31.051 347.605 30.438V21.1923Z" stroke="url(#paint3_linear_157_657)" stroke-width="2.31143" stroke-linejoin="round"/>
<path d="M356.847 24.6571C357.485 24.6571 358.003 24.1397 358.003 23.5014C358.003 22.8631 357.485 22.3457 356.847 22.3457C356.209 22.3457 355.691 22.8631 355.691 23.5014C355.691 24.1397 356.209 24.6571 356.847 24.6571Z" fill="url(#paint4_linear_157_657)"/>
<path d="M385.211 16.2745V21.9329H391.868V24.5124H385.211V30.4204H392.7V33H382.049V13.6949H392.7V16.2745H385.211ZM403.834 25.2613L408.771 33H405.193L401.893 27.8131L398.786 33H395.485L400.423 25.4832L395.485 17.7168H399.063L402.364 22.9037L405.471 17.7168H408.771L403.834 25.2613ZM414.985 19.9635C415.521 19.2608 416.252 18.6691 417.176 18.1883C418.101 17.7076 419.146 17.4672 420.311 17.4672C421.642 17.4672 422.853 17.8 423.944 18.4657C425.054 19.1129 425.923 20.0282 426.552 21.2117C427.18 22.3951 427.495 23.7543 427.495 25.2891C427.495 26.8239 427.18 28.2015 426.552 29.4219C425.923 30.6238 425.054 31.5669 423.944 32.2511C422.853 32.9168 421.642 33.2496 420.311 33.2496C419.146 33.2496 418.11 33.0185 417.204 32.5562C416.298 32.0754 415.558 31.4837 414.985 30.781V40.2671H411.823V17.7168H414.985V19.9635ZM424.277 25.2891C424.277 24.235 424.055 23.329 423.611 22.5708C423.186 21.7942 422.613 21.2117 421.892 20.8234C421.189 20.4166 420.431 20.2132 419.617 20.2132C418.822 20.2132 418.064 20.4166 417.343 20.8234C416.64 21.2302 416.067 21.8219 415.623 22.5986C415.198 23.3752 414.985 24.2905 414.985 25.3445C414.985 26.3986 415.198 27.3231 415.623 28.1183C416.067 28.8949 416.64 29.4866 417.343 29.8934C418.064 30.3002 418.822 30.5037 419.617 30.5037C420.431 30.5037 421.189 30.3002 421.892 29.8934C422.613 29.4681 423.186 28.8579 423.611 28.0628C424.055 27.2676 424.277 26.3431 424.277 25.2891ZM445.322 24.984C445.322 25.5572 445.285 26.0749 445.211 26.5372H433.534C433.626 27.7577 434.08 28.7377 434.893 29.4774C435.707 30.217 436.705 30.5869 437.889 30.5869C439.59 30.5869 440.792 29.8749 441.495 28.4511H444.906C444.444 29.8565 443.603 31.0122 442.382 31.9182C441.18 32.8058 439.682 33.2496 437.889 33.2496C436.428 33.2496 435.115 32.926 433.95 32.2788C432.804 31.6131 431.898 30.6886 431.232 29.5051C430.585 28.3032 430.261 26.9163 430.261 25.3445C430.261 23.7728 430.575 22.3951 431.204 21.2117C431.851 20.0098 432.748 19.0852 433.895 18.438C435.06 17.7908 436.391 17.4672 437.889 17.4672C439.331 17.4672 440.616 17.7815 441.744 18.4102C442.872 19.039 443.751 19.9265 444.379 21.073C445.008 22.201 445.322 23.5046 445.322 24.984ZM442.022 23.9854C442.003 22.8205 441.587 21.8866 440.773 21.184C439.96 20.4813 438.952 20.1299 437.75 20.1299C436.659 20.1299 435.725 20.4813 434.949 21.184C434.172 21.8681 433.71 22.802 433.562 23.9854H442.022ZM452.29 19.9358C452.752 19.1591 453.362 18.5582 454.12 18.1329C454.897 17.6891 455.812 17.4672 456.866 17.4672V20.7402H456.062C454.823 20.7402 453.88 21.0545 453.233 21.6832C452.604 22.3119 452.29 23.4029 452.29 24.9562V33H449.128V17.7168H452.29V19.9358ZM462.075 15.692C461.502 15.692 461.021 15.4978 460.633 15.1095C460.244 14.7212 460.05 14.2404 460.05 13.6672C460.05 13.0939 460.244 12.6132 460.633 12.2248C461.021 11.8365 461.502 11.6424 462.075 11.6424C462.63 11.6424 463.101 11.8365 463.49 12.2248C463.878 12.6132 464.072 13.0939 464.072 13.6672C464.072 14.2404 463.878 14.7212 463.49 15.1095C463.101 15.4978 462.63 15.692 462.075 15.692ZM463.628 17.7168V33H460.466V17.7168H463.628ZM482.48 24.984C482.48 25.5572 482.443 26.0749 482.369 26.5372H470.692C470.785 27.7577 471.238 28.7377 472.051 29.4774C472.865 30.217 473.863 30.5869 475.047 30.5869C476.748 30.5869 477.95 29.8749 478.653 28.4511H482.064C481.602 29.8565 480.761 31.0122 479.54 31.9182C478.338 32.8058 476.841 33.2496 475.047 33.2496C473.586 33.2496 472.273 32.926 471.108 32.2788C469.962 31.6131 469.056 30.6886 468.39 29.5051C467.743 28.3032 467.419 26.9163 467.419 25.3445C467.419 23.7728 467.733 22.3951 468.362 21.2117C469.009 20.0098 469.906 19.0852 471.053 18.438C472.218 17.7908 473.549 17.4672 475.047 17.4672C476.489 17.4672 477.774 17.7815 478.902 18.4102C480.03 19.039 480.909 19.9265 481.537 21.073C482.166 22.201 482.48 23.5046 482.48 24.984ZM479.18 23.9854C479.161 22.8205 478.745 21.8866 477.931 21.184C477.118 20.4813 476.11 20.1299 474.908 20.1299C473.817 20.1299 472.883 20.4813 472.107 21.184C471.33 21.8681 470.868 22.802 470.72 23.9854H479.18ZM493.997 17.4672C495.198 17.4672 496.271 17.7168 497.214 18.2161C498.176 18.7153 498.924 19.455 499.461 20.4351C499.997 21.4151 500.265 22.5986 500.265 23.9854V33H497.131V24.4569C497.131 23.0886 496.789 22.0438 496.105 21.3226C495.42 20.583 494.487 20.2132 493.303 20.2132C492.12 20.2132 491.177 20.583 490.474 21.3226C489.79 22.0438 489.448 23.0886 489.448 24.4569V33H486.286V17.7168H489.448V19.4643C489.965 18.8355 490.622 18.3455 491.417 17.9942C492.231 17.6428 493.09 17.4672 493.997 17.4672ZM503.938 25.3445C503.938 23.7728 504.252 22.3951 504.881 21.2117C505.528 20.0098 506.416 19.0852 507.544 18.438C508.672 17.7908 509.966 17.4672 511.427 17.4672C513.276 17.4672 514.802 17.911 516.004 18.7986C517.224 19.6677 518.047 20.9158 518.472 22.5431H515.061C514.783 21.7849 514.339 21.1932 513.729 20.7679C513.119 20.3426 512.352 20.1299 511.427 20.1299C510.133 20.1299 509.097 20.5922 508.32 21.5168C507.562 22.4229 507.183 23.6988 507.183 25.3445C507.183 26.9903 507.562 28.2754 508.32 29.2C509.097 30.1246 510.133 30.5869 511.427 30.5869C513.258 30.5869 514.469 29.7825 515.061 28.1737H518.472C518.028 29.727 517.196 30.9659 515.976 31.8905C514.755 32.7966 513.239 33.2496 511.427 33.2496C509.966 33.2496 508.672 32.926 507.544 32.2788C506.416 31.6131 505.528 30.6886 504.881 29.5051C504.252 28.3032 503.938 26.9163 503.938 25.3445ZM536.324 24.984C536.324 25.5572 536.287 26.0749 536.213 26.5372H524.536C524.628 27.7577 525.081 28.7377 525.895 29.4774C526.709 30.217 527.707 30.5869 528.891 30.5869C530.592 30.5869 531.794 29.8749 532.496 28.4511H535.908C535.446 29.8565 534.604 31.0122 533.384 31.9182C532.182 32.8058 530.684 33.2496 528.891 33.2496C527.43 33.2496 526.117 32.926 524.952 32.2788C523.805 31.6131 522.899 30.6886 522.234 29.5051C521.586 28.3032 521.263 26.9163 521.263 25.3445C521.263 23.7728 521.577 22.3951 522.206 21.2117C522.853 20.0098 523.75 19.0852 524.896 18.438C526.061 17.7908 527.393 17.4672 528.891 17.4672C530.333 17.4672 531.618 17.7815 532.746 18.4102C533.874 19.039 534.752 19.9265 535.381 21.073C536.01 22.201 536.324 23.5046 536.324 24.984ZM533.023 23.9854C533.005 22.8205 532.589 21.8866 531.775 21.184C530.962 20.4813 529.954 20.1299 528.752 20.1299C527.661 20.1299 526.727 20.4813 525.95 21.184C525.174 21.8681 524.711 22.802 524.564 23.9854H533.023Z" fill="black"/>
<defs>
<linearGradient id="paint0_linear_157_657" x1="13.304" y1="14.8281" x2="13.304" y2="24.5361" gradientUnits="userSpaceOnUse">
<stop stop-color="#FF9C1B"/>
<stop offset="1" stop-color="#EC1B09"/>
</linearGradient>
<linearGradient id="paint1_linear_157_657" x1="16.0625" y1="19.7461" x2="16.0625" y2="32.1643" gradientUnits="userSpaceOnUse">
<stop stop-color="#FF9C1B"/>
<stop offset="1" stop-color="#EC1B09"/>
</linearGradient>
<linearGradient id="paint2_linear_157_657" x1="356.851" y1="14.2578" x2="356.851" y2="27.4144" gradientUnits="userSpaceOnUse">
<stop stop-color="#FF9C1A"/>
<stop offset="1" stop-color="#E80505"/>
</linearGradient>
<linearGradient id="paint3_linear_157_657" x1="356.851" y1="18.8809" x2="356.851" y2="32.7495" gradientUnits="userSpaceOnUse">
<stop stop-color="#FF9C1A"/>
<stop offset="1" stop-color="#E80505"/>
</linearGradient>
<linearGradient id="paint4_linear_157_657" x1="356.847" y1="22.3457" x2="356.847" y2="24.6571" gradientUnits="userSpaceOnUse">
<stop stop-color="#FF9C1A"/>
<stop offset="1" stop-color="#E80505"/>
</linearGradient>
</defs>
</svg>
