<svg width="32" height="29" viewBox="0 0 32 29" fill="none" xmlns="http://www.w3.org/2000/svg">
<g filter="url(#filter0_d_108_564)">
<path d="M15.7078 13.0953C15.0478 13.0953 14.5078 12.5553 14.5078 11.8953C14.5078 11.2353 15.0478 10.6953 15.7078 10.6953C16.3678 10.6953 16.9078 11.2353 16.9078 11.8953C16.9078 12.5553 16.3678 13.0953 15.7078 13.0953Z" fill="url(#paint0_linear_108_564)"/>
<path d="M16 17.25C17.3924 17.25 18.7277 16.6969 19.7123 15.7123C20.6969 14.7277 21.25 13.3924 21.25 12C21.25 10.6076 20.6969 9.27226 19.7123 8.28769C18.7277 7.30312 17.3924 6.75 16 6.75C14.6076 6.75 13.2723 7.30312 12.2877 8.28769C11.3031 9.27226 10.75 10.6076 10.75 12C10.75 13.3924 11.3031 14.7277 12.2877 15.7123C13.2723 16.6969 14.6076 17.25 16 17.25ZM16 8.625C17.8375 8.6475 19.33 10.185 19.33 12.0375V12.645C19.33 13.3125 18.7825 13.86 18.115 13.86C17.6575 13.86 17.26 13.605 17.05 13.23C16.705 13.575 16.225 13.7925 15.7 13.7925C14.65 13.7925 13.795 12.9375 13.795 11.8875C13.795 10.8375 14.65 9.9825 15.7 9.9825C16.1575 9.9825 16.57 10.1475 16.9 10.41V10.3425C16.9 10.1475 17.0725 9.99 17.2675 9.99C17.4625 9.99 17.62 10.1475 17.62 10.3425V12.6525C17.62 12.7858 17.6729 12.9136 17.7672 13.0078C17.8614 13.1021 17.9892 13.155 18.1225 13.155C18.2558 13.155 18.3836 13.1021 18.4778 13.0078C18.5721 12.9136 18.625 12.7858 18.625 12.6525V12.045C18.625 10.5675 17.44 9.3525 15.9925 9.33C15.2725 9.33 14.59 9.6 14.08 10.1025C13.57 10.605 13.285 11.28 13.285 12C13.285 13.47 14.485 14.67 15.955 14.67C16.0485 14.67 16.1381 14.7071 16.2043 14.7732C16.2704 14.8394 16.3075 14.929 16.3075 15.0225C16.3075 15.116 16.2704 15.2056 16.2043 15.2718C16.1381 15.3379 16.0485 15.375 15.955 15.375C14.095 15.375 12.58 13.86 12.58 12C12.58 11.0925 12.9325 10.2375 13.585 9.6C14.23 8.955 15.0925 8.61 16 8.625Z" fill="url(#paint1_linear_108_564)"/>
<path d="M4.75 5.2575C4.75 4.4235 5.4235 3.75 6.2575 3.75H25.75C26.5818 3.75 27.25 4.428 27.25 5.2575V18.75C27.25 19.5817 26.572 20.25 25.7425 20.25H6.2575C6.05945 20.2503 5.86329 20.2115 5.68026 20.1359C5.49722 20.0602 5.33092 19.9492 5.19088 19.8091C5.05083 19.6691 4.9398 19.5028 4.86415 19.3197C4.7885 19.1367 4.74971 18.9406 4.75 18.7425V5.2575ZM6.25 5.25375V5.6265L11.0125 8.661C10.731 9.07989 10.5037 9.53274 10.336 10.0087L6.25 7.40475V17.01L10.465 14.3243C10.6596 14.7872 10.9115 15.2239 11.215 15.624L6.31 18.75H25.7013L20.7835 15.6202C21.0871 15.2197 21.3391 14.7825 21.5335 14.319L25.75 17.0033V7.41L21.661 10.0125C21.4938 9.53632 21.267 9.08322 20.986 8.664L25.75 5.63325V5.25225L25.747 5.25H6.25375L6.2515 5.2515L6.25075 5.253L6.25 5.25375Z" fill="url(#paint2_linear_108_564)"/>
</g>
<defs>
<filter id="filter0_d_108_564" x="0" y="0" width="32" height="32" filterUnits="userSpaceOnUse" color-interpolation-filters="sRGB">
<feFlood flood-opacity="0" result="BackgroundImageFix"/>
<feColorMatrix in="SourceAlpha" type="matrix" values="0 0 0 0 0 0 0 0 0 0 0 0 0 0 0 0 0 0 127 0" result="hardAlpha"/>
<feOffset dy="4"/>
<feGaussianBlur stdDeviation="2"/>
<feComposite in2="hardAlpha" operator="out"/>
<feColorMatrix type="matrix" values="0 0 0 0 0 0 0 0 0 0 0 0 0 0 0 0 0 0 0.25 0"/>
<feBlend mode="normal" in2="BackgroundImageFix" result="effect1_dropShadow_108_564"/>
<feBlend mode="normal" in="SourceGraphic" in2="effect1_dropShadow_108_564" result="shape"/>
</filter>
<linearGradient id="paint0_linear_108_564" x1="15.7078" y1="10.6953" x2="15.7078" y2="13.0953" gradientUnits="userSpaceOnUse">
<stop stop-color="#FF961A"/>
<stop offset="1" stop-color="#EC1908"/>
</linearGradient>
<linearGradient id="paint1_linear_108_564" x1="16" y1="6.75" x2="16" y2="17.25" gradientUnits="userSpaceOnUse">
<stop stop-color="#FF961A"/>
<stop offset="1" stop-color="#EC1908"/>
</linearGradient>
<linearGradient id="paint2_linear_108_564" x1="16" y1="3.75" x2="16" y2="20.25" gradientUnits="userSpaceOnUse">
<stop stop-color="#FF961A"/>
<stop offset="1" stop-color="#EC1908"/>
</linearGradient>
</defs>
</svg>
