<svg width="182" height="40" viewBox="0 0 182 40" fill="none" xmlns="http://www.w3.org/2000/svg">
<g clip-path="url(#clip0_43_121)">
<path d="M9.75008 24.5C9.63804 24.5 9.52601 24.5164 9.41914 24.5511C8.81164 24.7484 8.17273 24.875 7.50008 24.875C6.82742 24.875 6.18851 24.7484 5.58054 24.5511C5.47367 24.5164 5.36211 24.5 5.25008 24.5C2.34101 24.5 -0.015393 26.8662 7.57256e-05 29.7791C0.00663823 31.01 1.01867 32 2.25008 32H12.7501C13.9815 32 14.9935 31.01 15.0001 29.7791C15.0155 26.8662 12.6591 24.5 9.75008 24.5ZM7.50008 23C9.98539 23 12.0001 20.9853 12.0001 18.5C12.0001 16.0147 9.98539 14 7.50008 14C5.01476 14 3.00008 16.0147 3.00008 18.5C3.00008 20.9853 5.01476 23 7.50008 23ZM27.7501 8H9.75008C8.50929 8 7.50008 9.04297 7.50008 10.3245V12.5C8.59789 12.5 9.61414 12.8178 10.5001 13.3344V11H27.0001V24.5H24.0001V21.5H18.0001V24.5H14.4263C15.3216 25.2823 15.9788 26.3155 16.2868 27.5H27.7501C28.9909 27.5 30.0001 26.457 30.0001 25.1755V10.3245C30.0001 9.04297 28.9909 8 27.7501 8Z" fill="#E80505"/>
</g>
<path d="M57.92 11.248V28H54.56V17.104L50.072 28H47.528L43.016 17.104V28H39.656V11.248H43.472L48.8 23.704L54.128 11.248H57.92ZM74.2019 21.064C74.2019 21.544 74.1699 21.976 74.1059 22.36H64.3859C64.4659 23.32 64.8019 24.072 65.3939 24.616C65.9859 25.16 66.7139 25.432 67.5779 25.432C68.8259 25.432 69.7139 24.896 70.2419 23.824H73.8659C73.4819 25.104 72.7459 26.16 71.6579 26.992C70.5699 27.808 69.2339 28.216 67.6499 28.216C66.3699 28.216 65.2179 27.936 64.1939 27.376C63.1859 26.8 62.3939 25.992 61.8179 24.952C61.2579 23.912 60.9779 22.712 60.9779 21.352C60.9779 19.976 61.2579 18.768 61.8179 17.728C62.3779 16.688 63.1619 15.888 64.1699 15.328C65.1779 14.768 66.3379 14.488 67.6499 14.488C68.9139 14.488 70.0419 14.76 71.0339 15.304C72.0419 15.848 72.8179 16.624 73.3619 17.632C73.9219 18.624 74.2019 19.768 74.2019 21.064ZM70.7219 20.104C70.7059 19.24 70.3939 18.552 69.7859 18.04C69.1779 17.512 68.4339 17.248 67.5539 17.248C66.7219 17.248 66.0179 17.504 65.4419 18.016C64.8819 18.512 64.5379 19.208 64.4099 20.104H70.7219ZM84.6224 14.512C86.2064 14.512 87.4864 15.016 88.4624 16.024C89.4384 17.016 89.9264 18.408 89.9264 20.2V28H86.5664V20.656C86.5664 19.6 86.3024 18.792 85.7744 18.232C85.2464 17.656 84.5264 17.368 83.6144 17.368C82.6864 17.368 81.9504 17.656 81.4064 18.232C80.8784 18.792 80.6144 19.6 80.6144 20.656V28H77.2544V14.704H80.6144V16.36C81.0624 15.784 81.6304 15.336 82.3184 15.016C83.0224 14.68 83.7904 14.512 84.6224 14.512ZM97.6336 17.464V23.896C97.6336 24.344 97.7376 24.672 97.9456 24.88C98.1696 25.072 98.5376 25.168 99.0496 25.168H100.61V28H98.4976C95.6656 28 94.2496 26.624 94.2496 23.872V17.464H92.6656V14.704H94.2496V11.416H97.6336V14.704H100.61V17.464H97.6336ZM109.53 28.216C108.25 28.216 107.098 27.936 106.074 27.376C105.05 26.8 104.242 25.992 103.65 24.952C103.074 23.912 102.786 22.712 102.786 21.352C102.786 19.992 103.082 18.792 103.674 17.752C104.282 16.712 105.106 15.912 106.146 15.352C107.186 14.776 108.346 14.488 109.626 14.488C110.906 14.488 112.066 14.776 113.106 15.352C114.146 15.912 114.962 16.712 115.554 17.752C116.162 18.792 116.466 19.992 116.466 21.352C116.466 22.712 116.154 23.912 115.53 24.952C114.922 25.992 114.09 26.8 113.034 27.376C111.994 27.936 110.826 28.216 109.53 28.216ZM109.53 25.288C110.138 25.288 110.706 25.144 111.234 24.856C111.778 24.552 112.21 24.104 112.53 23.512C112.85 22.92 113.01 22.2 113.01 21.352C113.01 20.088 112.674 19.12 112.002 18.448C111.346 17.76 110.538 17.416 109.578 17.416C108.618 17.416 107.81 17.76 107.154 18.448C106.514 19.12 106.194 20.088 106.194 21.352C106.194 22.616 106.506 23.592 107.13 24.28C107.77 24.952 108.57 25.288 109.53 25.288ZM122.891 16.768C123.323 16.064 123.883 15.512 124.571 15.112C125.275 14.712 126.075 14.512 126.971 14.512V18.04H126.083C125.027 18.04 124.227 18.288 123.683 18.784C123.155 19.28 122.891 20.144 122.891 21.376V28H119.531V14.704H122.891V16.768ZM134.922 28.216C133.834 28.216 132.858 28.024 131.994 27.64C131.13 27.24 130.442 26.704 129.93 26.032C129.434 25.36 129.162 24.616 129.114 23.8H132.498C132.562 24.312 132.81 24.736 133.242 25.072C133.69 25.408 134.242 25.576 134.898 25.576C135.538 25.576 136.034 25.448 136.386 25.192C136.754 24.936 136.938 24.608 136.938 24.208C136.938 23.776 136.714 23.456 136.266 23.248C135.834 23.024 135.138 22.784 134.178 22.528C133.186 22.288 132.37 22.04 131.73 21.784C131.106 21.528 130.562 21.136 130.098 20.608C129.65 20.08 129.426 19.368 129.426 18.472C129.426 17.736 129.634 17.064 130.05 16.456C130.482 15.848 131.09 15.368 131.874 15.016C132.674 14.664 133.61 14.488 134.682 14.488C136.266 14.488 137.53 14.888 138.474 15.688C139.418 16.472 139.938 17.536 140.034 18.88H136.818C136.77 18.352 136.546 17.936 136.146 17.632C135.762 17.312 135.242 17.152 134.586 17.152C133.978 17.152 133.506 17.264 133.17 17.488C132.85 17.712 132.69 18.024 132.69 18.424C132.69 18.872 132.914 19.216 133.362 19.456C133.81 19.68 134.506 19.912 135.45 20.152C136.41 20.392 137.202 20.64 137.826 20.896C138.45 21.152 138.986 21.552 139.434 22.096C139.898 22.624 140.138 23.328 140.154 24.208C140.154 24.976 139.938 25.664 139.506 26.272C139.09 26.88 138.482 27.36 137.682 27.712C136.898 28.048 135.978 28.216 134.922 28.216ZM151 14.512C152.008 14.512 152.904 14.736 153.688 15.184C154.472 15.616 155.08 16.264 155.512 17.128C155.96 17.976 156.184 19 156.184 20.2V28H152.824V20.656C152.824 19.6 152.56 18.792 152.032 18.232C151.504 17.656 150.784 17.368 149.872 17.368C148.944 17.368 148.208 17.656 147.664 18.232C147.136 18.792 146.872 19.6 146.872 20.656V28H143.512V10.24H146.872V16.36C147.304 15.784 147.88 15.336 148.6 15.016C149.32 14.68 150.12 14.512 151 14.512ZM161.683 13.12C161.091 13.12 160.595 12.936 160.195 12.568C159.811 12.184 159.619 11.712 159.619 11.152C159.619 10.592 159.811 10.128 160.195 9.76C160.595 9.376 161.091 9.184 161.683 9.184C162.275 9.184 162.763 9.376 163.147 9.76C163.547 10.128 163.747 10.592 163.747 11.152C163.747 11.712 163.547 12.184 163.147 12.568C162.763 12.936 162.275 13.12 161.683 13.12ZM163.339 14.704V28H159.979V14.704H163.339ZM170.619 16.624C171.051 16.016 171.643 15.512 172.395 15.112C173.163 14.696 174.035 14.488 175.011 14.488C176.147 14.488 177.171 14.768 178.083 15.328C179.011 15.888 179.739 16.688 180.267 17.728C180.811 18.752 181.083 19.944 181.083 21.304C181.083 22.664 180.811 23.872 180.267 24.928C179.739 25.968 179.011 26.776 178.083 27.352C177.171 27.928 176.147 28.216 175.011 28.216C174.035 28.216 173.171 28.016 172.419 27.616C171.683 27.216 171.083 26.712 170.619 26.104V34.336H167.259V14.704H170.619V16.624ZM177.651 21.304C177.651 20.504 177.483 19.816 177.147 19.24C176.827 18.648 176.395 18.2 175.851 17.896C175.323 17.592 174.747 17.44 174.123 17.44C173.515 17.44 172.939 17.6 172.395 17.92C171.867 18.224 171.435 18.672 171.099 19.264C170.779 19.856 170.619 20.552 170.619 21.352C170.619 22.152 170.779 22.848 171.099 23.44C171.435 24.032 171.867 24.488 172.395 24.808C172.939 25.112 173.515 25.264 174.123 25.264C174.747 25.264 175.323 25.104 175.851 24.784C176.395 24.464 176.827 24.008 177.147 23.416C177.483 22.824 177.651 22.12 177.651 21.304Z" fill="black"/>
<defs>
<clipPath id="clip0_43_121">
<rect width="30" height="24" fill="white" transform="translate(0 8)"/>
</clipPath>
</defs>
</svg>
