<svg width="454" height="60" viewBox="0 0 454 60" fill="none" xmlns="http://www.w3.org/2000/svg">
<path d="M17.44 44L11.04 32.88H7.56V44H3V16.2H12.6C14.7333 16.2 16.5333 16.5733 18 17.32C19.4933 18.0667 20.6 19.0667 21.32 20.32C22.0667 21.5733 22.44 22.9733 22.44 24.52C22.44 26.3333 21.9067 27.9867 20.84 29.48C19.8 30.9467 18.1867 31.9467 16 32.48L22.88 44H17.44ZM7.56 29.24H12.6C14.3067 29.24 15.5867 28.8133 16.44 27.96C17.32 27.1067 17.76 25.96 17.76 24.52C17.76 23.08 17.3333 21.96 16.48 21.16C15.6267 20.3333 14.3333 19.92 12.6 19.92H7.56V29.24ZM49.4734 32.44C49.4734 33.2667 49.4201 34.0133 49.3134 34.68H32.4734C32.6068 36.44 33.2601 37.8533 34.4334 38.92C35.6068 39.9867 37.0468 40.52 38.7534 40.52C41.2068 40.52 42.9401 39.4933 43.9534 37.44H48.8734C48.2068 39.4667 46.9934 41.1333 45.2334 42.44C43.5001 43.72 41.3401 44.36 38.7534 44.36C36.6468 44.36 34.7534 43.8933 33.0734 42.96C31.4201 42 30.1134 40.6667 29.1534 38.96C28.2201 37.2267 27.7534 35.2267 27.7534 32.96C27.7534 30.6933 28.2068 28.7067 29.1134 27C30.0468 25.2667 31.3401 23.9333 32.9934 23C34.6734 22.0667 36.5934 21.6 38.7534 21.6C40.8334 21.6 42.6868 22.0533 44.3134 22.96C45.9401 23.8667 47.2068 25.1467 48.1134 26.8C49.0201 28.4267 49.4734 30.3067 49.4734 32.44ZM44.7134 31C44.6868 29.32 44.0868 27.9733 42.9134 26.96C41.7401 25.9467 40.2868 25.44 38.5534 25.44C36.9801 25.44 35.6334 25.9467 34.5134 26.96C33.3934 27.9467 32.7268 29.2933 32.5134 31H44.7134ZM62.9609 44.36C61.2276 44.36 59.6676 44.0533 58.2809 43.44C56.9209 42.8 55.8409 41.9467 55.0409 40.88C54.2409 39.7867 53.8143 38.5733 53.7609 37.24H58.4809C58.5609 38.1733 59.0009 38.96 59.8009 39.6C60.6276 40.2133 61.6543 40.52 62.8809 40.52C64.1609 40.52 65.1476 40.28 65.8409 39.8C66.5609 39.2933 66.9209 38.6533 66.9209 37.88C66.9209 37.0533 66.5209 36.44 65.7209 36.04C64.9476 35.64 63.7076 35.2 62.0009 34.72C60.3476 34.2667 59.0009 33.8267 57.9609 33.4C56.9209 32.9733 56.0143 32.32 55.2409 31.44C54.4943 30.56 54.1209 29.4 54.1209 27.96C54.1209 26.7867 54.4676 25.72 55.1609 24.76C55.8543 23.7733 56.8409 23 58.1209 22.44C59.4276 21.88 60.9209 21.6 62.6009 21.6C65.1076 21.6 67.1209 22.24 68.6409 23.52C70.1876 24.7733 71.0143 26.4933 71.1209 28.68H66.5609C66.4809 27.6933 66.0809 26.9067 65.3609 26.32C64.6409 25.7333 63.6676 25.44 62.4409 25.44C61.2409 25.44 60.3209 25.6667 59.6809 26.12C59.0409 26.5733 58.7209 27.1733 58.7209 27.92C58.7209 28.5067 58.9343 29 59.3609 29.4C59.7876 29.8 60.3076 30.12 60.9209 30.36C61.5343 30.5733 62.4409 30.8533 63.6409 31.2C65.2409 31.6267 66.5476 32.0667 67.5609 32.52C68.6009 32.9467 69.4943 33.5867 70.2409 34.44C70.9876 35.2933 71.3743 36.4267 71.4009 37.84C71.4009 39.0933 71.0543 40.2133 70.3609 41.2C69.6676 42.1867 68.6809 42.96 67.4009 43.52C66.1476 44.08 64.6676 44.36 62.9609 44.36ZM97.2881 21.96V44H92.7281V41.4C92.0081 42.3067 91.0615 43.0267 89.8881 43.56C88.7415 44.0667 87.5148 44.32 86.2081 44.32C84.4748 44.32 82.9148 43.96 81.5281 43.24C80.1681 42.52 79.0881 41.4533 78.2881 40.04C77.5148 38.6267 77.1281 36.92 77.1281 34.92V21.96H81.6481V34.24C81.6481 36.2133 82.1415 37.7333 83.1281 38.8C84.1148 39.84 85.4615 40.36 87.1681 40.36C88.8748 40.36 90.2215 39.84 91.2081 38.8C92.2215 37.7333 92.7281 36.2133 92.7281 34.24V21.96H97.2881ZM130.985 21.6C132.718 21.6 134.265 21.96 135.625 22.68C137.011 23.4 138.091 24.4667 138.865 25.88C139.665 27.2933 140.065 29 140.065 31V44H135.545V31.68C135.545 29.7067 135.051 28.2 134.065 27.16C133.078 26.0933 131.731 25.56 130.025 25.56C128.318 25.56 126.958 26.0933 125.945 27.16C124.958 28.2 124.465 29.7067 124.465 31.68V44H119.945V31.68C119.945 29.7067 119.451 28.2 118.465 27.16C117.478 26.0933 116.131 25.56 114.425 25.56C112.718 25.56 111.358 26.0933 110.345 27.16C109.358 28.2 108.865 29.7067 108.865 31.68V44H104.305V21.96H108.865V24.48C109.611 23.5733 110.558 22.8667 111.705 22.36C112.851 21.8533 114.078 21.6 115.385 21.6C117.145 21.6 118.718 21.9733 120.105 22.72C121.491 23.4667 122.558 24.5467 123.305 25.96C123.971 24.6267 125.011 23.5733 126.425 22.8C127.838 22 129.358 21.6 130.985 21.6ZM167.067 32.44C167.067 33.2667 167.014 34.0133 166.907 34.68H150.067C150.201 36.44 150.854 37.8533 152.027 38.92C153.201 39.9867 154.641 40.52 156.347 40.52C158.801 40.52 160.534 39.4933 161.547 37.44H166.467C165.801 39.4667 164.587 41.1333 162.827 42.44C161.094 43.72 158.934 44.36 156.347 44.36C154.241 44.36 152.347 43.8933 150.667 42.96C149.014 42 147.707 40.6667 146.747 38.96C145.814 37.2267 145.347 35.2267 145.347 32.96C145.347 30.6933 145.801 28.7067 146.707 27C147.641 25.2667 148.934 23.9333 150.587 23C152.267 22.0667 154.187 21.6 156.347 21.6C158.427 21.6 160.281 22.0533 161.907 22.96C163.534 23.8667 164.801 25.1467 165.707 26.8C166.614 28.4267 167.067 30.3067 167.067 32.44ZM162.307 31C162.281 29.32 161.681 27.9733 160.507 26.96C159.334 25.9467 157.881 25.44 156.147 25.44C154.574 25.44 153.227 25.9467 152.107 26.96C150.987 27.9467 150.321 29.2933 150.107 31H162.307Z" fill="#0B0909"/>
<path d="M201 29L453 31" stroke="url(#paint0_linear_104_194)" stroke-width="2" stroke-linecap="round"/>
<defs>
<linearGradient id="paint0_linear_104_194" x1="327" y1="29" x2="327" y2="31" gradientUnits="userSpaceOnUse">
<stop stop-color="#FE9119"/>
<stop offset="1" stop-color="#ED250A"/>
</linearGradient>
</defs>
</svg>
