<svg width="492" height="47" viewBox="0 0 492 47" fill="none" xmlns="http://www.w3.org/2000/svg">
<path d="M27.1824 13.7227L21.4686 33H17.8905L13.8409 18.4102L9.54159 33L5.99123 33.0277L0.527007 13.7227H3.88321L7.87736 29.4219L12.2044 13.7227H15.7547L19.7766 29.3387L23.7985 13.7227H27.1824ZM37.113 33.2496C35.6707 33.2496 34.367 32.926 33.2021 32.2788C32.0371 31.6131 31.1218 30.6886 30.4561 29.5051C29.7904 28.3032 29.4575 26.9163 29.4575 25.3445C29.4575 23.7913 29.7996 22.4136 30.4838 21.2117C31.168 20.0098 32.1018 19.0852 33.2853 18.438C34.4687 17.7908 35.7909 17.4672 37.2517 17.4672C38.7125 17.4672 40.0347 17.7908 41.2181 18.438C42.4016 19.0852 43.3354 20.0098 44.0196 21.2117C44.7037 22.4136 45.0458 23.7913 45.0458 25.3445C45.0458 26.8978 44.6945 28.2754 43.9918 29.4774C43.2891 30.6793 42.3276 31.6131 41.1072 32.2788C39.9052 32.926 38.5738 33.2496 37.113 33.2496ZM37.113 30.5037C37.9266 30.5037 38.6848 30.3095 39.3875 29.9212C40.1086 29.5329 40.6911 28.9504 41.1349 28.1737C41.5787 27.3971 41.8006 26.454 41.8006 25.3445C41.8006 24.235 41.5879 23.3012 41.1626 22.5431C40.7373 21.7664 40.1733 21.184 39.4707 20.7956C38.768 20.4073 38.0098 20.2132 37.1962 20.2132C36.3826 20.2132 35.6244 20.4073 34.9218 20.7956C34.2376 21.184 33.6921 21.7664 33.2853 22.5431C32.8785 23.3012 32.6751 24.235 32.6751 25.3445C32.6751 26.9903 33.0911 28.2662 33.9232 29.1723C34.7738 30.0599 35.8371 30.5037 37.113 30.5037ZM52.0272 19.9358C52.4894 19.1591 53.0997 18.5582 53.8578 18.1329C54.6345 17.6891 55.5498 17.4672 56.6038 17.4672V20.7402H55.7994C54.5605 20.7402 53.6174 21.0545 52.9702 21.6832C52.3415 22.3119 52.0272 23.4029 52.0272 24.9562V33H48.8651V17.7168H52.0272V19.9358ZM66.2505 25.3723L73.2957 33H69.0242L63.3658 26.4263V33H60.2038V12.4745H63.3658V24.4015L68.9133 17.7168H73.2957L66.2505 25.3723ZM90.506 33.1942C89.2116 33.1942 88.0466 32.9723 87.0111 32.5285C85.9756 32.0662 85.162 31.419 84.5702 30.5869C83.9785 29.7547 83.6826 28.7839 83.6826 27.6745H87.0666C87.1405 28.5066 87.4642 29.1908 88.0374 29.727C88.6291 30.2633 89.452 30.5314 90.506 30.5314C91.597 30.5314 92.4476 30.2725 93.0578 29.7547C93.668 29.2185 93.9731 28.5343 93.9731 27.7022C93.9731 27.055 93.779 26.528 93.3907 26.1212C93.0208 25.7144 92.5493 25.4 91.9761 25.1781C91.4213 24.9562 90.6447 24.7158 89.6461 24.4569C88.3887 24.1241 87.3624 23.7913 86.5673 23.4584C85.7907 23.1071 85.125 22.5708 84.5702 21.8497C84.0155 21.1285 83.7381 20.1669 83.7381 18.965C83.7381 17.8555 84.0155 16.8847 84.5702 16.0526C85.125 15.2205 85.9016 14.5825 86.9002 14.1387C87.8987 13.6949 89.0544 13.473 90.3673 13.473C92.2349 13.473 93.7605 13.9446 94.9439 14.8876C96.1459 15.8122 96.8116 17.0881 96.941 18.7153H93.4461C93.3907 18.0127 93.0578 17.4117 92.4476 16.9124C91.8374 16.4132 91.033 16.1635 90.0345 16.1635C89.1284 16.1635 88.3887 16.3947 87.8155 16.857C87.2423 17.3192 86.9556 17.9849 86.9556 18.854C86.9556 19.4458 87.1313 19.9358 87.4826 20.3241C87.8525 20.6939 88.3148 20.9898 88.8695 21.2117C89.4242 21.4336 90.1824 21.674 91.144 21.9329C92.4199 22.2842 93.4554 22.6355 94.2505 22.9869C95.0641 23.3382 95.7483 23.8837 96.3031 24.6234C96.8763 25.3445 97.1629 26.3153 97.1629 27.5358C97.1629 28.5158 96.8948 29.4404 96.3585 30.3095C95.8408 31.1786 95.0734 31.8813 94.0564 32.4175C93.0578 32.9353 91.8744 33.1942 90.506 33.1942ZM107.634 25.3723L114.679 33H110.408L104.749 26.4263V33H101.587V12.4745H104.749V24.4015L110.297 17.7168H114.679L107.634 25.3723ZM119.248 15.692C118.675 15.692 118.194 15.4978 117.806 15.1095C117.417 14.7212 117.223 14.2404 117.223 13.6672C117.223 13.0939 117.417 12.6132 117.806 12.2248C118.194 11.8365 118.675 11.6424 119.248 11.6424C119.803 11.6424 120.274 11.8365 120.663 12.2248C121.051 12.6132 121.245 13.0939 121.245 13.6672C121.245 14.2404 121.051 14.7212 120.663 15.1095C120.274 15.4978 119.803 15.692 119.248 15.692ZM120.801 17.7168V33H117.639V17.7168H120.801ZM128.808 12.4745V33H125.646V12.4745H128.808ZM136.815 12.4745V33H133.653V12.4745H136.815ZM147.208 33.2496C146.006 33.2496 144.924 33.037 143.962 32.6117C143.019 32.1679 142.27 31.5762 141.716 30.8365C141.161 30.0784 140.865 29.237 140.828 28.3124H144.101C144.156 28.9596 144.462 29.5051 145.016 29.9489C145.59 30.3742 146.301 30.5869 147.152 30.5869C148.04 30.5869 148.724 30.4204 149.205 30.0876C149.704 29.7363 149.953 29.2925 149.953 28.7562C149.953 28.183 149.676 27.7577 149.121 27.4803C148.585 27.2029 147.725 26.8978 146.542 26.565C145.395 26.2506 144.462 25.9455 143.74 25.6496C143.019 25.3538 142.39 24.9007 141.854 24.2905C141.336 23.6803 141.078 22.8759 141.078 21.8774C141.078 21.0638 141.318 20.3241 141.799 19.6584C142.28 18.9742 142.964 18.438 143.851 18.0497C144.757 17.6613 145.793 17.4672 146.958 17.4672C148.696 17.4672 150.092 17.911 151.146 18.7986C152.219 19.6677 152.792 20.8604 152.866 22.3767H149.704C149.648 21.6925 149.371 21.147 148.872 20.7402C148.372 20.3334 147.698 20.1299 146.847 20.1299C146.015 20.1299 145.377 20.2871 144.933 20.6015C144.489 20.9158 144.267 21.3319 144.267 21.8497C144.267 22.2565 144.415 22.5986 144.711 22.8759C145.007 23.1533 145.368 23.3752 145.793 23.5416C146.218 23.6896 146.847 23.8837 147.679 24.1241C148.789 24.42 149.695 24.7251 150.397 25.0394C151.118 25.3353 151.738 25.7791 152.256 26.3708C152.773 26.9625 153.042 27.7484 153.06 28.7285C153.06 29.5976 152.82 30.3742 152.339 31.0584C151.858 31.7426 151.174 32.2788 150.286 32.6672C149.417 33.0555 148.391 33.2496 147.208 33.2496Z" fill="black"/>
</svg>
