<svg width="260" height="27" viewBox="0 0 260 27" fill="none" xmlns="http://www.w3.org/2000/svg">
<path d="M12.8881 3L14.8481 3.4L11.1081 21L9.14812 20.6L12.8881 3ZM19.5881 12L15.9981 8.41V5.58L22.4181 12L15.9981 18.41V15.58L19.5881 12ZM1.57812 12L7.99813 5.58V8.41L4.40812 12L7.99813 15.58V18.41L1.57812 12Z" fill="#E80505"/>
<path d="M58.048 3.248L53.368 20H49.408L46.264 8.072L42.976 20L39.04 20.024L34.528 3.248H38.128L41.08 16.256L44.488 3.248H48.232L51.448 16.184L54.424 3.248H58.048ZM72.6019 13.064C72.6019 13.544 72.5699 13.976 72.5059 14.36H62.7859C62.8659 15.32 63.2019 16.072 63.7939 16.616C64.3859 17.16 65.1139 17.432 65.9779 17.432C67.2259 17.432 68.1139 16.896 68.6419 15.824H72.2659C71.8819 17.104 71.1459 18.16 70.0579 18.992C68.9699 19.808 67.6339 20.216 66.0499 20.216C64.7699 20.216 63.6179 19.936 62.5939 19.376C61.5859 18.8 60.7939 17.992 60.2179 16.952C59.6579 15.912 59.3779 14.712 59.3779 13.352C59.3779 11.976 59.6579 10.768 60.2179 9.728C60.7779 8.688 61.5619 7.888 62.5699 7.328C63.5779 6.768 64.7379 6.488 66.0499 6.488C67.3139 6.488 68.4419 6.76 69.4339 7.304C70.4419 7.848 71.2179 8.624 71.7619 9.632C72.3219 10.624 72.6019 11.768 72.6019 13.064ZM69.1219 12.104C69.1059 11.24 68.7939 10.552 68.1859 10.04C67.5779 9.512 66.8339 9.248 65.9539 9.248C65.1219 9.248 64.4179 9.504 63.8419 10.016C63.2819 10.512 62.9379 11.208 62.8099 12.104H69.1219ZM78.4144 8.648C78.8464 8.008 79.4384 7.488 80.1904 7.088C80.9584 6.688 81.8304 6.488 82.8064 6.488C83.9424 6.488 84.9664 6.768 85.8784 7.328C86.8064 7.888 87.5344 8.688 88.0624 9.728C88.6064 10.752 88.8784 11.944 88.8784 13.304C88.8784 14.664 88.6064 15.872 88.0624 16.928C87.5344 17.968 86.8064 18.776 85.8784 19.352C84.9664 19.928 83.9424 20.216 82.8064 20.216C81.8144 20.216 80.9424 20.024 80.1904 19.64C79.4544 19.24 78.8624 18.728 78.4144 18.104V20H75.0544V2.24H78.4144V8.648ZM85.4464 13.304C85.4464 12.504 85.2784 11.816 84.9424 11.24C84.6224 10.648 84.1904 10.2 83.6464 9.896C83.1184 9.592 82.5424 9.44 81.9184 9.44C81.3104 9.44 80.7344 9.6 80.1904 9.92C79.6624 10.224 79.2304 10.672 78.8944 11.264C78.5744 11.856 78.4144 12.552 78.4144 13.352C78.4144 14.152 78.5744 14.848 78.8944 15.44C79.2304 16.032 79.6624 16.488 80.1904 16.808C80.7344 17.112 81.3104 17.264 81.9184 17.264C82.5424 17.264 83.1184 17.104 83.6464 16.784C84.1904 16.464 84.6224 16.008 84.9424 15.416C85.2784 14.824 85.4464 14.12 85.4464 13.304ZM102.895 3.248C104.655 3.248 106.199 3.592 107.527 4.28C108.871 4.968 109.903 5.952 110.623 7.232C111.359 8.496 111.727 9.968 111.727 11.648C111.727 13.328 111.359 14.8 110.623 16.064C109.903 17.312 108.871 18.28 107.527 18.968C106.199 19.656 104.655 20 102.895 20H97.0388V3.248H102.895ZM102.775 17.144C104.535 17.144 105.895 16.664 106.855 15.704C107.815 14.744 108.295 13.392 108.295 11.648C108.295 9.904 107.815 8.544 106.855 7.568C105.895 6.576 104.535 6.08 102.775 6.08H100.399V17.144H102.775ZM126.602 13.064C126.602 13.544 126.57 13.976 126.506 14.36H116.786C116.866 15.32 117.202 16.072 117.794 16.616C118.386 17.16 119.114 17.432 119.978 17.432C121.226 17.432 122.114 16.896 122.642 15.824H126.266C125.882 17.104 125.146 18.16 124.058 18.992C122.97 19.808 121.634 20.216 120.05 20.216C118.77 20.216 117.618 19.936 116.594 19.376C115.586 18.8 114.794 17.992 114.218 16.952C113.658 15.912 113.378 14.712 113.378 13.352C113.378 11.976 113.658 10.768 114.218 9.728C114.778 8.688 115.562 7.888 116.57 7.328C117.578 6.768 118.738 6.488 120.05 6.488C121.314 6.488 122.442 6.76 123.434 7.304C124.442 7.848 125.218 8.624 125.762 9.632C126.322 10.624 126.602 11.768 126.602 13.064ZM123.122 12.104C123.106 11.24 122.794 10.552 122.186 10.04C121.578 9.512 120.834 9.248 119.954 9.248C119.122 9.248 118.418 9.504 117.842 10.016C117.282 10.512 116.938 11.208 116.81 12.104H123.122ZM134.598 16.904L137.958 6.704H141.534L136.614 20H132.534L127.638 6.704H131.238L134.598 16.904ZM155.782 13.064C155.782 13.544 155.75 13.976 155.686 14.36H145.966C146.046 15.32 146.382 16.072 146.974 16.616C147.566 17.16 148.294 17.432 149.158 17.432C150.406 17.432 151.294 16.896 151.822 15.824H155.446C155.062 17.104 154.326 18.16 153.238 18.992C152.15 19.808 150.814 20.216 149.23 20.216C147.95 20.216 146.798 19.936 145.774 19.376C144.766 18.8 143.974 17.992 143.398 16.952C142.838 15.912 142.558 14.712 142.558 13.352C142.558 11.976 142.838 10.768 143.398 9.728C143.958 8.688 144.742 7.888 145.75 7.328C146.758 6.768 147.918 6.488 149.23 6.488C150.494 6.488 151.622 6.76 152.614 7.304C153.622 7.848 154.398 8.624 154.942 9.632C155.502 10.624 155.782 11.768 155.782 13.064ZM152.302 12.104C152.286 11.24 151.974 10.552 151.366 10.04C150.758 9.512 150.014 9.248 149.134 9.248C148.302 9.248 147.598 9.504 147.022 10.016C146.462 10.512 146.118 11.208 145.99 12.104H152.302ZM161.594 2.24V20H158.234V2.24H161.594ZM170.818 20.216C169.538 20.216 168.386 19.936 167.362 19.376C166.338 18.8 165.53 17.992 164.938 16.952C164.362 15.912 164.074 14.712 164.074 13.352C164.074 11.992 164.37 10.792 164.962 9.752C165.57 8.712 166.394 7.912 167.434 7.352C168.474 6.776 169.634 6.488 170.914 6.488C172.194 6.488 173.354 6.776 174.394 7.352C175.434 7.912 176.25 8.712 176.842 9.752C177.45 10.792 177.754 11.992 177.754 13.352C177.754 14.712 177.442 15.912 176.818 16.952C176.21 17.992 175.378 18.8 174.322 19.376C173.282 19.936 172.114 20.216 170.818 20.216ZM170.818 17.288C171.426 17.288 171.994 17.144 172.522 16.856C173.066 16.552 173.498 16.104 173.818 15.512C174.138 14.92 174.298 14.2 174.298 13.352C174.298 12.088 173.962 11.12 173.29 10.448C172.634 9.76 171.826 9.416 170.866 9.416C169.906 9.416 169.098 9.76 168.442 10.448C167.802 11.12 167.482 12.088 167.482 13.352C167.482 14.616 167.794 15.592 168.418 16.28C169.058 16.952 169.858 17.288 170.818 17.288ZM183.579 8.624C184.011 8.016 184.603 7.512 185.355 7.112C186.123 6.696 186.995 6.488 187.971 6.488C189.107 6.488 190.131 6.768 191.043 7.328C191.971 7.888 192.699 8.688 193.227 9.728C193.771 10.752 194.043 11.944 194.043 13.304C194.043 14.664 193.771 15.872 193.227 16.928C192.699 17.968 191.971 18.776 191.043 19.352C190.131 19.928 189.107 20.216 187.971 20.216C186.995 20.216 186.131 20.016 185.379 19.616C184.643 19.216 184.043 18.712 183.579 18.104V26.336H180.219V6.704H183.579V8.624ZM190.611 13.304C190.611 12.504 190.443 11.816 190.107 11.24C189.787 10.648 189.355 10.2 188.811 9.896C188.283 9.592 187.707 9.44 187.083 9.44C186.475 9.44 185.899 9.6 185.355 9.92C184.827 10.224 184.395 10.672 184.059 11.264C183.739 11.856 183.579 12.552 183.579 13.352C183.579 14.152 183.739 14.848 184.059 15.44C184.395 16.032 184.827 16.488 185.355 16.808C185.899 17.112 186.475 17.264 187.083 17.264C187.707 17.264 188.283 17.104 188.811 16.784C189.355 16.464 189.787 16.008 190.107 15.416C190.443 14.824 190.611 14.12 190.611 13.304ZM212.996 6.512C214.628 6.512 215.94 7.016 216.932 8.024C217.94 9.016 218.444 10.408 218.444 12.2V20H215.084V12.656C215.084 11.616 214.82 10.824 214.292 10.28C213.764 9.72 213.044 9.44 212.132 9.44C211.22 9.44 210.492 9.72 209.948 10.28C209.42 10.824 209.156 11.616 209.156 12.656V20H205.796V12.656C205.796 11.616 205.532 10.824 205.004 10.28C204.476 9.72 203.756 9.44 202.844 9.44C201.916 9.44 201.18 9.72 200.636 10.28C200.108 10.824 199.844 11.616 199.844 12.656V20H196.484V6.704H199.844V8.312C200.276 7.752 200.828 7.312 201.5 6.992C202.188 6.672 202.94 6.512 203.756 6.512C204.796 6.512 205.724 6.736 206.54 7.184C207.356 7.616 207.988 8.24 208.436 9.056C208.868 8.288 209.492 7.672 210.308 7.208C211.14 6.744 212.036 6.512 212.996 6.512ZM233.993 13.064C233.993 13.544 233.961 13.976 233.897 14.36H224.177C224.257 15.32 224.593 16.072 225.185 16.616C225.777 17.16 226.505 17.432 227.369 17.432C228.617 17.432 229.505 16.896 230.033 15.824H233.657C233.273 17.104 232.537 18.16 231.449 18.992C230.361 19.808 229.025 20.216 227.441 20.216C226.161 20.216 225.009 19.936 223.985 19.376C222.977 18.8 222.185 17.992 221.609 16.952C221.049 15.912 220.769 14.712 220.769 13.352C220.769 11.976 221.049 10.768 221.609 9.728C222.169 8.688 222.953 7.888 223.961 7.328C224.969 6.768 226.129 6.488 227.441 6.488C228.705 6.488 229.833 6.76 230.825 7.304C231.833 7.848 232.609 8.624 233.153 9.632C233.713 10.624 233.993 11.768 233.993 13.064ZM230.513 12.104C230.497 11.24 230.185 10.552 229.577 10.04C228.969 9.512 228.225 9.248 227.345 9.248C226.513 9.248 225.809 9.504 225.233 10.016C224.673 10.512 224.329 11.208 224.201 12.104H230.513ZM243.813 6.512C245.397 6.512 246.677 7.016 247.653 8.024C248.629 9.016 249.117 10.408 249.117 12.2V20H245.757V12.656C245.757 11.6 245.493 10.792 244.965 10.232C244.437 9.656 243.717 9.368 242.805 9.368C241.877 9.368 241.141 9.656 240.597 10.232C240.069 10.792 239.805 11.6 239.805 12.656V20H236.445V6.704H239.805V8.36C240.253 7.784 240.821 7.336 241.509 7.016C242.213 6.68 242.981 6.512 243.813 6.512ZM256.224 9.464V15.896C256.224 16.344 256.328 16.672 256.536 16.88C256.76 17.072 257.128 17.168 257.64 17.168H259.2V20H257.088C254.256 20 252.84 18.624 252.84 15.872V9.464H251.256V6.704H252.84V3.416H256.224V6.704H259.2V9.464H256.224Z" fill="black"/>
</svg>
