<svg width="458" height="60" viewBox="0 0 458 60" fill="none" xmlns="http://www.w3.org/2000/svg">
<path d="M22.44 24.48C22.44 25.8933 22.1067 27.2267 21.44 28.48C20.7733 29.7333 19.7067 30.76 18.24 31.56C16.7733 32.3333 14.8933 32.72 12.6 32.72H7.56V44H3V16.2H12.6C14.7333 16.2 16.5333 16.5733 18 17.32C19.4933 18.04 20.6 19.0267 21.32 20.28C22.0667 21.5333 22.44 22.9333 22.44 24.48ZM12.6 29C14.3333 29 15.6267 28.6133 16.48 27.84C17.3333 27.04 17.76 25.92 17.76 24.48C17.76 21.44 16.04 19.92 12.6 19.92H7.56V29H12.6ZM37.3491 44.36C35.2691 44.36 33.3891 43.8933 31.7091 42.96C30.0291 42 28.7091 40.6667 27.7491 38.96C26.7891 37.2267 26.3091 35.2267 26.3091 32.96C26.3091 30.72 26.8024 28.7333 27.7891 27C28.7757 25.2667 30.1224 23.9333 31.8291 23C33.5357 22.0667 35.4424 21.6 37.5491 21.6C39.6557 21.6 41.5624 22.0667 43.2691 23C44.9757 23.9333 46.3224 25.2667 47.3091 27C48.2957 28.7333 48.7891 30.72 48.7891 32.96C48.7891 35.2 48.2824 37.1867 47.2691 38.92C46.2557 40.6533 44.8691 42 43.1091 42.96C41.3757 43.8933 39.4557 44.36 37.3491 44.36ZM37.3491 40.4C38.5224 40.4 39.6157 40.12 40.6291 39.56C41.6691 39 42.5091 38.16 43.1491 37.04C43.7891 35.92 44.1091 34.56 44.1091 32.96C44.1091 31.36 43.8024 30.0133 43.1891 28.92C42.5757 27.8 41.7624 26.96 40.7491 26.4C39.7357 25.84 38.6424 25.56 37.4691 25.56C36.2957 25.56 35.2024 25.84 34.1891 26.4C33.2024 26.96 32.4157 27.8 31.8291 28.92C31.2424 30.0133 30.9491 31.36 30.9491 32.96C30.9491 35.3333 31.5491 37.1733 32.7491 38.48C33.9757 39.76 35.5091 40.4 37.3491 40.4ZM58.8569 25.16C59.5235 24.04 60.4035 23.1733 61.4969 22.56C62.6169 21.92 63.9369 21.6 65.4569 21.6V26.32H64.2969C62.5102 26.32 61.1502 26.7733 60.2169 27.68C59.3102 28.5867 58.8569 30.16 58.8569 32.4V44H54.2969V21.96H58.8569V25.16ZM75.9684 25.68V37.88C75.9684 38.7067 76.1551 39.3067 76.5284 39.68C76.9284 40.0267 77.5951 40.2 78.5284 40.2H81.3284V44H77.7284C75.6751 44 74.1018 43.52 73.0084 42.56C71.9151 41.6 71.3684 40.04 71.3684 37.88V25.68H68.7684V21.96H71.3684V16.48H75.9684V21.96H81.3284V25.68H75.9684ZM95.7713 25.68H91.6913V44H87.0913V25.68H84.4913V21.96H87.0913V20.4C87.0913 17.8667 87.7579 16.0267 89.0913 14.88C90.4513 13.7067 92.5713 13.12 95.4513 13.12V16.92C94.0646 16.92 93.0913 17.1867 92.5313 17.72C91.9713 18.2267 91.6913 19.12 91.6913 20.4V21.96H95.7713V25.68ZM110.373 44.36C108.293 44.36 106.413 43.8933 104.733 42.96C103.053 42 101.733 40.6667 100.773 38.96C99.8125 37.2267 99.3325 35.2267 99.3325 32.96C99.3325 30.72 99.8258 28.7333 100.813 27C101.799 25.2667 103.146 23.9333 104.853 23C106.559 22.0667 108.466 21.6 110.573 21.6C112.679 21.6 114.586 22.0667 116.293 23C117.999 23.9333 119.346 25.2667 120.333 27C121.319 28.7333 121.813 30.72 121.813 32.96C121.813 35.2 121.306 37.1867 120.293 38.92C119.279 40.6533 117.893 42 116.133 42.96C114.399 43.8933 112.479 44.36 110.373 44.36ZM110.373 40.4C111.546 40.4 112.639 40.12 113.653 39.56C114.693 39 115.533 38.16 116.173 37.04C116.813 35.92 117.133 34.56 117.133 32.96C117.133 31.36 116.826 30.0133 116.213 28.92C115.599 27.8 114.786 26.96 113.773 26.4C112.759 25.84 111.666 25.56 110.493 25.56C109.319 25.56 108.226 25.84 107.213 26.4C106.226 26.96 105.439 27.8 104.853 28.92C104.266 30.0133 103.973 31.36 103.973 32.96C103.973 35.3333 104.573 37.1733 105.773 38.48C106.999 39.76 108.533 40.4 110.373 40.4ZM131.88 14.4V44H127.32V14.4H131.88ZM141.187 19.04C140.361 19.04 139.667 18.76 139.107 18.2C138.547 17.64 138.267 16.9467 138.267 16.12C138.267 15.2933 138.547 14.6 139.107 14.04C139.667 13.48 140.361 13.2 141.187 13.2C141.987 13.2 142.667 13.48 143.227 14.04C143.787 14.6 144.067 15.2933 144.067 16.12C144.067 16.9467 143.787 17.64 143.227 18.2C142.667 18.76 141.987 19.04 141.187 19.04ZM143.427 21.96V44H138.867V21.96H143.427ZM159.974 44.36C157.894 44.36 156.014 43.8933 154.334 42.96C152.654 42 151.334 40.6667 150.374 38.96C149.414 37.2267 148.934 35.2267 148.934 32.96C148.934 30.72 149.427 28.7333 150.414 27C151.401 25.2667 152.747 23.9333 154.454 23C156.161 22.0667 158.067 21.6 160.174 21.6C162.281 21.6 164.187 22.0667 165.894 23C167.601 23.9333 168.947 25.2667 169.934 27C170.921 28.7333 171.414 30.72 171.414 32.96C171.414 35.2 170.907 37.1867 169.894 38.92C168.881 40.6533 167.494 42 165.734 42.96C164.001 43.8933 162.081 44.36 159.974 44.36ZM159.974 40.4C161.147 40.4 162.241 40.12 163.254 39.56C164.294 39 165.134 38.16 165.774 37.04C166.414 35.92 166.734 34.56 166.734 32.96C166.734 31.36 166.427 30.0133 165.814 28.92C165.201 27.8 164.387 26.96 163.374 26.4C162.361 25.84 161.267 25.56 160.094 25.56C158.921 25.56 157.827 25.84 156.814 26.4C155.827 26.96 155.041 27.8 154.454 28.92C153.867 30.0133 153.574 31.36 153.574 32.96C153.574 35.3333 154.174 37.1733 155.374 38.48C156.601 39.76 158.134 40.4 159.974 40.4Z" fill="#0B0909"/>
<path d="M205 29L457 31" stroke="url(#paint0_linear_104_328)" stroke-width="2" stroke-linecap="round"/>
<defs>
<linearGradient id="paint0_linear_104_328" x1="331" y1="29" x2="331" y2="31" gradientUnits="userSpaceOnUse">
<stop stop-color="#FE9119"/>
<stop offset="1" stop-color="#ED250A"/>
</linearGradient>
</defs>
</svg>
